<?xml version="1.0" encoding="UTF-8" standalone="no"?>
<svg
   width="232.03627pt"
   height="119.58pt"
   viewBox="0 0 232.03627 119.58"
   version="1.1"
   id="svg1355"
   sodipodi:docname="dirichsetup2.svg"
   inkscape:version="1.1.2 (0a00cf5339, 2022-02-04)"
   xmlns:inkscape="http://www.inkscape.org/namespaces/inkscape"
   xmlns:sodipodi="http://sodipodi.sourceforge.net/DTD/sodipodi-0.dtd"
   xmlns:xlink="http://www.w3.org/1999/xlink"
   xmlns="http://www.w3.org/2000/svg"
   xmlns:svg="http://www.w3.org/2000/svg">
  <sodipodi:namedview
     id="namedview1357"
     pagecolor="#ffffff"
     bordercolor="#666666"
     borderopacity="1.0"
     inkscape:pageshadow="2"
     inkscape:pageopacity="0.0"
     inkscape:pagecheckerboard="0"
     inkscape:document-units="pt"
     showgrid="false"
     fit-margin-top="0"
     fit-margin-left="0"
     fit-margin-right="0"
     fit-margin-bottom="0"
     inkscape:zoom="0.92927533"
     inkscape:cx="208.76482"
     inkscape:cy="-139.89395"
     inkscape:window-width="1920"
     inkscape:window-height="1031"
     inkscape:window-x="0"
     inkscape:window-y="25"
     inkscape:window-maximized="1"
     inkscape:current-layer="svg1355" />
  <defs
     id="defs1257">
    <rect
       x="6.5571351"
       y="-40.005604"
       width="118.83053"
       height="30.656237"
       id="rect14493" />
    <rect
       x="-83.325745"
       y="-140.44177"
       width="187.01953"
       height="58.497498"
       id="rect3433" />
    <symbol
       overflow="visible"
       id="e">
      <path
         style="stroke:none"
         d="m 3.64,-9.031 c -1.827,1.187 -2.92,3.234 -2.92,5.797 0,2.343 1.14,4.578 2.875,5.78 L 3.751,2.344 C 2.094,0.906 1.812,-0.484 1.812,-3.281 1.812,-6.062 2.125,-7.5 3.75,-8.828 Z m 0,0"
         id="path1212" />
    </symbol>
    <symbol
       overflow="visible"
       id="h">
      <path
         style="stroke:none"
         d="m 0.5,-9.031 -0.125,0.203 c 1.64,1.328 1.953,2.765 1.953,5.547 0,2.797 -0.281,4.187 -1.953,5.625 l 0.156,0.203 c 1.75,-1.203 2.89,-3.438 2.89,-5.781 0,-2.563 -1.108,-4.61 -2.921,-5.797 z m 0,0"
         id="path1215" />
    </symbol>
    <symbol
       overflow="visible"
       id="f">
      <path
         style="stroke:none"
         d="m 5.563,-4.375 c 0,-2.625 -0.782,-3.86 -2.422,-3.86 -1.844,0 -2.797,1.47 -2.797,4.36 0,1.406 0.25,2.61 0.672,3.188 0.421,0.593 1.093,0.921 1.828,0.921 1.812,0 2.719,-1.546 2.719,-4.609 z m -1.016,0.594 c 0,2.547 -0.453,3.61 -1.547,3.61 -1.156,0 -1.656,-1.22 -1.656,-4.126 0,-2.531 0.453,-3.516 1.578,-3.516 1.172,0 1.625,1.172 1.625,4.032 z m 0,0"
         id="path1218" />
    </symbol>
    <symbol
       overflow="visible"
       id="g">
      <path
         style="stroke:none"
         d="M 2.61,-1.297 2.438,-1.469 C 2.109,-1.359 1.906,-1.297 1.266,-1.109 1.187,-0.203 0.89,0.578 0.187,1.719 l 0.172,0.14 0.485,-0.234 c 0.969,-1.25 1.422,-2 1.765,-2.922 z m 0,0"
         id="path1221" />
    </symbol>
    <symbol
       overflow="visible"
       id="i">
      <path
         style="stroke:none"
         d="m 5.625,-1.016 -0.11,-0.218 -0.312,0.203 c -0.344,0.234 -0.61,0.36 -0.734,0.36 -0.078,0 -0.157,-0.11 -0.157,-0.235 0,-0.125 0.016,-0.219 0.094,-0.485 l 0.75,-3.062 c 0.078,-0.297 0.14,-0.672 0.14,-0.875 0,-0.266 -0.14,-0.438 -0.343,-0.438 -0.406,0 -1.14,0.407 -1.89,1.032 -0.422,0.343 -0.61,0.578 -1.172,1.265 l -0.235,0.297 1.172,-5.453 -0.156,-0.14 c -0.61,0.312 -1.047,0.421 -1.906,0.5 l -0.047,0.25 h 0.578 c 0.281,0 0.406,0.093 0.406,0.296 0,0.094 -0.016,0.203 -0.031,0.282 l -0.5,2.796 C 0.844,-2.828 0.375,-0.78 0.125,-0.03 l 0.078,0.14 0.828,-0.187 c 0.188,-1.375 0.39,-2.11 0.735,-2.75 0.53,-0.969 1.765,-2.125 2.28,-2.125 0.157,0 0.25,0.11 0.25,0.266 0,0.218 -0.062,0.671 -0.171,1.062 l -0.61,2.344 c -0.109,0.437 -0.156,0.703 -0.156,0.922 0,0.28 0.125,0.468 0.36,0.468 0.312,0 0.734,-0.25 1.906,-1.125 z m 0,0"
         id="path1224" />
    </symbol>
    <symbol
       overflow="visible"
       id="j">
      <path
         style="stroke:none"
         d="M 6.125,-1.016 6,-1.234 5.687,-1.031 c -0.296,0.187 -0.578,0.328 -0.734,0.328 -0.094,0 -0.14,-0.078 -0.14,-0.203 0,-0.156 0.03,-0.344 0.062,-0.485 l 1,-4.265 -0.078,-0.11 -0.813,0.204 -0.125,0.609 c -0.171,0.906 -0.453,1.719 -0.812,2.266 -0.703,1.092 -1.657,1.983 -2.14,1.983 -0.11,0 -0.157,-0.11 -0.157,-0.313 0,-0.171 0.016,-0.312 0.078,-0.625 l 0.688,-3.234 c 0.03,-0.188 0.046,-0.36 0.046,-0.516 0,-0.234 -0.093,-0.375 -0.25,-0.375 -0.25,0 -0.703,0.25 -1.593,0.891 l -0.344,0.234 0.094,0.235 0.375,-0.25 c 0.344,-0.219 0.469,-0.266 0.578,-0.266 0.125,0 0.203,0.11 0.203,0.234 0,0.063 -0.016,0.157 -0.016,0.22 l -0.765,3.546 c -0.016,0.125 -0.047,0.39 -0.047,0.578 0,0.266 0.187,0.469 0.422,0.469 0.75,0 2.203,-1.328 3.203,-2.984 l -0.438,1.703 c -0.093,0.297 -0.14,0.593 -0.14,0.781 0,0.297 0.14,0.5 0.36,0.5 0.312,0 0.75,-0.281 1.921,-1.14 z m 0,0"
         id="path1227" />
    </symbol>
    <symbol
       overflow="visible"
       id="l">
      <path
         style="stroke:none"
         d="M 4.938,-8.61 C 4.734,-8.703 4.391,-8.766 4.094,-8.766 a 1.11,1.11 0 0 0 -0.407,0.094 c -0.296,0.125 -1.265,0.86 -1.546,1.14 -0.266,0.266 -0.407,0.626 -0.532,1.298 l -0.187,0.953 a 9.785,9.785 0 0 1 -1.031,0.437 l -0.063,0.266 h 0.969 l -0.11,0.672 C 0.829,-1.578 0.391,0.64 0.125,1.469 c -0.219,0.703 -0.563,1.078 -1,1.078 -0.266,0 -0.422,-0.078 -0.625,-0.344 L -1.656,2.25 c -0.047,0.266 -0.219,0.844 -0.282,0.953 a 0.93,0.93 0 0 0 0.422,0.094 c 0.485,0 1.141,-0.375 1.594,-0.938 C 0.813,1.5 1.063,0.688 1.953,-3.531 2.016,-3.828 2.109,-4.187 2.172,-4.578 h 1.25 c 0.047,-0.234 0.125,-0.5 0.203,-0.672 L 3.578,-5.328 3.484,-5.312 c -0.28,0.093 -0.406,0.093 -1,0.093 H 2.297 l 0.25,-1.343 c 0.187,-1.032 0.531,-1.485 1.078,-1.485 0.36,0 0.672,0.188 0.86,0.469 l 0.124,-0.047 z m 0,0"
         id="path1230" />
    </symbol>
    <symbol
       overflow="visible"
       id="m">
      <path
         style="stroke:none"
         d="M 5.36,-0.938 5.266,-1.172 C 4.828,-0.812 4.531,-0.641 4.344,-0.641 4.156,-0.64 4,-0.75 3.89,-0.984 A 4.761,4.761 0 0 1 3.577,-2.016 L 3.374,-3.219 3.796,-3.797 c 0.547,-0.781 0.875,-1.062 1.25,-1.062 0.187,0 0.328,0.109 0.39,0.28 L 5.608,-4.625 5.78,-5.641 C 5.64,-5.719 5.53,-5.766 5.42,-5.766 c -0.468,0 -0.952,0.438 -1.687,1.532 L 3.28,-3.578 3.218,-4.141 c -0.14,-1.187 -0.469,-1.625 -1.172,-1.625 -0.313,0 -0.578,0.094 -0.688,0.25 l -0.687,1 0.203,0.11 c 0.36,-0.407 0.594,-0.563 0.828,-0.563 0.39,0 0.656,0.485 0.86,1.657 l 0.124,0.75 -0.468,0.734 C 1.703,-1.031 1.297,-0.641 0.953,-0.641 0.781,-0.64 0.641,-0.687 0.625,-0.75 L 0.485,-1.094 0.25,-1.047 c 0,0.234 -0.016,0.39 -0.094,0.766 -0.031,0.156 -0.031,0.187 -0.047,0.265 0.172,0.094 0.375,0.141 0.516,0.141 0.39,0 0.86,-0.344 1.234,-0.906 l 0.907,-1.39 0.125,0.827 c 0.171,1.016 0.437,1.469 0.859,1.469 0.266,0 0.656,-0.203 1.031,-0.547 z m 0,0"
         id="path1233" />
    </symbol>
    <symbol
       overflow="visible"
       id="n">
      <path
         style="stroke:none"
         d="m 8.36,-4.594 c 0,-0.672 -0.313,-1.172 -0.75,-1.172 a 0.545,0.545 0 0 0 -0.391,0.141 l -0.594,0.563 0.125,0.234 a 0.55,0.55 0 0 1 0.328,-0.11 c 0.328,0 0.516,0.282 0.516,0.75 0,1.735 -1.157,3.72 -2.172,3.72 -0.36,0 -0.61,-0.47 -0.61,-1.141 a 8.2,8.2 0 0 1 0.25,-1.86 L 5.687,-5.672 5.609,-5.766 4.719,-5.5 4.375,-3.719 a 5.727,5.727 0 0 1 -0.656,1.86 C 3.234,-0.953 2.78,-0.47 2.422,-0.47 c -0.406,0 -0.688,-0.469 -0.688,-1.156 0,-1.422 0.485,-2.578 1.672,-3.922 L 3.281,-5.767 c -0.234,0.11 -0.39,0.141 -0.719,0.141 -0.5,0 -0.984,-0.047 -1.468,-0.078 -0.157,-0.016 -0.25,0.031 -0.39,0.078 -0.173,0.328 -0.298,0.766 -0.454,1.422 h 0.266 l 0.203,-0.5 c 0.078,-0.203 0.328,-0.344 0.61,-0.344 0.218,0 0.437,0.031 0.671,0.031 0.25,0 0.406,-0.015 0.703,-0.046 -0.11,0.156 -0.234,0.28 -0.36,0.421 -1.076,1.267 -1.483,2.126 -1.483,3.142 0,0.969 0.422,1.625 1.047,1.625 0.766,0 1.39,-0.656 2.282,-2.36 -0.11,0.532 -0.141,0.829 -0.141,1.094 0,0.766 0.344,1.266 0.875,1.266 0.969,0 2.219,-1.203 2.969,-2.844 0.265,-0.594 0.468,-1.39 0.468,-1.875 z m 0,0"
         id="path1236" />
    </symbol>
    <symbol
       overflow="visible"
       id="k">
      <path
         style="stroke:none"
         d="M 0.781,-4.14 H 7.22 V -4.86 H 0.78 Z m 0,2.53 H 7.22 V -2.312 H 0.78 Z m 0,0"
         id="path1239" />
    </symbol>
    <symbol
       overflow="visible"
       id="o">
      <path
         style="stroke:none"
         d="M 7.906,-0.078 C 7.188,-1.391 6.609,-2.844 6.016,-4.234 5.422,-5.563 4.796,-6.938 4.328,-8.328 H 4.031 C 3.438,-6.844 2.766,-5.375 2.11,-3.891 1.531,-2.625 0.984,-1.297 0.33,-0.078 L 0.407,0.047 C 1.672,0 2.937,0 4.22,0 5.422,0 6.64,0.016 7.844,0.047 Z M 6.422,-0.438 H 1.25 a 129.29,129.29 0 0 1 2.547,-6.296 h 0.094 c 0.89,2.062 1.75,4.171 2.53,6.296 z m 0,0"
         id="path1242" />
    </symbol>
    <clipPath
       id="a">
      <path
         d="m 162,102 h 18 v 1 h -18 z m 0,0"
         id="path1245" />
    </clipPath>
    <clipPath
       id="b">
      <path
         d="m -1.23,-0.465 v 122 h 204 v -122 z m 170.52,105.66 h 10.737 V 99.797 H 169.29 l 9,2.7 z m 0,0"
         id="path1248" />
    </clipPath>
    <clipPath
       id="c">
      <path
         d="m 31,2 h 2 v 18 h -2 z m 0,0"
         id="path1251" />
    </clipPath>
    <clipPath
       id="d">
      <path
         d="m -1.23,-0.465 v 122 h 204 v -122 z m 36,12.543 V 1.336 h -5.403 v 10.742 l 2.7,-9 z m 0,0"
         id="path1254" />
    </clipPath>
    <rect
       x="6.5571351"
       y="-40.005604"
       width="118.83053"
       height="30.656237"
       id="rect14493-7" />
    <rect
       x="6.5571351"
       y="-40.005604"
       width="118.83053"
       height="30.656237"
       id="rect14493-9" />
    <rect
       x="6.5571351"
       y="-40.005604"
       width="118.83053"
       height="30.656237"
       id="rect14493-5" />
  </defs>
  <path
     style="fill:none;stroke:#000000;stroke-width:0.9;stroke-linecap:butt;stroke-linejoin:miter;stroke-miterlimit:10;stroke-opacity:1"
     d="M 31.9044,102.132 H 162.2247 V 18.6126 H 31.9044 Z m 0,0"
     id="path1259" />
  <g
     clip-path="url(#a)"
     id="g1265"
     transform="translate(-0.162,-0.36400046)">
    <g
       clip-path="url(#b)"
       clip-rule="evenodd"
       id="g1263">
      <path
         style="fill:none;stroke:#000000;stroke-width:4.5;stroke-linecap:butt;stroke-linejoin:miter;stroke-miterlimit:10;stroke-opacity:1"
         d="m 1636.187,190.41 h 167.422"
         transform="matrix(0.1,0,0,-0.1,-1.232,121.537)"
         id="path1261" />
    </g>
  </g>
  <path
     style="fill:none;stroke:#000000;stroke-width:0.45;stroke-linecap:butt;stroke-linejoin:miter;stroke-miterlimit:10;stroke-opacity:1"
     d="m 169.127,104.8313 9,-2.6992 -9,-2.6992"
     id="path1267" />
  <g
     clip-path="url(#c)"
     id="g1273"
     transform="translate(-0.162,-0.36400046)">
    <g
       clip-path="url(#d)"
       clip-rule="evenodd"
       id="g1271">
      <path
         style="fill:none;stroke:#000000;stroke-width:4.5;stroke-linecap:butt;stroke-linejoin:miter;stroke-miterlimit:10;stroke-opacity:1"
         d="m 332.984,1025.604 v 167.383"
         transform="matrix(0.1,0,0,-0.1,-1.232,121.537)"
         id="path1269" />
    </g>
  </g>
  <path
     style="fill:none;stroke:#000000;stroke-width:0.45;stroke-linecap:butt;stroke-linejoin:miter;stroke-miterlimit:10;stroke-opacity:1"
     d="M 34.6075,11.7141 31.9045,2.7140995 29.2052,11.7141"
     id="path1275" />
  <use
     xlink:href="#e"
     x="-0.33199999"
     y="117.397"
     style="fill:#000000;fill-opacity:1"
     id="use1277"
     width="100%"
     height="100%"
     transform="translate(-0.162,-0.36400046)" />
  <use
     xlink:href="#f"
     x="3.8039999"
     y="117.397"
     style="fill:#000000;fill-opacity:1"
     id="use1279"
     width="100%"
     height="100%"
     transform="translate(-0.162,-0.36400046)" />
  <use
     xlink:href="#g"
     x="10.14"
     y="117.397"
     style="fill:#000000;fill-opacity:1"
     id="use1281"
     width="100%"
     height="100%"
     transform="translate(-0.162,-0.36400046)" />
  <use
     xlink:href="#f"
     x="15.361"
     y="117.397"
     style="fill:#000000;fill-opacity:1"
     id="use1283"
     width="100%"
     height="100%"
     transform="translate(-0.162,-0.36400046)" />
  <use
     xlink:href="#h"
     x="21.337999"
     y="117.397"
     style="fill:#000000;fill-opacity:1"
     id="use1285"
     width="100%"
     height="100%"
     transform="translate(-0.162,-0.36400046)" />
  <use
     xlink:href="#e"
     x="-0.33199999"
     y="9.3950005"
     style="fill:#000000;fill-opacity:1"
     id="use1287"
     width="100%"
     height="100%"
     transform="translate(-0.162,-0.36400046)" />
  <use
     xlink:href="#f"
     x="3.8039999"
     y="9.3950005"
     style="fill:#000000;fill-opacity:1"
     id="use1289"
     width="100%"
     height="100%"
     transform="translate(-0.162,-0.36400046)" />
  <use
     xlink:href="#g"
     x="10.14"
     y="9.3950005"
     style="fill:#000000;fill-opacity:1"
     id="use1291"
     width="100%"
     height="100%"
     transform="translate(-0.162,-0.36400046)" />
  <use
     xlink:href="#h"
     x="22.653"
     y="9.3950005"
     style="fill:#000000;fill-opacity:1"
     id="use1295"
     width="100%"
     height="100%"
     transform="translate(-0.162,-0.36400046)" />
  <use
     xlink:href="#j"
     x="-0.213"
     y="60.695999"
     style="fill:#000000;fill-opacity:1"
     id="use1297"
     width="100%"
     height="100%"
     transform="translate(-0.162,-0.36400046)" />
  <use
     xlink:href="#k"
     x="10.353"
     y="60.695999"
     style="fill:#000000;fill-opacity:1"
     id="use1299"
     width="100%"
     height="100%"
     transform="translate(-0.162,-0.36400046)" />
  <use
     xlink:href="#f"
     x="21.672001"
     y="60.695999"
     style="fill:#000000;fill-opacity:1"
     id="use1301"
     width="100%"
     height="100%"
     transform="translate(-0.162,-0.36400046)" />
  <use
     xlink:href="#j"
     x="172.53101"
     y="59.015999"
     style="fill:#000000;fill-opacity:1"
     id="use1303"
     width="100%"
     height="100%"
     transform="translate(-0.162,-0.36400046)" />
  <use
     xlink:href="#k"
     x="183.097"
     y="59.015999"
     style="fill:#000000;fill-opacity:1"
     id="use1305"
     width="100%"
     height="100%"
     transform="translate(-0.162,-0.36400046)" />
  <use
     xlink:href="#j"
     x="80.789001"
     y="117.397"
     style="fill:#000000;fill-opacity:1"
     id="use1309"
     width="100%"
     height="100%"
     transform="translate(-0.162,-0.36400046)" />
  <use
     xlink:href="#k"
     x="91.355003"
     y="117.397"
     style="fill:#000000;fill-opacity:1"
     id="use1311"
     width="100%"
     height="100%"
     transform="translate(-0.162,-0.36400046)" />
  <use
     xlink:href="#m"
     x="114.497"
     y="117.397"
     style="fill:#000000;fill-opacity:1"
     id="use1317"
     transform="translate(-12.216223,-0.80550649)"
     width="100%"
     height="100%" />
  <use
     xlink:href="#e"
     x="166.16701"
     y="117.397"
     style="fill:#000000;fill-opacity:1"
     id="use1321"
     width="100%"
     height="100%"
     transform="translate(-0.162,-0.36400046)" />
  <use
     xlink:href="#g"
     x="180.01601"
     y="117.397"
     style="fill:#000000;fill-opacity:1"
     id="use1325"
     width="100%"
     height="100%"
     transform="translate(-0.162,-0.36400046)" />
  <use
     xlink:href="#f"
     x="185.23599"
     y="117.397"
     style="fill:#000000;fill-opacity:1"
     id="use1327"
     width="100%"
     height="100%"
     transform="translate(-0.162,-0.36400046)" />
  <use
     xlink:href="#h"
     x="191.214"
     y="117.397"
     style="fill:#000000;fill-opacity:1"
     id="use1329"
     width="100%"
     height="100%"
     transform="translate(-0.162,-0.36400046)" />
  <use
     xlink:href="#j"
     x="85.289001"
     y="11.195"
     style="fill:#000000;fill-opacity:1"
     id="use1331"
     width="100%"
     height="100%"
     transform="translate(-0.162,-0.36400046)" />
  <use
     xlink:href="#k"
     x="95.855003"
     y="11.195"
     style="fill:#000000;fill-opacity:1"
     id="use1333"
     width="100%"
     height="100%"
     transform="translate(-0.162,-0.36400046)" />
  <use
     xlink:href="#f"
     x="107.174"
     y="11.195"
     style="fill:#000000;fill-opacity:1"
     id="use1335"
     width="100%"
     height="100%"
     transform="translate(-0.162,-0.36400046)" />
  <use
     xlink:href="#e"
     x="166.172"
     y="9.3950005"
     style="fill:#000000;fill-opacity:1"
     id="use1337"
     width="100%"
     height="100%"
     transform="translate(-0.162,-0.36400046)" />
  <use
     xlink:href="#g"
     x="180.01601"
     y="9.3950005"
     style="fill:#000000;fill-opacity:1"
     id="use1341"
     width="100%"
     height="100%"
     transform="translate(-0.162,-0.36400046)" />
  <use
     xlink:href="#h"
     x="192.52901"
     y="9.3950005"
     style="fill:#000000;fill-opacity:1"
     id="use1345"
     width="100%"
     height="100%"
     transform="translate(-0.162,-0.36400046)" />
  <use
     xlink:href="#o"
     x="80.668999"
     y="60.695999"
     style="fill:#000000;fill-opacity:1"
     id="use1347"
     width="100%"
     height="100%"
     transform="translate(-0.162,-0.36400046)" />
  <use
     xlink:href="#j"
     x="89.026001"
     y="60.695999"
     style="fill:#000000;fill-opacity:1"
     id="use1349"
     width="100%"
     height="100%"
     transform="translate(-0.162,-0.36400046)" />
  <use
     xlink:href="#k"
     x="99.592003"
     y="60.695999"
     style="fill:#000000;fill-opacity:1"
     id="use1351"
     width="100%"
     height="100%"
     transform="translate(-0.162,-0.36400046)" />
  <use
     xlink:href="#f"
     x="110.911"
     y="60.695999"
     style="fill:#000000;fill-opacity:1"
     id="use1353"
     width="100%"
     height="100%"
     transform="translate(-0.162,-0.36400046)" />
  <text
     xml:space="preserve"
     transform="matrix(0.75,0,0,0.75,254.96068,154.95799)"
     id="text3431"
     style="font-size:13.3333px;line-height:1.25;font-family:sans-serif;white-space:pre;shape-inside:url(#rect3433)"><tspan
       x="-83.326172"
       y="-128.64456"
       id="tspan15779">sin(3πy)</tspan></text>
  <text
     xml:space="preserve"
     transform="matrix(0.75,0,0,0.75,9.877133,30.358966)"
     id="text14491"
     style="font-size:13.3333px;line-height:1.25;font-family:sans-serif;white-space:pre;shape-inside:url(#rect14493)"><tspan
       x="6.5566406"
       y="-28.209014"
       id="tspan15781">1</tspan></text>
  <text
     xml:space="preserve"
     transform="matrix(0.75,0,0,0.75,167.26023,137.95555)"
     id="text14491-8"
     style="font-size:13.3333px;line-height:1.25;font-family:sans-serif;white-space:pre;shape-inside:url(#rect14493-7)"><tspan
       x="6.5566406"
       y="-28.209014"
       id="tspan15783">1</tspan></text>
  <text
     xml:space="preserve"
     transform="matrix(0.75,0,0,0.75,167.26954,30.380753)"
     id="text14491-1"
     style="font-size:13.3333px;line-height:1.25;font-family:sans-serif;white-space:pre;shape-inside:url(#rect14493-9)"><tspan
       x="6.5566406"
       y="-28.209014"
       id="tspan15785">1</tspan></text>
  <text
     xml:space="preserve"
     transform="matrix(0.75,0,0,0.75,179.73844,30.482582)"
     id="text14491-4"
     style="font-size:13.3333px;line-height:1.25;font-family:sans-serif;white-space:pre;shape-inside:url(#rect14493-5)"><tspan
       x="6.5566406"
       y="-28.209014"
       id="tspan15787">1</tspan></text>
</svg>
