<?xml version="1.0" encoding="UTF-8" standalone="no"?>
<svg
   width="50.429966mm"
   height="77.418617mm"
   viewBox="0 0 50.429967 77.418618"
   version="1.1"
   id="svg4260"
   inkscape:version="1.1.2 (0a00cf5339, 2022-02-04)"
   sodipodi:docname="earthquake_slim.svg"
   xmlns:inkscape="http://www.inkscape.org/namespaces/inkscape"
   xmlns:sodipodi="http://sodipodi.sourceforge.net/DTD/sodipodi-0.dtd"
   xmlns="http://www.w3.org/2000/svg"
   xmlns:svg="http://www.w3.org/2000/svg"
   xmlns:rdf="http://www.w3.org/1999/02/22-rdf-syntax-ns#"
   xmlns:cc="http://creativecommons.org/ns#"
   xmlns:dc="http://purl.org/dc/elements/1.1/">
  <defs
     id="defs4254" />
  <sodipodi:namedview
     id="base"
     pagecolor="#ffffff"
     bordercolor="#666666"
     borderopacity="1.0"
     inkscape:pageopacity="0.0"
     inkscape:pageshadow="2"
     inkscape:zoom="1.1219644"
     inkscape:cx="-199.64982"
     inkscape:cy="110.52044"
     inkscape:document-units="mm"
     inkscape:current-layer="layer1"
     inkscape:document-rotation="0"
     showgrid="false"
     fit-margin-top="0"
     fit-margin-left="0"
     fit-margin-right="0"
     fit-margin-bottom="0"
     inkscape:window-width="1920"
     inkscape:window-height="1031"
     inkscape:window-x="0"
     inkscape:window-y="25"
     inkscape:window-maximized="1"
     inkscape:pagecheckerboard="0" />
  <metadata
     id="metadata4257">
    <rdf:RDF>
      <cc:Work
         rdf:about="">
        <dc:format>image/svg+xml</dc:format>
        <dc:type
           rdf:resource="http://purl.org/dc/dcmitype/StillImage" />
      </cc:Work>
    </rdf:RDF>
  </metadata>
  <g
     inkscape:label="Layer 1"
     inkscape:groupmode="layer"
     id="layer1"
     transform="translate(-94.518325,-37.192557)">
    <g
       id="g1992"
       transform="matrix(0.19242426,0,0,0.19242426,-212.05079,-95.832873)">
      <path
         d="m 1633.752,705.1489 c -0.437,2.189 -0.665,4.9501 -0.683,8.2833 -0.018,3.3332 0.147,5.8509 0.494,7.5532 0.348,1.7023 0.686,3.8766 1.016,6.5231 0.331,2.6464 0.512,5.7276 0.545,9.2435 0.033,3.5159 -0.036,8.248 -0.207,14.1962 -0.171,5.9483 -0.36,11.226 -0.565,15.8332 -0.206,4.6071 -0.312,19.4097 -0.32,44.4077 -0.01,24.9981 -0.096,40.6108 -0.265,46.8383 -0.169,6.2275 -0.278,10.7216 -0.327,13.4822 -0.049,2.7607 -0.036,5.3461 0.039,7.7561 0.076,2.41 0.432,5.2223 1.069,8.4367 0.637,3.2144 1.035,5.6094 1.195,7.1852 0.159,1.5757 0.248,4.5696 0.265,8.9817 0.018,4.412 -0.067,8.5823 -0.255,12.5108 -0.188,3.9286 -0.285,7.0681 -0.291,9.4185 -0.01,2.3504 0.038,4.4152 0.132,6.1944 0.094,1.7793 0.256,3.6448 0.485,5.5966 0.229,1.9518 0.324,6.1133 0.284,12.4847 -0.039,6.3713 0.013,10.5225 0.156,12.4537 0.144,1.9311 0.219,4.5737 0.224,7.9278 0.01,3.3541 0.454,5.2077 1.346,5.5607"
         style="fill:none;stroke:#3a6dd9;stroke-width:4.93701;stroke-linecap:round;stroke-linejoin:round;stroke-miterlimit:10;stroke-dasharray:none;stroke-opacity:1"
         id="path1994" />
    </g>
    <g
       id="g1996"
       transform="matrix(0.19242426,0,0,0.19242426,-212.05079,-95.832873)">
      <path
         d="m 1633.354,706.4677 c 3.383,0.1142 7.181,-0.1399 11.392,-0.7622 2.771,-0.4096 6.43,-1.1392 10.975,-2.1889 4.545,-1.0496 8.576,-1.9491 12.092,-2.6982 3.516,-0.7492 6.202,-1.267 8.058,-1.5533 1.855,-0.2863 4.366,-0.5092 7.533,-0.6687 3.166,-0.1595 5.848,-0.2271 8.044,-0.2027 2.197,0.0243 6.414,0.2729 12.652,0.7458 6.238,0.4729 10.872,0.9326 13.903,1.3791 3.03,0.4464 5.238,0.7504 6.622,0.9118 1.385,0.1615 4.602,0.2065 9.649,0.135 5.047,-0.0715 9.206,0.5583 12.476,1.8895"
         style="fill:none;stroke:#3a6dd9;stroke-width:4.93701;stroke-linecap:round;stroke-linejoin:round;stroke-miterlimit:10;stroke-dasharray:none;stroke-opacity:1"
         id="path1998" />
    </g>
    <g
       id="g2000"
       transform="matrix(0.19242426,0,0,0.19242426,-212.05079,-95.832873)">
      <path
         d="m 1753.278,695.7938 c -1.489,3.2262 -2.414,8.5763 -2.776,16.0503 -0.229,4.7485 -0.357,12.5964 -0.382,23.5436 -0.026,10.9473 -0.126,18.2296 -0.3,21.8469 -0.175,3.6174 -0.701,7.7208 -1.578,12.3102 -0.876,4.5894 -1.594,8.694 -2.151,12.3136 -0.558,3.6196 -0.925,7.3216 -1.102,11.106 -0.176,3.7843 -0.273,7.0837 -0.291,9.8981 -0.018,2.8144 0.064,5.5888 0.244,8.3233 0.181,2.7344 0.277,7.6806 0.288,14.8384 0.012,7.1579 -0.012,12.5679 -0.072,16.23 -0.06,3.662 -0.089,7.6717 -0.09,12.0291 0,4.3574 0.143,8.0333 0.429,11.0279 0.286,2.9946 0.498,5.6801 0.635,8.0564 0.137,2.3763 0.565,5.6665 1.284,9.8708 0.719,4.2043 1.218,7.9729 1.497,11.3059 0.279,3.333 0.86,7.1451 1.745,11.4362 0.885,4.2912 1.609,8.1679 2.172,11.63 0.563,3.4621 1.22,6.914 1.972,10.3557 0.751,3.4417 1.398,6.6761 1.938,9.7034 0.541,3.0272 0.864,6.3615 0.97,10.0029 0.106,3.6414 0.272,6.5137 0.496,8.6168 0.224,2.1031 0.651,4.3683 1.28,6.7954 0.961,3.7083 1.254,6.8672 0.879,9.4768"
         style="fill:none;stroke:#3a6dd9;stroke-width:4.93701;stroke-linecap:round;stroke-linejoin:round;stroke-miterlimit:10;stroke-dasharray:none;stroke-opacity:1"
         id="path2002" />
    </g>
    <g
       id="g2004"
       transform="matrix(0.19242426,0,0,0.19242426,-212.05079,-95.832873)">
      <path
         d="m 1651.679,703.4406 c -1.121,8.8939 -1.819,14.9486 -2.093,18.164 -0.189,2.2247 -0.314,5.6679 -0.375,10.3295 -0.062,4.6616 -0.094,13.5427 -0.099,26.6433 -0.01,13.1006 0.013,20.9794 0.053,23.6365 0.041,2.657 0.318,5.6585 0.832,9.0044 0.514,3.3458 0.885,6.1473 1.111,8.4045 0.226,2.2572 0.351,7.9607 0.376,17.1105 0.025,9.1498 0.629,15.5957 1.812,19.3379 1.183,3.7421 2.023,7.1035 2.52,10.0842 0.496,2.9807 0.827,5.8348 0.992,8.5623 0.164,2.7274 0.364,5.6494 0.598,8.7659 0.234,3.1165 0.378,5.8173 0.433,8.1025 0.055,2.2852 0.149,4.2552 0.284,5.9101 0.135,1.6549 0.21,6.6354 0.225,14.9414 0.015,8.3061 0.109,13.4273 0.283,15.3635 0.174,1.9363 0.264,5.7682 0.269,11.4957 0,5.7275 0.195,10.5011 0.57,14.321 0.375,3.8198 0.549,7.4023 0.521,10.7476 -0.028,3.3451 -0.269,6.7456 -0.725,10.2015 -0.455,3.4558 -0.748,7.0294 -0.879,10.7207 -0.13,3.6913 0.439,5.6677 1.709,5.9292"
         style="fill:none;stroke:#3a6dd9;stroke-width:4.93701;stroke-linecap:round;stroke-linejoin:round;stroke-miterlimit:10;stroke-dasharray:none;stroke-opacity:1"
         id="path2006" />
    </g>
    <g
       id="g2008"
       transform="matrix(0.19242426,0,0,0.19242426,-212.05079,-95.832873)">
      <path
         d="m 1676.542,702.5988 c -0.322,5.799 -0.492,16.5854 -0.51,32.3593 -0.018,15.7739 -0.277,29.8138 -0.778,42.1197 -0.501,12.3059 -0.761,21.5094 -0.78,27.6105 -0.02,6.1011 0.235,12.6786 0.763,19.7325 0.529,7.0539 0.849,12.6892 0.963,16.9059 0.113,4.2168 0.176,15.2448 0.189,33.0841 0.013,17.8393 0,29.1408 -0.048,33.9045 -0.044,4.7637 -0.026,8.0411 0.054,9.8322 0.08,1.7911 0.31,3.9593 0.689,6.5047 0.38,2.5454 0.665,5.9171 0.857,10.115 0.191,4.1979 0.376,7.2424 0.556,9.1334 0.179,1.8911 0.532,3.7868 1.06,5.6871 0.529,1.9003 1.206,3.5947 2.032,5.0831 0.826,1.4884 1.418,2.5042 1.777,3.0476 0.511,0.7737 -0.14,3.1308 -1.953,7.0711"
         style="fill:none;stroke:#3a6dd9;stroke-width:4.93701;stroke-linecap:round;stroke-linejoin:round;stroke-miterlimit:10;stroke-dasharray:none;stroke-opacity:1"
         id="path2010" />
    </g>
    <g
       id="g2012"
       transform="matrix(0.19242426,0,0,0.19242426,-212.05079,-95.832873)">
      <path
         d="m 1695.468,695.208 c -1.107,5.7748 -1.699,10.8729 -1.777,15.2944 -0.052,2.9913 0.221,6.8812 0.82,11.6697 0.599,4.7885 1.036,9.9638 1.311,15.526 0.275,5.5621 0.427,13.9785 0.457,25.249 0.031,11.2707 0.066,20.5979 0.106,27.9816 0.041,7.3838 0.063,13.9865 0.068,19.8081 0,5.8217 0.046,11.4192 0.127,16.7927 0.081,5.3736 0.488,11.959 1.221,19.7563 0.732,7.7972 1.182,13.3679 1.35,16.712 0.168,3.3442 0.261,11.2867 0.28,23.8275 0.019,12.5409 0.048,20.1548 0.088,22.8417 0.041,2.6869 0.264,6.4022 0.669,11.1459 0.406,4.7436 0.667,9.3567 0.783,13.8391 0.115,4.4825 0.491,9.1708 1.126,14.0649 0.635,4.8942 1.035,9.0102 1.2,12.3481 0.164,3.3379 0.749,5.5344 1.754,6.5897"
         style="fill:none;stroke:#3a6dd9;stroke-width:4.93701;stroke-linecap:round;stroke-linejoin:round;stroke-miterlimit:10;stroke-dasharray:none;stroke-opacity:1"
         id="path2014" />
    </g>
    <g
       id="g2016"
       transform="matrix(0.19242426,0,0,0.19242426,-212.05079,-95.832873)">
      <path
         d="m 1721.16,693.7817 c -0.654,6.3173 -0.36,17.4756 0.884,33.4749 0.772,9.9387 1.35,18.4402 1.733,25.5043 0.383,7.0642 0.634,13.2546 0.753,18.5711 0.119,5.3166 0.312,12.0255 0.579,20.1267 0.267,8.1013 0.71,17.0577 1.329,26.8692 0.618,9.8115 1.102,18.4107 1.451,25.7975 0.348,7.3868 0.57,12.7852 0.666,16.1952 0.096,3.4099 0.15,12.4262 0.16,27.049 0.011,14.6228 0.144,23.1544 0.399,25.5948 0.255,2.4403 0.523,4.4469 0.804,6.0196 0.28,1.5728 0.502,3.3135 0.664,5.2222 0.163,1.9088 0.252,4.0054 0.268,6.29 0.016,2.2846 -0.062,4.6533 -0.235,7.1063 -0.173,2.4531 -0.381,4.6324 -0.622,6.5379 -0.242,1.9055 -0.431,3.7894 -0.566,5.6515 -0.135,1.8621 -0.21,3.762 -0.223,5.6997 -0.014,1.9377 0.059,3.8188 0.219,5.6432 0.16,1.8244 0.249,4.3232 0.266,7.4964 0.018,3.1732 -0.075,5.5421 -0.279,7.107 -0.203,1.5648 -0.332,2.5575 -0.387,2.9781"
         style="fill:none;stroke:#3a6dd9;stroke-width:4.93701;stroke-linecap:round;stroke-linejoin:round;stroke-miterlimit:10;stroke-dasharray:none;stroke-opacity:1"
         id="path2018" />
    </g>
    <g
       id="g2028"
       transform="matrix(0.19242426,0,0,0.19242426,-212.05079,-95.832873)">
      <path
         d="m 1644.403,976.958 c 3.977,-0.2931 6.823,-0.6085 8.536,-0.946 1.18,-0.2326 3.429,-0.3841 6.747,-0.4546 4.964,-0.1055 9.042,-1.4526 12.235,-4.0414"
         style="fill:none;stroke:#3a6dd9;stroke-width:4.93701;stroke-linecap:round;stroke-linejoin:round;stroke-miterlimit:10;stroke-dasharray:none;stroke-opacity:1"
         id="path2030" />
    </g>
    <g
       id="g2032"
       transform="matrix(0.19242426,0,0,0.19242426,-212.05079,-95.832873)">
      <path
         d="m 1680.249,962.6323 c -3.298,0.2075 -5.151,-0.0541 -5.558,-0.785 -0.286,-0.5134 -0.456,-0.6543 -0.508,-0.4227 -0.053,0.2316 -0.185,0.8106 -0.396,1.737 -0.211,0.9265 -0.349,2.6144 -0.414,5.064 -0.064,2.4495 -0.029,4.1416 0.104,5.0762 0.134,0.9346 0.329,1.6186 0.585,2.052 0.256,0.4333 0.425,0.7194 0.507,0.8582 0.082,0.1389 0.118,-0.0656 0.11,-0.6134 -0.01,-0.5478 -0.026,-1.6765 -0.053,-3.3863 -0.027,-1.7097 -0.094,-3.8229 -0.203,-6.3396 -0.109,-2.5167 0.21,-3.9427 0.956,-4.278 0.747,-0.3353 2.661,-0.5993 5.742,-0.792 3.081,-0.1926 5.484,-0.3986 7.209,-0.6181 1.725,-0.2195 4.687,-0.8755 8.888,-1.9682 4.2,-1.0927 7.18,-1.7032 8.939,-1.8317 1.759,-0.1285 3.242,0.0626 4.449,0.5732 1.207,0.5106 2.147,2.6154 2.821,6.3145 0.674,3.6991 1.226,6.2425 1.657,7.6303 0.701,2.2577 1.327,3.5737 1.88,3.9483"
         style="fill:none;stroke:#3a6dd9;stroke-width:4.93701;stroke-linecap:round;stroke-linejoin:round;stroke-miterlimit:10;stroke-dasharray:none;stroke-opacity:1"
         id="path2034" />
    </g>
    <g
       id="g2036"
       transform="matrix(0.19242426,0,0,0.19242426,-212.05079,-95.832873)">
      <path
         d="m 1695.878,959.9164 c -0.428,2.8958 -0.698,5.8113 -0.811,8.7464 -0.179,4.6276 0.223,7.7968 1.205,9.5076"
         style="fill:none;stroke:#3a6dd9;stroke-width:4.93701;stroke-linecap:round;stroke-linejoin:round;stroke-miterlimit:10;stroke-dasharray:none;stroke-opacity:1"
         id="path2038" />
    </g>
    <g
       id="g2040"
       transform="matrix(0.19242426,0,0,0.19242426,-212.05079,-95.832873)">
      <path
         d="m 1678.691,965.6204 c 0.671,0.6438 1.473,0.8813 2.407,0.7124 0.933,-0.169 2.003,-0.5387 3.211,-1.1092 1.208,-0.5705 2.382,-1.2467 3.524,-2.0285 1.141,-0.7817 1.891,-1.4055 2.25,-1.8712 0.36,-0.4658 0.609,-0.7892 0.749,-0.9701 0.139,-0.1809 -0.01,-0.2009 -0.433,-0.06 -0.428,0.141 -1.193,0.3929 -2.295,0.7558 -1.102,0.3628 -2.367,0.9318 -3.795,1.707 -1.429,0.7751 -2.92,1.7148 -4.473,2.819 -1.552,1.1042 -2.769,2.0739 -3.649,2.9091 -0.881,0.8352 -1.412,1.4455 -1.594,1.831 -0.182,0.3855 0.04,0.6177 0.667,0.6965 0.626,0.0788 2.353,-0.5973 5.181,-2.0283 2.828,-1.4309 4.979,-2.6085 6.454,-3.5325 1.475,-0.924 2.592,-1.5138 3.352,-1.7693 0.76,-0.2556 1.187,-0.3991 1.281,-0.4306 0.093,-0.0315 -0.015,0.0688 -0.326,0.3009 -0.31,0.232 -1.726,1.2895 -4.247,3.1726 -2.52,1.883 -3.957,3.0791 -4.31,3.5884 -0.353,0.5092 0.472,0.7771 2.474,0.8035 2.003,0.0265 3.869,-0.1802 5.598,-0.6201 1.729,-0.4398 2.99,-0.8763 3.782,-1.3094 0.791,-0.4332 1.282,-0.7016 1.472,-0.8054 0.189,-0.1037 0.116,-0.1244 -0.219,-0.0618 -0.336,0.0626 -1.205,0.2245 -2.606,0.4857 -1.401,0.2612 -3.88,1.2304 -7.436,2.9076 -3.555,1.6772 -5.803,2.946 -6.744,3.8063 -0.94,0.8602 -0.945,1.2979 -0.013,1.3131 0.931,0.0151 2.971,-0.4254 6.118,-1.3216 3.148,-0.8962 5.183,-1.4424 6.105,-1.6386 1.29,-0.2747 1.286,1.4844 -0.012,5.2771"
         style="fill:none;stroke:#3a6dd9;stroke-width:4.93701;stroke-linecap:round;stroke-linejoin:round;stroke-miterlimit:10;stroke-dasharray:none;stroke-opacity:1"
         id="path2042" />
    </g>
    <g
       id="g2044"
       transform="matrix(0.19242426,0,0,0.19242426,-212.05079,-95.832873)">
      <path
         d="m 1702.872,960.5201 c -4.525,1.5833 -7.045,2.569 -7.56,2.9571 -0.361,0.2724 1.376,0.4124 5.21,0.4203 l 5.35,-0.026 -0.03,-0.006 c -0.289,-0.0291 -1.011,-0.1017 -2.165,-0.2179 -1.155,-0.1162 -2.488,-0.0486 -3.999,0.2029 -1.511,0.2515 -2.925,0.6365 -4.241,1.1551 -1.317,0.5186 -2.122,0.8359 -2.417,0.952 -0.295,0.1161 -0.309,0.1799 -0.042,0.1916 0.266,0.0117 0.994,0.0435 2.183,0.0956 1.189,0.052 3.807,-0.3485 7.854,-1.2017 4.047,-0.8531 6.188,-1.3046 6.425,-1.3545 0.236,-0.0498 0.323,-0.0627 0.261,-0.0388 -0.063,0.024 -0.63,0.2414 -1.701,0.652 -1.07,0.4106 -3.171,1.3637 -6.301,2.8593 -3.13,1.4955 -4.442,2.3441 -3.937,2.5459 0.505,0.2017 2.469,0.0162 5.892,-0.5566 3.422,-0.5727 5.617,-0.92 6.586,-1.042 0.969,-0.1219 1.479,-0.1861 1.532,-0.1927 0.052,-0.007 0.014,0.0248 -0.116,0.0944 -0.129,0.0695 -1.388,0.7454 -3.776,2.0278 -2.389,1.2825 -4.157,2.4305 -5.305,3.4442 -1.148,1.0137 -1.24,1.6902 -0.276,2.0295 0.964,0.3394 1.999,0.4236 3.103,0.2528 1.105,-0.1708 2.597,-0.6483 4.477,-1.4327 1.88,-0.7844 2.923,-1.2199 3.131,-1.3064 l 0.169,-0.0712 -0.122,0.0486 c -0.175,0.0715 -1.06,0.4313 -2.654,1.0793 -1.594,0.648 -2.828,1.3048 -3.7,1.9704 -0.873,0.6656 -1.031,1.1562 -0.475,1.4719 0.556,0.3158 1.124,0.2829 1.703,-0.0986 0.579,-0.3815 1.045,-0.9537 1.398,-1.7166 0.354,-0.7629 0.593,-2.9858 0.717,-6.6686 0.124,-3.6828 0.255,-6.1095 0.394,-7.2801 0.138,-1.1707 0.215,-2.6452 0.23,-4.4236 0.022,-2.4891 -3.344,-1.5565 -10.098,2.7978"
         style="fill:none;stroke:#3a6dd9;stroke-width:4.93701;stroke-linecap:round;stroke-linejoin:round;stroke-miterlimit:10;stroke-dasharray:none;stroke-opacity:1"
         id="path2046" />
    </g>
    <g
       id="g2048"
       transform="matrix(0.19242426,0,0,0.19242426,-241.69795,-89.435954)">
      <path
         d="m 1821.74,986.0652 c 2.482,0.009 6.254,-0.1672 11.315,-0.5298 3.204,-0.2295 7.121,-0.5671 11.751,-1.0128 4.631,-0.4457 9.548,-0.9476 14.751,-1.5055 5.203,-0.5579 10.112,-1.056 14.728,-1.4943 4.616,-0.4383 9.923,-0.821 15.921,-1.148 5.999,-0.3271 9.804,-0.8069 11.418,-1.4395"
         style="fill:none;stroke:#3a6dd9;stroke-width:4.93701;stroke-linecap:round;stroke-linejoin:round;stroke-miterlimit:10;stroke-dasharray:none;stroke-opacity:1"
         id="path2050" />
    </g>
    <g
       id="g2052"
       transform="matrix(0.19242426,0,0,0.19242426,-241.69795,-89.435954)">
      <path
         d="m 1897.921,967.902 c -0.68,0.2496 -0.632,0.6354 0.144,1.1572 0.776,0.5218 2.082,1.0454 3.919,1.5706 1.836,0.5253 3.887,1.1564 6.152,1.8935 2.265,0.737 4.882,1.8597 7.85,3.368 2.968,1.5083 4.808,2.5819 5.518,3.2206 0.711,0.6388 0.934,1.3978 0.669,2.277 -0.265,0.8792 -1.753,2.0222 -4.465,3.4287 -2.712,1.4066 -5.828,2.7589 -9.349,4.0572 -5.325,1.9636 -10.376,3.4207 -15.152,4.3713"
         style="fill:none;stroke:#3a6dd9;stroke-width:4.93701;stroke-linecap:round;stroke-linejoin:round;stroke-miterlimit:10;stroke-dasharray:none;stroke-opacity:1"
         id="path2054" />
    </g>
    <g
       id="g2056"
       transform="matrix(0.19242426,0,0,0.19242426,-241.69795,-89.435954)">
      <path
         d="m 1820.09,974.6368 c -2.77,2.3899 -5.551,5.0957 -8.342,8.1172 -1.849,2.0015 -3.444,3.9528 -4.783,5.854 -1.34,1.9013 -2.26,3.5524 -2.759,4.9533 -0.499,1.401 -0.611,2.4015 -0.336,3.0018 0.275,0.6002 1.131,0.9505 2.569,1.0508 2.08,0.1451 5.423,-0.6531 10.028,-2.3947"
         style="fill:none;stroke:#3a6dd9;stroke-width:4.93701;stroke-linecap:round;stroke-linejoin:round;stroke-miterlimit:10;stroke-dasharray:none;stroke-opacity:1"
         id="path2058" />
    </g>
    <g
       id="g970"
       transform="translate(-10.468845,1.7758451)">
      <g
         id="g2060"
         transform="matrix(0.19242426,0,0,0.19242426,-241.69795,-89.435954)">
        <path
           d="m 1805.941,1031.854 c 1.386,1.168 3.249,1.707 5.589,1.617 2.341,-0.09 4.107,-0.443 5.297,-1.059 1.191,-0.615 2.168,-1.337 2.932,-2.163 0.764,-0.827 1.189,-1.768 1.277,-2.823 0.088,-1.055 -0.49,-1.83 -1.735,-2.325 -1.246,-0.494 -2.29,-0.77 -3.132,-0.827 -0.843,-0.056 -2.179,0.063 -4.009,0.36 -1.83,0.296 -3.306,0.947 -4.429,1.953 -1.123,1.006 -1.976,2.204 -2.558,3.593 -0.582,1.389 -0.923,2.752 -1.021,4.088 -0.099,1.337 0.27,2.475 1.106,3.414 0.836,0.939 2.196,1.672 4.079,2.198 2.723,0.762 7.284,0.318 13.684,-1.332"
           style="fill:none;stroke:#3a6dd9;stroke-width:4.93701;stroke-linecap:round;stroke-linejoin:round;stroke-miterlimit:10;stroke-dasharray:none;stroke-opacity:1"
           id="path2062" />
      </g>
      <g
         id="g2064"
         transform="matrix(0.19242426,0,0,0.19242426,-241.69795,-89.435954)">
        <path
           d="m 1846.895,1023.03 c -0.851,-0.351 -2.133,-0.362 -3.844,-0.033 -1.712,0.329 -3.378,0.917 -4.999,1.766 -1.622,0.848 -2.937,1.762 -3.945,2.743 -1.008,0.981 -1.69,1.903 -2.046,2.766 -0.356,0.863 -0.491,1.639 -0.406,2.33 0.085,0.69 0.622,1.175 1.611,1.456 0.989,0.28 2.09,0.434 3.303,0.462 1.214,0.028 2.459,-0.193 3.735,-0.663 1.276,-0.47 2.468,-1.132 3.576,-1.984 1.107,-0.852 1.932,-1.749 2.472,-2.69 0.54,-0.94 0.795,-1.745 0.765,-2.413 -0.03,-0.668 -0.347,-0.623 -0.951,0.136 -0.603,0.759 -1.022,1.755 -1.257,2.989 -0.235,1.233 -0.149,2.314 0.257,3.243 0.581,1.328 3.036,2.482 7.364,3.46"
           style="fill:none;stroke:#3a6dd9;stroke-width:4.93701;stroke-linecap:round;stroke-linejoin:round;stroke-miterlimit:10;stroke-dasharray:none;stroke-opacity:1"
           id="path2066" />
      </g>
      <g
         id="g2068"
         transform="matrix(0.19242426,0,0,0.19242426,-241.69795,-89.435954)">
        <path
           d="m 1861.532,1031.854 c 0,2.433 0,3.755 0,3.968 0,0.149 -0.013,0.143 -0.038,-0.02 -0.024,-0.162 -0.141,-0.92 -0.348,-2.275 -0.208,-1.355 -0.337,-2.996 -0.387,-4.924 -0.051,-1.928 0.326,-3.103 1.132,-3.525 1.146,-0.601 7.169,-1.512 18.07,-2.733"
           style="fill:none;stroke:#3a6dd9;stroke-width:4.93701;stroke-linecap:round;stroke-linejoin:round;stroke-miterlimit:10;stroke-dasharray:none;stroke-opacity:1"
           id="path2070" />
      </g>
      <g
         id="g2072"
         transform="matrix(0.19242426,0,0,0.19242426,-241.69795,-89.435954)">
        <path
           d="m 1885.254,999.1063 c -0.039,11.4077 0.187,18.9027 0.676,22.4857 0.339,2.486 0.872,5.397 1.599,8.734 0.726,3.336 1.119,5.142 1.179,5.416 l 0.058,0.3 -0.016,-0.043 c -0.045,-0.147 -0.446,-1.456 -1.205,-3.927"
           style="fill:none;stroke:#3a6dd9;stroke-width:4.93701;stroke-linecap:round;stroke-linejoin:round;stroke-miterlimit:10;stroke-dasharray:none;stroke-opacity:1"
           id="path2074" />
      </g>
      <g
         id="g2076"
         transform="matrix(0.19242426,0,0,0.19242426,-241.69795,-89.435954)">
        <path
           d="m 1882.331,1024.162 c -1.122,-4.191 -1.74,-6.845 -1.855,-7.961 -0.079,-0.778 0.641,-1.083 2.16,-0.917 1.519,0.166 3.142,0.518 4.869,1.056 1.726,0.537 3.555,0.964 5.487,1.28 1.931,0.315 4.423,0.534 7.474,0.658 3.051,0.123 5.046,-0.137 5.984,-0.78 0.939,-0.643 1.602,-1.379 1.992,-2.209 0.389,-0.829 0.608,-1.709 0.656,-2.64 0.048,-0.93 -0.185,-1.169 -0.7,-0.717 -0.515,0.453 -1.053,1.432 -1.615,2.937 -0.561,1.504 -1.018,3.122 -1.37,4.853 -0.351,1.731 -0.549,3.913 -0.592,6.545 -0.044,2.633 0.172,4.13 0.646,4.49 0.474,0.36 1.137,0.538 1.99,0.534 0.853,0 2.381,-1.016 4.584,-3.036 2.202,-2.02 3.656,-2.938 4.361,-2.756 0.705,0.182 1.309,0.758 1.812,1.727 0.726,1.397 2.866,3.336 6.422,5.819"
           style="fill:none;stroke:#3a6dd9;stroke-width:4.93701;stroke-linecap:round;stroke-linejoin:round;stroke-miterlimit:10;stroke-dasharray:none;stroke-opacity:1"
           id="path2078" />
      </g>
      <g
         id="g2080"
         transform="matrix(0.19242426,0,0,0.19242426,-241.69795,-89.435954)">
        <path
           d="m 1944.532,1020.259 c 2.012,-1.885 2.139,-3.126 0.381,-3.722 -1.267,-0.43 -2.689,-0.214 -4.266,0.649 -1.577,0.863 -3.062,1.957 -4.455,3.281 -1.393,1.325 -2.333,2.607 -2.822,3.846 -0.488,1.24 -0.629,2.264 -0.423,3.072 0.206,0.809 0.77,1.359 1.69,1.652 0.92,0.292 1.876,0.453 2.868,0.482 0.992,0.029 1.987,-0.252 2.985,-0.843 0.999,-0.591 2.316,-1.781 3.95,-3.571 1.634,-1.791 2.412,-2.511 2.335,-2.162 -0.078,0.349 -0.272,1.222 -0.582,2.618 -0.311,1.397 -1.096,4.241 -2.357,8.535 -1.261,4.293 -2.096,7.403 -2.507,9.328 -0.411,1.925 -0.657,3.285 -0.738,4.082 -0.113,1.108 0.609,1.42 2.168,0.936"
           style="fill:none;stroke:#3a6dd9;stroke-width:4.93701;stroke-linecap:round;stroke-linejoin:round;stroke-miterlimit:10;stroke-dasharray:none;stroke-opacity:1"
           id="path2082" />
      </g>
      <g
         id="g2084"
         transform="matrix(0.19242426,0,0,0.19242426,-241.69795,-89.435954)">
        <path
           d="m 1965.462,1012.192 c -1.073,0.575 -1.78,2.182 -2.122,4.822 -0.341,2.639 -0.52,4.524 -0.535,5.654 -0.015,1.131 0.124,2.009 0.418,2.635 0.294,0.627 0.838,1.037 1.633,1.23 0.794,0.194 1.574,0.215 2.338,0.063 0.764,-0.152 1.957,-0.9 3.577,-2.243 1.621,-1.344 2.936,-2.597 3.944,-3.758 1.008,-1.161 1.739,-2.104 2.193,-2.828 0.454,-0.725 0.699,-1.115 0.734,-1.172 0.035,-0.056 0.037,-0.016 0,0.12 -0.032,0.137 -0.252,1.081 -0.661,2.832 -0.409,1.751 -0.585,3.354 -0.528,4.808 0.082,2.087 1.429,3.492 4.042,4.216"
           style="fill:none;stroke:#3a6dd9;stroke-width:4.93701;stroke-linecap:round;stroke-linejoin:round;stroke-miterlimit:10;stroke-dasharray:none;stroke-opacity:1"
           id="path2086" />
      </g>
      <g
         id="g2088"
         transform="matrix(0.19242426,0,0,0.19242426,-241.69795,-89.435954)">
        <path
           d="m 2000.432,1021.439 c 0.377,-4.652 0.139,-7.488 -0.713,-8.51 -0.595,-0.713 -1.372,-1.125 -2.331,-1.237 -0.959,-0.112 -1.976,0.189 -3.053,0.903 -1.076,0.713 -2.03,1.77 -2.863,3.17 -0.833,1.4 -1.465,2.81 -1.898,4.228 -0.432,1.418 -0.603,2.646 -0.512,3.684 0.091,1.038 0.591,1.825 1.5,2.362 0.909,0.536 1.959,0.851 3.151,0.945 1.192,0.094 2.318,0 3.377,-0.298 1.059,-0.292 2.024,-0.856 2.896,-1.69 0.871,-0.835 1.615,-1.924 2.231,-3.269 0.617,-1.345 0.941,-2.052 0.974,-2.123 l 0.033,-0.068 -0.01,0.021 c -0.017,0.04 -0.177,0.436 -0.482,1.19 -0.437,1.078 -0.26,4.048 0.531,8.907"
           style="fill:none;stroke:#3a6dd9;stroke-width:4.93701;stroke-linecap:round;stroke-linejoin:round;stroke-miterlimit:10;stroke-dasharray:none;stroke-opacity:1"
           id="path2090" />
      </g>
      <g
         id="g2092"
         transform="matrix(0.19242426,0,0,0.19242426,-241.69795,-89.435954)">
        <path
           d="m 2021.098,991.3891 c -1.048,5.665 -1.941,12.1309 -2.681,19.3989 -0.74,7.268 -1.193,11.864 -1.36,13.787 -0.23,2.642 1.098,2.308 3.984,-1.004"
           style="fill:none;stroke:#3a6dd9;stroke-width:4.93701;stroke-linecap:round;stroke-linejoin:round;stroke-miterlimit:10;stroke-dasharray:none;stroke-opacity:1"
           id="path2094" />
      </g>
      <g
         id="g2096"
         transform="matrix(0.19242426,0,0,0.19242426,-241.69795,-89.435954)">
        <path
           d="m 2030.587,1006.924 c 0.592,-0.072 0.927,-0.113 1.005,-0.123 0.055,-0.01 -0.067,0.097 -0.365,0.311 -0.298,0.215 -1.284,0.922 -2.957,2.124 -1.673,1.202 -2.934,2.252 -3.782,3.152 -0.848,0.9 -1.461,1.898 -1.838,2.996 -0.378,1.097 0.351,1.65 2.187,1.659 1.836,0.01 3.314,0.236 4.436,0.68 1.122,0.444 2.68,0.749 4.676,0.914 1.996,0.166 3.558,0.251 4.686,0.256 1.128,0 2.171,-0.123 3.129,-0.384 0.959,-0.261 2.387,-1.185 4.284,-2.772 1.896,-1.587 3.405,-3.052 4.527,-4.396 1.121,-1.344 1.699,-2.71 1.732,-4.099 0.034,-1.388 -0.363,-2.096 -1.191,-2.123 -0.828,-0.026 -2.02,0.323 -3.576,1.047 -1.557,0.725 -2.863,1.657 -3.918,2.796 -1.056,1.14 -1.824,2.194 -2.305,3.164 -0.482,0.969 -0.794,1.976 -0.936,3.019 -0.142,1.043 0.23,2.447 1.115,4.212 0.885,1.765 2.863,3.013 5.932,3.743 4.599,1.094 9.215,1.515 13.851,1.264"
           style="fill:none;stroke:#3a6dd9;stroke-width:4.93701;stroke-linecap:round;stroke-linejoin:round;stroke-miterlimit:10;stroke-dasharray:none;stroke-opacity:1"
           id="path2098" />
      </g>
    </g>
    <path
       style="fill:none;stroke:#3a6dd9;stroke-width:0.75;stroke-linecap:butt;stroke-linejoin:miter;stroke-miterlimit:4;stroke-dasharray:none;stroke-opacity:1"
       d="m 126.94821,39.739582 c 0.41084,-0.04681 0.76116,-0.373318 1.17205,-0.404085 0.25119,-0.01881 0.52444,0.03702 0.77574,0.03368 0.22907,-0.0031 0.48577,-0.125517 0.70828,-0.0926 0.4772,0.07059 0.95846,0.277809 1.4503,0.277809"
       id="path1365" />
    <path
       style="fill:none;stroke:#3a6dd9;stroke-width:0.75;stroke-linecap:butt;stroke-linejoin:miter;stroke-miterlimit:4;stroke-dasharray:none;stroke-opacity:1"
       d="m 126.94821,39.739582 c 0.58462,0.03087 1.16923,0.06173 1.75385,0.0926 0.0113,-0.0084 0.0197,-0.02526 0.0337,-0.02526 0.0347,0 -0.0239,0.06634 -0.0253,0.101021 -0.008,0.18885 0.0245,0.09437 0.0422,0.303063 0.0436,0.514885 0.0756,1.018047 0.15178,1.532154 0.085,0.573748 0.24027,1.110857 0.29512,1.692104 0.1407,1.491242 -0.1007,3.020514 -0.13492,4.512276 -0.0156,0.680099 0.10063,1.352565 0.0928,2.028839 -0.005,0.403803 -0.0935,0.798869 -0.10119,1.203836 -0.007,0.380596 0.13512,0.761392 0.11805,1.136489 -0.0382,0.83879 -0.55651,1.530823 -0.55651,2.357158 0,0.761413 -0.0755,1.514654 -0.0843,2.272976 -0.005,0.420225 0.13169,0.832907 0.12648,1.254346 -0.004,0.331246 -0.11805,0.635611 -0.12648,0.959699 -0.0139,0.533695 -0.0565,1.136067 -0.0169,1.666848 0.0392,0.52404 0.37042,0.985857 0.50591,1.490064 0.25433,0.946417 0.44899,2.033772 0.48906,3.013794 0.0504,1.232154 -0.14146,2.469153 -0.0675,3.69569 0.051,0.845902 0.051,1.689555 0.0927,2.533943 0.0306,0.61934 0.22066,1.217774 0.18551,1.843636 -0.0633,1.126979 -0.28837,2.322036 -0.27826,3.443136 0.0109,1.205524 0.35853,2.413826 0.46376,3.611507 0.0993,1.130255 0.0375,2.277203 0.10118,3.409461 0.0453,0.804248 0.22986,1.618718 0.21923,2.424509 -0.006,0.461843 -0.35264,1.934567 -0.26982,2.256139 0.0454,0.176078 0.1744,0.311023 0.27826,0.454591"
       id="path1367" />
    <path
       style="fill:none;stroke:#3a6dd9;stroke-width:0.75;stroke-linecap:butt;stroke-linejoin:miter;stroke-miterlimit:4;stroke-dasharray:none;stroke-opacity:1"
       d="m 128.16242,89.366204 c 0.90099,0.457645 1.78803,-2.64e-4 2.69822,-0.08418 0.15597,-0.01437 0.29468,-0.01545 0.4469,-0.05051 0.0137,-0.0031 0.0474,0.02831 0.0337,0.02524 -0.36869,-0.08211 -0.73644,-0.168373 -1.10465,-0.25256"
       id="path1369" />
    <path
       style="fill:none;stroke:#3a6dd9;stroke-width:0.75;stroke-linecap:butt;stroke-linejoin:miter;stroke-miterlimit:4;stroke-dasharray:none;stroke-opacity:1"
       d="m 129.267,87.02588 c 0.59714,-0.141422 1.18597,-0.168645 1.79601,-0.159951"
       id="path1371" />
    <path
       style="fill:none;stroke:#3a6dd9;stroke-width:0.75;stroke-linecap:butt;stroke-linejoin:miter;stroke-miterlimit:4;stroke-dasharray:none;stroke-opacity:1"
       d="m 129.60428,84.651888 c 0.55397,-0.04533 0.34405,-0.01781 0.6324,-0.05893"
       id="path1373" />
    <path
       style="fill:none;stroke:#3a6dd9;stroke-width:0.75;stroke-linecap:butt;stroke-linejoin:miter;stroke-miterlimit:4;stroke-dasharray:none;stroke-opacity:1"
       d="m 129.30073,81.402373 c 0.52411,-0.07752 0.30647,-0.03019 0.6577,-0.117859"
       id="path1375" />
    <path
       style="fill:none;stroke:#3a6dd9;stroke-width:0.75;stroke-linecap:butt;stroke-linejoin:miter;stroke-miterlimit:4;stroke-dasharray:none;stroke-opacity:1"
       d="m 129.40192,78.961031 c 0.53823,-0.201319 1.12025,-0.247962 1.68639,-0.319903"
       id="path1377" />
    <path
       style="fill:none;stroke:#3a6dd9;stroke-width:0.75;stroke-linecap:butt;stroke-linejoin:miter;stroke-miterlimit:4;stroke-dasharray:none;stroke-opacity:1"
       d="m 128.53343,75.947231 c 0.34962,-0.112779 0.69306,-0.199512 1.03712,-0.328316"
       id="path1379" />
    <path
       style="fill:none;stroke:#3a6dd9;stroke-width:0.75;stroke-linecap:butt;stroke-linejoin:miter;stroke-miterlimit:4;stroke-dasharray:none;stroke-opacity:1"
       d="m 128.16242,73.371195 c 0.60073,-0.145346 1.19038,-0.468456 1.79601,-0.193625"
       id="path1381" />
    <path
       style="fill:none;stroke:#3a6dd9;stroke-width:0.75;stroke-linecap:butt;stroke-linejoin:miter;stroke-miterlimit:4;stroke-dasharray:none;stroke-opacity:1"
       d="m 129.17425,70.525765 c 0.29041,-0.176533 0.61014,-0.303062 0.95281,-0.303062"
       id="path1383" />
    <path
       style="fill:none;stroke:#3a6dd9;stroke-width:0.75;stroke-linecap:butt;stroke-linejoin:miter;stroke-miterlimit:4;stroke-dasharray:none;stroke-opacity:1"
       d="m 128.56715,67.848708 c 0.46773,0.0361 0.94077,0.0088 1.40814,-0.03368"
       id="path1385" />
    <path
       style="fill:none;stroke:#3a6dd9;stroke-width:0.75;stroke-linecap:butt;stroke-linejoin:miter;stroke-miterlimit:4;stroke-dasharray:none;stroke-opacity:1"
       d="m 128.63461,65.777772 c 0.5444,-0.208071 1.00808,-0.609139 1.62737,-0.454594"
       id="path1387" />
    <path
       style="fill:none;stroke:#3a6dd9;stroke-width:0.75;stroke-linecap:butt;stroke-linejoin:miter;stroke-miterlimit:4;stroke-dasharray:none;stroke-opacity:1"
       d="m 128.76952,63.067042 c 0.34844,0.09276 0.55603,-0.112637 0.86006,-0.21888"
       id="path1389" />
    <path
       style="fill:none;stroke:#3a6dd9;stroke-width:0.75;stroke-linecap:butt;stroke-linejoin:miter;stroke-miterlimit:4;stroke-dasharray:none;stroke-opacity:1"
       d="m 127.8926,60.760393 c 0.40696,-0.155502 0.78998,-0.0717 1.1889,0.04209"
       id="path1391" />
    <path
       style="fill:none;stroke:#3a6dd9;stroke-width:0.75;stroke-linecap:butt;stroke-linejoin:miter;stroke-miterlimit:4;stroke-dasharray:none;stroke-opacity:1"
       d="m 128.12869,58.580019 c 0.34187,0.153329 0.61015,0.04707 0.93595,-0.05051"
       id="path1393" />
    <path
       style="fill:none;stroke:#3a6dd9;stroke-width:0.75;stroke-linecap:butt;stroke-linejoin:miter;stroke-miterlimit:4;stroke-dasharray:none;stroke-opacity:1"
       d="m 128.2636,56.576435 c 0.61315,-0.359975 1.11336,-0.396061 1.77071,-0.227298"
       id="path1395" />
    <path
       style="fill:none;stroke:#3a6dd9;stroke-width:0.75;stroke-linecap:butt;stroke-linejoin:miter;stroke-miterlimit:4;stroke-dasharray:none;stroke-opacity:1"
       d="m 127.82514,54.36239 c 0.45535,0.144689 0.89549,0.09346 1.33225,0.31148"
       id="path1397" />
    <path
       style="fill:none;stroke:#3a6dd9;stroke-width:0.75;stroke-linecap:butt;stroke-linejoin:miter;stroke-miterlimit:4;stroke-dasharray:none;stroke-opacity:1"
       d="m 128.53343,51.516961 c 0.2796,0.0079 0.54241,0.06968 0.81789,0.0926"
       id="path1399" />
    <path
       style="fill:none;stroke:#3a6dd9;stroke-width:0.75;stroke-linecap:butt;stroke-linejoin:miter;stroke-miterlimit:4;stroke-dasharray:none;stroke-opacity:1"
       d="m 128.0275,49.075618 c 0.6516,-0.09723 1.252,-0.427766 1.91406,-0.345158"
       id="path1401" />
    <path
       style="fill:none;stroke:#3a6dd9;stroke-width:0.75;stroke-linecap:butt;stroke-linejoin:miter;stroke-miterlimit:4;stroke-dasharray:none;stroke-opacity:1"
       d="m 127.6565,47.40035 c 0.83845,-0.04767 1.53715,-0.416492 2.28506,-0.732404"
       id="path1403" />
    <path
       style="fill:none;stroke:#3a6dd9;stroke-width:0.75;stroke-linecap:butt;stroke-linejoin:miter;stroke-miterlimit:4;stroke-dasharray:none;stroke-opacity:1"
       d="m 128.53343,44.597014 c 0.50871,0.0056 0.96074,-0.221531 1.45872,-0.294645"
       id="path1405" />
    <path
       style="fill:none;stroke:#3a6dd9;stroke-width:0.75;stroke-linecap:butt;stroke-linejoin:miter;stroke-miterlimit:4;stroke-dasharray:none;stroke-opacity:1"
       d="m 127.85886,42.686032 c 0.61007,-0.288081 1.25109,-0.506364 1.88033,-0.75766"
       id="path1407" />
    <path
       style="fill:none;stroke:#3a6dd9;stroke-width:0.75;stroke-linecap:butt;stroke-linejoin:miter;stroke-miterlimit:4;stroke-dasharray:none;stroke-opacity:1"
       d="m 128.70206,39.832182 c -0.0871,0.404085 -0.36449,0.811948 -0.26139,1.212256 0.0251,0.09762 0.72237,-0.537463 0.7926,-0.580871 0.12621,-0.078 0.26091,-0.1488 0.40474,-0.185206 0.0636,-0.0161 0.25316,0.06191 0.19394,0.03367 -0.36937,-0.17608 -0.75326,-0.319902 -1.12989,-0.479853"
       id="path1409" />
    <path
       style="fill:none;stroke:#3a6dd9;stroke-width:0.75;stroke-linecap:butt;stroke-linejoin:miter;stroke-miterlimit:4;stroke-dasharray:none;stroke-opacity:1"
       d="m 129.55426,82.914398 c 0.11355,-0.05413 0.33407,-0.09099 0.4612,-0.06735 0.0958,0.01781 0.19227,0.07612 0.29178,0.06735 0.0611,-0.0054 0.11108,-0.03632 0.16943,-0.05012 0.0867,-0.02051 0.1583,0.0041 0.24158,0.0141"
       id="path1421" />
    <path
       style="fill:none;stroke:#3a6dd9;stroke-width:0.75;stroke-linecap:butt;stroke-linejoin:miter;stroke-miterlimit:4;stroke-dasharray:none;stroke-opacity:1"
       d="m 137.37844,83.496902 c -0.47798,0.005 -0.9468,-0.106775 -1.42647,-0.138131 -0.16205,-0.01058 -0.32736,-0.05561 -0.48662,-0.02381 -0.0113,0.0024 0.0219,0.0084 0.0334,0.0095 0.0571,0.0053 0.11443,0.01119 0.17175,0.0095 0.55204,-0.01609 1.11556,-0.07438 1.66501,-0.133368 0.0965,-0.01037 0.3871,-0.02323 0.29101,-0.0095 -0.10278,0.01466 -0.86906,0.07544 -0.95892,-0.01429 -0.0679,-0.06775 0.19041,-0.02524 0.28624,-0.02858 0.19812,-0.0069 0.37927,0.0039 0.57727,0.0095 0.11128,0.0032 0.43959,0.03039 0.33395,-0.0048 -0.16754,-0.05576 -0.35397,0.0045 -0.52955,-0.01429 -0.27283,-0.02914 -0.54586,-0.06046 -0.81581,-0.109553 -0.41758,-0.07593 -1.49628,-0.373915 -1.6173,-0.866892 -0.21643,-0.881597 0.98168,-1.669941 1.67932,-1.843339 0.57548,-0.143031 1.13134,-0.138477 1.70795,-0.0905"
       id="path1439" />
    <path
       style="fill:none;stroke:#3a6dd9;stroke-width:0.75;stroke-linecap:butt;stroke-linejoin:miter;stroke-miterlimit:4;stroke-dasharray:none;stroke-opacity:1"
       d="m 136.88228,73.741982 c 0.962,-0.03455 1.92433,-0.0048 2.88633,-0.0048"
       id="path1441" />
    <path
       style="fill:none;stroke:#3a6dd9;stroke-width:0.75;stroke-linecap:butt;stroke-linejoin:miter;stroke-miterlimit:4;stroke-dasharray:none;stroke-opacity:1"
       d="m 139.76861,73.737182 c -1.253,0.426434 -2.3465,0.04216 -3.58287,0.03814 -0.45488,-0.0016 -1.22069,0.164637 -1.52188,-0.30008"
       id="path1443" />
    <path
       style="fill:none;stroke:#3a6dd9;stroke-width:0.75;stroke-linecap:butt;stroke-linejoin:miter;stroke-miterlimit:4;stroke-dasharray:none;stroke-opacity:1"
       d="m 137.34028,75.109004 c -0.0747,-0.174648 -0.16956,-0.342011 -0.22423,-0.523946 -0.0646,-0.214992 -0.13003,-1.013941 -0.1145,-1.252707 0.0241,-0.370414 0.19263,-0.711848 0.20037,-1.081233 0.007,-0.321783 -0.0119,-0.557006 -0.10495,-0.847839 -0.0224,-0.07 -0.15941,-0.239929 -0.0668,-0.281027"
       id="path1445" />
    <path
       style="fill:none;stroke:#3a6dd9;stroke-width:0.75;stroke-linecap:butt;stroke-linejoin:miter;stroke-miterlimit:4;stroke-dasharray:none;stroke-opacity:1"
       d="m 134.25834,69.369417 c 0.10178,0.01588 0.20246,0.04235 0.30533,0.04763 1.63733,0.08407 3.26054,0.08793 4.89007,0.30484"
       id="path1447" />
    <path
       style="fill:none;stroke:#3a6dd9;stroke-width:0.75;stroke-linecap:butt;stroke-linejoin:miter;stroke-miterlimit:4;stroke-dasharray:none;stroke-opacity:1"
       d="m 136.65328,65.868503 c 0.0191,0.106378 0.008,0.222827 0.0573,0.319133 0.17879,0.351041 0.7134,0.43703 1.01618,0.490603 1.09008,0.192866 1.6241,-0.347263 1.41216,-1.40989 -0.0289,-0.145013 -0.0931,-0.286219 -0.18129,-0.404871 -0.58979,-0.793044 -1.19674,-0.333438 -1.83199,0.157186 -0.15258,0.117846 -0.63807,0.451676 -0.72993,0.738288 -0.0846,0.263875 0.20035,0.324369 0.38166,0.33342"
       id="path1449" />
    <path
       style="fill:none;stroke:#3a6dd9;stroke-width:0.75;stroke-linecap:butt;stroke-linejoin:miter;stroke-miterlimit:4;stroke-dasharray:none;stroke-opacity:1"
       d="m 136.55787,61.343516 c 0.18129,0.152421 0.31882,0.383426 0.54387,0.457263 0.63294,0.207666 2.29197,-0.299632 2.37109,-1.100287 0.0217,-0.219502 0.0161,-0.471372 -0.10973,-0.652551 -0.43684,-0.629135 -1.66114,-0.953216 -2.37109,-0.785919 -0.71116,0.167581 -0.97413,1.11519 -0.72039,1.724259 0.052,0.124778 0.24697,0.07051 0.32441,0.06192"
       id="path1451" />
    <path
       style="fill:none;stroke:#3a6dd9;stroke-width:0.75;stroke-linecap:butt;stroke-linejoin:miter;stroke-miterlimit:4;stroke-dasharray:none;stroke-opacity:1"
       d="m 138.91941,56.570846 c -0.76173,-0.144521 -1.51953,-0.374266 -2.3043,-0.304842 -0.0621,0.0055 -0.16427,7.94e-4 -0.17651,0.06192 -0.0105,0.0526 0.10381,0.03189 0.15743,0.03334 0.56222,0.01517 1.05813,-0.108594 1.60776,-0.200052 0.29575,-0.04921 0.67904,-0.01516 0.65837,0.02381 -0.017,0.03206 -0.0599,0.04507 -0.0954,0.05239 -0.16674,0.03435 -0.33575,0.06155 -0.50571,0.07145 -0.73509,0.04279 -2.91205,-0.213836 -3.01037,-1.195549 -0.0694,-0.693279 0.79849,-1.096574 1.03049,-1.686152"
       id="path1453" />
    <path
       style="fill:none;stroke:#3a6dd9;stroke-width:0.75;stroke-linecap:butt;stroke-linejoin:miter;stroke-miterlimit:4;stroke-dasharray:none;stroke-opacity:1"
       d="m 135.58939,50.855073 c 0.0291,0.372416 -0.0734,0.526527 0.48186,0.504893 1.04849,-0.04085 1.16057,-1.375484 1.88446,-1.481338 0.1765,-0.02581 0.35943,0.03786 0.52479,0.104789 0.5342,0.216222 1.02686,0.982876 0.66791,1.52897 -0.12038,0.183142 -0.40122,0.264836 -0.57249,0.342946"
       id="path1455" />
    <path
       style="fill:none;stroke:#3a6dd9;stroke-width:0.75;stroke-linecap:butt;stroke-linejoin:miter;stroke-miterlimit:4;stroke-dasharray:none;stroke-opacity:1"
       d="m 134.66386,73.475242 c 1.28863,0.494009 0.49288,-0.239009 0.35781,-0.147656 -0.0881,0.0596 -0.10119,0.08879 -0.12404,0.185764 -0.0158,0.06706 0.0905,0.250428 -0.0238,0.147659 -0.07,-0.06192 -0.17361,-0.09967 -0.20992,-0.185767 -0.0708,-0.167889 -0.0686,-0.358002 -0.0954,-0.538231 -0.11783,-0.793017 -0.0579,-1.053629 0.46754,-1.671863"
       id="path1457" />
  </g>
</svg>
