<?xml version="1.0" encoding="UTF-8" standalone="no"?>
<!-- Created with Inkscape (http://www.inkscape.org/) -->

<svg
   version="1.1"
   id="svg2"
   xml:space="preserve"
   width="202.40094"
   height="232.00583"
   viewBox="0 0 202.40095 232.00583"
   sodipodi:docname="Pendulum.svg"
   inkscape:version="1.1.2 (0a00cf5339, 2022-02-04)"
   xmlns:inkscape="http://www.inkscape.org/namespaces/inkscape"
   xmlns:sodipodi="http://sodipodi.sourceforge.net/DTD/sodipodi-0.dtd"
   xmlns="http://www.w3.org/2000/svg"
   xmlns:svg="http://www.w3.org/2000/svg"><defs
     id="defs6"><clipPath
       clipPathUnits="userSpaceOnUse"
       id="clipPath22"><path
         d="M 0,0 H 959.76 V 540 H 0 Z"
         id="path20" /></clipPath><clipPath
       clipPathUnits="userSpaceOnUse"
       id="clipPath42"><path
         d="M 87.72,286.44 H 270.36 V 482.159 H 87.72 Z"
         id="path40" /></clipPath><clipPath
       clipPathUnits="userSpaceOnUse"
       id="clipPath658"><path
         d="M 0,0 H 959.76 V 540 H 0 Z"
         id="path656" /></clipPath><clipPath
       clipPathUnits="userSpaceOnUse"
       id="clipPath734"><path
         d="M 0,0 H 959.76 V 540 H 0 Z"
         id="path732" /></clipPath><clipPath
       clipPathUnits="userSpaceOnUse"
       id="clipPath750"><path
         d="M 487.92,302.28 H 602.881 V 439.92 H 487.92 Z"
         id="path748" /></clipPath><clipPath
       clipPathUnits="userSpaceOnUse"
       id="clipPath1056"><path
         d="M 0,0 H 959.76 V 540 H 0 Z"
         id="path1054" /></clipPath><clipPath
       clipPathUnits="userSpaceOnUse"
       id="clipPath1072"><path
         d="M 117.96,54.24 H 278.759 V 218.279 H 117.96 Z"
         id="path1070" /></clipPath><clipPath
       clipPathUnits="userSpaceOnUse"
       id="clipPath1102"><path
         d="M 117.96,54.24 H 278.759 V 218.279 H 117.96 Z"
         id="path1100" /></clipPath><clipPath
       clipPathUnits="userSpaceOnUse"
       id="clipPath1290"><path
         d="m 488.76,28.8 h 153 v 177.36 h -153 z"
         id="path1288" /></clipPath><clipPath
       clipPathUnits="userSpaceOnUse"
       id="clipPath1394"><path
         d="m 488.76,28.8 h 153 v 177.36 h -153 z"
         id="path1392" /></clipPath><clipPath
       clipPathUnits="userSpaceOnUse"
       id="clipPath1460"><path
         d="m 488.76,28.8 h 153 v 177.36 h -153 z"
         id="path1458" /></clipPath><clipPath
       clipPathUnits="userSpaceOnUse"
       id="clipPath1504"><path
         d="m 488.76,28.8 h 153 v 177.36 h -153 z"
         id="path1502" /></clipPath><clipPath
       clipPathUnits="userSpaceOnUse"
       id="clipPath1608"><path
         d="m 488.76,28.8 h 153 v 177.36 h -153 z"
         id="path1606" /></clipPath><clipPath
       clipPathUnits="userSpaceOnUse"
       id="clipPath1674"><path
         d="m 488.76,28.8 h 153 v 177.36 h -153 z"
         id="path1672" /></clipPath><clipPath
       clipPathUnits="userSpaceOnUse"
       id="clipPath1768"><path
         d="M 0,0 H 959.76 V 540 H 0 Z"
         id="path1766" /></clipPath><clipPath
       clipPathUnits="userSpaceOnUse"
       id="clipPath1290-0"><path
         d="m 488.76,28.8 h 153 v 177.36 h -153 z"
         id="path1288-9" /></clipPath><clipPath
       clipPathUnits="userSpaceOnUse"
       id="clipPath1394-3"><path
         d="m 488.76,28.8 h 153 v 177.36 h -153 z"
         id="path1392-6" /></clipPath><clipPath
       clipPathUnits="userSpaceOnUse"
       id="clipPath1460-0"><path
         d="m 488.76,28.8 h 153 v 177.36 h -153 z"
         id="path1458-6" /></clipPath><clipPath
       clipPathUnits="userSpaceOnUse"
       id="clipPath1504-2"><path
         d="m 488.76,28.8 h 153 v 177.36 h -153 z"
         id="path1502-6" /></clipPath><clipPath
       clipPathUnits="userSpaceOnUse"
       id="clipPath1608-1"><path
         d="m 488.76,28.8 h 153 v 177.36 h -153 z"
         id="path1606-8" /></clipPath><clipPath
       clipPathUnits="userSpaceOnUse"
       id="clipPath1674-7"><path
         d="m 488.76,28.8 h 153 v 177.36 h -153 z"
         id="path1672-9" /></clipPath></defs><sodipodi:namedview
     id="namedview4"
     pagecolor="#ffffff"
     bordercolor="#666666"
     borderopacity="1.0"
     inkscape:pageshadow="2"
     inkscape:pageopacity="0.0"
     inkscape:pagecheckerboard="0"
     showgrid="false"
     fit-margin-top="0"
     fit-margin-left="0"
     fit-margin-right="0"
     fit-margin-bottom="0"
     inkscape:zoom="0.72381544"
     inkscape:cx="229.34023"
     inkscape:cy="63.552112"
     inkscape:window-width="1920"
     inkscape:window-height="1031"
     inkscape:window-x="0"
     inkscape:window-y="25"
     inkscape:window-maximized="1"
     inkscape:current-layer="g8" /><g
     id="g8"
     inkscape:groupmode="layer"
     inkscape:label="Lecture4"
     transform="matrix(1.3333333,0,0,-1.3333333,-491.49205,545.87371)"><g
       id="g1280"
       transform="matrix(0.1199059,0,0,-0.1199189,-120.14092,203.24529)"><path
         d="m 4078.195,-1717.163 h 471 v 44 h -471 z"
         style="fill:#000000;fill-opacity:1;fill-rule:nonzero;stroke:none"
         id="path1282" /></g><g
       id="g1284"
       transform="translate(-120.14095,203.24529)"><g
         id="g1286"
         clip-path="url(#clipPath1290-0)"><g
           id="g1292"
           transform="matrix(0.1199059,0,0,-0.1199189,6.1e-5,0)"><g
             id="g1294"
             transform="translate(4078.1948,-1717.1627)"><path
               d="M 0,0 V 44 H 471 V 0 Z"
               style="fill:none;stroke:#000000;stroke-width:6;stroke-linecap:square;stroke-linejoin:miter;stroke-miterlimit:10;stroke-dasharray:none;stroke-opacity:1"
               id="path1296" /></g></g></g></g><g
       id="g1298"
       transform="matrix(0.1199059,0,0,-0.1199189,-120.14092,203.24529)"><g
         id="g1300"
         transform="translate(4308.1948,-1623.1625)"><path
           d="M 0,0 H -3 -6 -8 L -11.001,-1.001 -14,-2 -17,-4 -19,-5.001 -23,-9 l -4,-5 -2,-5 -1,-3.001 -1,-2.999 -1.001,-3.001 V -31 -34 l 1.001,-3 1,-3 1,-3.001 2,-4.999 4,-5 4,-4 2,-1 3,-2.001 L -11.001,-61 -8,-62.001 h 2 3 3 3 l 3,1.001 3,0.999 2,2.001 3,1 4,4 4,5 2,4.999 1,3.001 1,3 v 3 l 1,3 -1,2.999 V -25 l -1,2.999 -1,3.001 -2,5 -4,5 -4,3.999 L 11,-4 9,-2 6,-1.001 3,0 Z m -6,-46 -2,0.999 -3.001,1.001 -2,2 -2,2 -0.999,3 -1,3 v 3 2.999 l 1,3.001 0.999,2.999 2,2 2,2 L -8,-17 l 2,1 3,1 3,-1 3,-1 3,-1.001 1.999,-2 1.001,-2 2,-2.999 0.999,-3.001 V -31 -34 L 11,-37 9,-40 7.999,-42 6,-44 3,-45.001 0,-46 -3,-47.001 Z"
           style="fill:#ccccff;fill-opacity:1;fill-rule:nonzero;stroke:none"
           id="path1302" /></g></g><g
       id="g1304"
       transform="matrix(0.1199059,0,0,-0.1199189,-120.14089,203.24529)"><g
         id="g1306"
         transform="translate(4276.1948,-1654.1627)"><path
           d="m 0,0 v -3 l 1,-3 1,-3 1,-3 2,-5 4,-5 4,-4 2,-1 3,-2 3,-1 3,-1 h 2 3 3 3 l 3,1 3,1 2,2 3,1 4,4 4,5 2,5 1,3 1,3 v 3 l 1,3 -1,3 v 3 l -1,3 -1,3 -2,5 -4,5 -4,4 -3,1 -2,2 -3,1 -3,1 H 32 29 26 24 L 21,30 18,29 15,27 13,26 9,22 5,17 3,12 2,9 1,6 0,3 V 0"
           style="fill:none;stroke:#000000;stroke-width:2;stroke-linecap:square;stroke-linejoin:miter;stroke-miterlimit:10;stroke-dasharray:none;stroke-opacity:1"
           id="path1308" /></g></g><g
       id="g1310"
       transform="matrix(0.1199059,0,0,-0.1199189,-120.14083,203.24529)"><g
         id="g1312"
         transform="translate(4291.1948,-1654.1627)"><path
           d="m 0,0 v 3 l 1,3 1,3 2,2 2,2 3,1 2,1 3,1 3,-1 3,-1 3,-1 2,-2 1,-2 2,-3 1,-3 V 0 -3 l -1,-3 -2,-3 -1,-2 -2,-2 -3,-1 -3,-1 -3,-1 -3,1 -2,1 -3,1 -2,2 -2,2 -1,3 -1,3 v 3"
           style="fill:none;stroke:#000000;stroke-width:2;stroke-linecap:square;stroke-linejoin:miter;stroke-miterlimit:10;stroke-dasharray:none;stroke-opacity:1"
           id="path1314" /></g></g><g
       id="g1316"
       transform="matrix(0.1199059,0,0,-0.1199189,-120.14092,203.24529)"><g
         id="g1318"
         transform="translate(4305.1943,-330.1634)"><path
           d="M 0,0 H -1 L 0,-0.999 H 1 V 0 L 0,1.001 Z m 0,-3.999 -1,-1 h 1 v -1 l 1,1 v 1 z m 0,-4 L -1,-9 H 0 V -9.999 L 1,-9 v 1.001 z m 0,-4 -1,-1.001 1,-0.999 h 1 v 0.999 1.001 z m 0,-4 L -1,-17 0,-17.999 H 1 V -17 -15.999 Z M 0,-21 h -1 l 1,-0.999 H 1 V -21 l -1,1.001 z m 0,-3.999 h -1 l 1,-1 h 1 v 1 l -1,1 z m 0,-4 L -1,-30 h 1 v -0.999 L 1,-30 v 1.001 z m 0,-4 L -1,-34 h 1 v -0.999 L 1,-34 v 1.001 z m 0,-4 -1,-1.001 1,-0.999 h 1 v 0.999 1.001 z m 0,-4 -1,-1.001 1,-0.999 h 1 v 0.999 1.001 z m 0,-5 h -1 l 1,-1 h 1 v 1 l -1,1 z m 0,-4 H -1 L 0,-51 h 1 v 1.001 L 0,-49 Z m 0,-4 L -1,-55 h 1 v -0.999 L 1,-55 v 1.001 z m 0,-4 -1,-1.001 1,-0.999 h 1 v 0.999 1.001 z m 0,-4 -1,-1.001 1,-0.999 h 1 v 0.999 1.001 z m 0,-4 -1,-1 1,-1 h 1 v 1 1 z m 0,-5 H -1 L 0,-72 h 1 v 1.001 l -1,1 z m 0,-4 H -1 L 0,-76 h 1 v 1.001 L 0,-74 Z m 0,-4 L -1,-80 h 1 v -0.999 L 1,-80 v 1.001 z m 0,-4 -1,-1.001 1,-0.999 h 1 v 0.999 1.001 z m 0,-4 -1,-1 1,-1 h 1 v 1 1 z m 0,-4 -1,-1 L 0,-93 h 1 v 1.001 1 z m 0,-5 H -1 L 0,-97 h 1 v 1.001 L 0,-95 Z m 0,-4 H -1 L 0,-101 v -0.999 L 1,-101 v 1.001 L 0,-99 Z m 0,-4 -1,-1.001 h 1 v -0.999 L 1,-105 v 1.001 z m 0,-4 -1,-1.001 1,-0.999 h 1 v 0.999 1.001 z m 0,-4 -1,-1 1,-1.001 h 1 v 1.001 1 z M 0,-116 -1,-116.999 0,-118 h 1 v 1.001 0.999 z m 0,-4.999 H -1 L 0,-122 h 1 v 1.001 L 0,-120 Z m 0,-4 H -1 L 0,-126 v -0.999 L 1,-126 v 1.001 L 0,-124 Z m 0,-4 -1,-1.001 h 1 v -0.999 L 1,-130 v 1.001 z m 0,-4 -1,-1 1,-1 h 1 v 1 1 z M 0,-137 -1,-137.999 0,-139 h 1 v 1.001 0.999 z m 0,-4 -1,-0.999 1,-1.001 h 1 v 1.001 0.999 z m 0,-4.999 H -1 L 0,-147 h 1 v 1.001 L 0,-145 Z m 0,-4 H -1 L 0,-151 v -0.999 L 1,-151 v 1.001 L 0,-149 Z m 0,-4 -1,-1 h 1 v -1 l 1,1 v 1 z M 0,-158 -1,-158.999 0,-160 h 1 v 1.001 0.999 z m 0,-4 -1,-0.999 1,-1.001 h 1 v 1.001 0.999 z m 0,-4 -1,-0.999 1,-1.001 h 1 v 1.001 0.999 z m 0,-4.999 H -1 L 0,-172 h 1 v 1.001 L 0,-170 Z m 0,-4 -1,-1 h 1 v -1 l 1,1 v 1 L 0,-174 Z M 0,-179 -1,-179.999 H 0 V -181 l 1,1.001 V -179 Z m 0,-4 -1,-0.999 1,-1.001 h 1 v 1.001 0.999 z m 0,-4 -1,-0.999 1,-1.001 h 1 v 1.001 0.999 z m 0,-4 -1,-0.999 1,-1.001 h 1 v 1.001 0.999 z m 0,-4.999 h -1 l 1,-1 h 1 v 1 L 0,-195 Z m 0,-4 -1,-1 H 0 V -202 l 1,1.001 v 1 l -1,1 z M 0,-204 -1,-204.999 H 0 V -206 l 1,1.001 V -204 Z m 0,-4 -1,-0.999 1,-1.001 h 1 v 1.001 0.999 z m 0,-4 -1,-0.999 1,-1.001 h 1 v 1.001 0.999 z m 0,-4 -1,-0.999 1,-1 h 1 v 1 0.999 z m 0,-4.999 h -1 l 1,-1 h 1 v 1 l -1,1 z M 0,-225 -1,-225.999 H 0 V -227 l 1,1.001 V -225 l -1,1.001 z m 0,-4 -1,-0.999 H 0 V -231 l 1,1.001 V -229 Z m 0,-4 -1,-0.999 1,-1.001 h 1 v 1.001 0.999 z m 0,-4 -1,-0.999 1,-1.001 h 1 v 1.001 0.999 z m 0,-3.999 -1,-1 1,-1 h 1 v 1 1 z M 0,-246 h -1 l 1,-0.999 H 1 V -246 l -1,1.001 z m 0,-4 -1,-0.999 H 0 V -252 l 1,1.001 V -250 Z m 0,-4 -1,-0.999 H 0 V -256 l 1,1.001 V -254 Z m 0,-4 -1,-0.999 1,-1.001 h 1 v 1.001 0.999 z m 0,-3.999 -1,-1 1,-1 h 1 v 1 1 z m 0,-4 -1,-1.001 1,-0.999 h 1 v 0.999 1.001 z M 0,-271 h -1 l 1,-0.999 H 1 V -271 l -1,1.001 z m 0,-4 -1,-0.999 H 0 V -277 l 1,1.001 V -275 Z m 0,-4 -1,-0.999 H 0 V -281 l 1,1.001 V -279 Z m 0,-3.999 -1,-1 1,-1 h 1 v 1 1 z m 0,-4 -1,-1.001 1,-0.999 h 1 v 0.999 1.001 z M 0,-292 h -1 l 1,-0.999 H 1 V -292 l -1,1.001 z m 0,-4 h -1 l 1,-0.999 H 1 V -296 l -1,1.001 z m 0,-4 -1,-0.999 H 0 V -302 l 1,1.001 V -300 Z m 0,-4 -1,-0.999 h 1 v -1 l 1,1 V -304 Z m 0,-3.999 -1,-1.001 1,-0.999 h 1 v 0.999 1.001 z m 0,-4 -1,-1.001 1,-0.999 h 1 v 0.999 1.001 z M 0,-317 h -1 l 1,-0.999 H 1 V -317 l -1,1.001 z m 0,-4 h -1 l 1,-0.999 H 1 V -321 l -1,1.001 z m 0,-4 -1,-0.999 h 1 v -1 l 1,1 V -325 Z m 0,-3.999 -1,-1 h 1 v -1 l 1,1 v 1 z m 0,-4 -1,-1.001 1,-0.999 h 1 v 0.999 1.001 z m 0,-4 -1,-1.001 1,-0.999 h 1 v 0.999 1.001 z M 0,-342 h -1 l 1,-0.999 H 1 V -342 l -1,1.001 z m 0,-4 h -1 l 1,-0.999 H 1 V -346 l -1,1.001 z m 0,-3.999 -1,-1 h 1 v -1 l 1,1 v 1 z m 0,-4 -1,-1.001 1,-0.999 h 1 v 0.999 1.001 z m 0,-4 -1,-1.001 1,-0.999 h 1 v 0.999 1.001 z m 0,-4 -1,-1.001 1,-0.999 h 1 v 0.999 1.001 z M 0,-367 h -1 l 1,-0.999 H 1 V -367 l -1,1.001 z m 0,-3.999 h -1 l 1,-1 h 1 v 1 l -1,1 z m 0,-4 -1,-1.001 h 1 v -0.999 L 1,-376 v 1.001 z m 0,-4 -1,-1.001 1,-0.999 h 1 v 0.999 1.001 z m 0,-4 -1,-1.001 1,-0.999 h 1 v 0.999 1.001 z m 0,-4 -1,-1.001 1,-0.999 h 1 v 0.999 1.001 z m 0,-5 h -1 l 1,-1 h 1 v 1 l -1,1 z m 0,-4 H -1 L 0,-397 v -0.999 L 1,-397 v 1.001 l -1,1 z m 0,-4 -1,-1.001 h 1 v -0.999 L 1,-401 v 1.001 z m 0,-4 -1,-1.001 1,-0.999 h 1 v 0.999 1.001 z m 0,-4 -1,-1.001 1,-0.999 h 1 v 0.999 1.001 z m 0,-4 -1,-1 1,-1 h 1 v 1 1 z m 0,-5 H -1 L 0,-418 h 1 v 1.001 l -1,1 z m 0,-4 H -1 L 0,-422 v -0.999 L 1,-422 v 1.001 L 0,-420 Z m 0,-4 -1,-1.001 h 1 v -0.999 L 1,-426 v 1.001 z m 0,-4 -1,-1.001 1,-0.999 h 1 v 0.999 1.001 z m 0,-4 -1,-1.001 1,-0.999 h 1 v 0.999 1.001 z m 0,-4 -1,-1 1,-1.001 h 1 v 1.001 1 z m 0,-5 H -1 L 0,-443 h 1 v 1.001 L 0,-441 Z m 0,-4 H -1 L 0,-447 v -0.999 L 1,-447 v 1.001 L 0,-445 Z m 0,-4 -1,-1.001 h 1 v -0.999 L 1,-451 v 1.001 z m 0,-4 -1,-1.001 1,-0.999 h 1 v 0.999 1.001 z m 0,-4 -1,-1 1,-1 h 1 v 1 1 z M 0,-462 -1,-462.999 0,-464 h 1 v 1.001 0.999 z m 0,-4.999 H -1 L 0,-468 h 1 v 1.001 L 0,-466 Z m 0,-4 H -1 L 0,-472 v -0.999 L 1,-472 v 1.001 L 0,-470 Z m 0,-4 -1,-1.001 h 1 v -0.999 L 1,-476 v 1.001 z m 0,-4 -1,-1 1,-1 h 1 v 1 1 z M 0,-483 -1,-483.999 0,-485 h 1 v 1.001 0.999 z m 0,-4 -1,-0.999 1,-1.001 h 1 v 1.001 0.999 z m 0,-4.999 H -1 L 0,-493 h 1 v 1.001 L 0,-491 Z m 0,-4 -1,-1.001 h 1 v -0.999 L 1,-497 v 1.001 L 0,-495 Z m 0,-4 -1,-1 h 1 v -1 l 1,1 v 1 z M 0,-504 -1,-504.999 0,-506 h 1 v 1.001 0.999 z m 0,-4 -1,-0.999 1,-1.001 h 1 v 1.001 0.999 z m 0,-4 -1,-0.999 1,-1.001 h 1 v 1.001 0.999 z m 0,-4.999 H -1 L 0,-518 h 1 v 1.001 L 0,-516 Z m 0,-4 -1,-1 h 1 v -1 l 1,1 v 1 L 0,-520 Z M 0,-525 -1,-525.999 H 0 V -527 l 1,1.001 V -525 Z m 0,-4 -1,-0.999 1,-1.001 h 1 v 1.001 0.999 z m 0,-4 -1,-0.999 1,-1.001 h 1 v 1.001 0.999 z m 0,-4 -1,-0.999 1,-1.001 h 1 v 1.001 0.999 z m 0,-4.999 h -1 l 1,-1 h 1 v 1 L 0,-541 Z M 0,-546 -1,-546.999 H 0 V -548 l 1,1.001 V -546 l -1,1.001 z m 0,-4 -1,-0.999 H 0 V -552 l 1,1.001 V -550 Z m 0,-4 -1,-0.999 1,-1.001 h 1 v 1.001 0.999 z m 0,-4 -1,-0.999 1,-1.001 h 1 v 1.001 0.999 z m 0,-4 -1,-0.999 1,-1.001 h 1 v 1.001 0.999 z m 0,-5 h -1 l 1,-0.999 H 1 V -567 l -1,1.001 z m 0,-4 -1,-0.999 H 0 V -573 l 1,1.001 V -571 Z m 0,-4 -1,-0.999 H 0 V -577 l 1,1.001 V -575 Z m 0,-4 -1,-0.999 1,-1.001 h 1 v 1.001 0.999 z m 0,-4 -1,-0.999 1,-1.001 h 1 v 1.001 0.999 z m 0,-3.999 -1,-1 1,-1 h 1 v 1 1 z M 0,-592 h -1 l 1,-0.999 H 1 V -592 l -1,1.001 z m 0,-4 -1,-0.999 H 0 V -598 l 1,1.001 V -596 Z m 0,-4 -1,-0.999 H 0 V -602 l 1,1.001 V -600 Z m 0,-4 -1,-0.999 1,-1.001 h 1 v 1.001 0.999 z m 0,-4 -1,-0.999 1,-1 h 1 v 1 0.999 z m 0,-5 h -1 l 1,-0.999 H 1 V -613 l -1,1.001 z m 0,-4 h -1 l 1,-0.999 H 1 V -617 l -1,1.001 z m 0,-4 -1,-0.999 H 0 V -623 l 1,1.001 V -621 Z m 0,-4 -1,-0.999 H 0 V -627 l 1,1.001 V -625 Z m 0,-4 -1,-0.999 1,-1 h 1 v 1 0.999 z m 0,-3.999 -1,-1.001 1,-0.999 h 1 v 0.999 1.001 z M 0,-638 h -1 l 1,-0.999 H 1 V -638 l -1,1.001 z m 0,-4 h -1 l 1,-0.999 H 1 V -642 l -1,1.001 z m 0,-4 -1,-0.999 H 0 V -648 l 1,1.001 V -646 Z m 0,-4 -1,-0.999 h 1 v -1 l 1,1 V -650 Z m 0,-3.999 -1,-1.001 1,-0.999 h 1 v 0.999 1.001 z m 0,-4 -1,-1.001 1,-0.999 h 1 v 0.999 1.001 z M 0,-663 h -1 l 1,-0.999 H 1 V -663 l -1,1.001 z m 0,-4 h -1 l 1,-0.999 H 1 V -667 l -1,1.001 z m 0,-4 -1,-0.999 H 0 V -673 l 1,1.001 V -671 Z m 0,-3.999 -1,-1.001 1,-0.999 h 1 v 0.999 1.001 z m 0,-4 -1,-1.001 1,-0.999 h 1 v 0.999 1.001 z m 0,-4 -1,-1.001 1,-0.999 h 1 v 0.999 1.001 z M 0,-688 h -1 l 1,-0.999 H 1 V -688 l -1,1.001 z m 0,-4 h -1 l 1,-0.999 H 1 V -692 l -1,1.001 z m 0,-3.999 -1,-1.001 h 1 v -0.999 L 1,-697 v 1.001 z m 0,-4 -1,-1.001 1,-0.999 h 1 v 0.999 1.001 z m 0,-4 -1,-1.001 1,-0.999 h 1 v 0.999 1.001 z m 0,-4 -1,-1.001 1,-0.999 h 1 v 0.999 1.001 z M 0,-713 h -1 l 1,-0.999 H 1 V -713 l -1,1.001 z m 0,-3.999 H -1 L 0,-718 v -0.999 L 1,-718 v 1.001 l -1,1 z m 0,-4 -1,-1.001 h 1 v -0.999 L 1,-722 v 1.001 z m 0,-4 -1,-1.001 1,-0.999 h 1 v 0.999 1.001 z m 0,-4 -1,-1.001 1,-0.999 h 1 v 0.999 1.001 z m 0,-4 -1,-1.001 1,-0.999 h 1 v 0.999 1.001 z M 0,-738 h -1 l 1,-1 h 1 v 1 l -1,1.001 z m 0,-3.999 H -1 L 0,-743 v -0.999 L 1,-743 v 1.001 L 0,-741 Z m 0,-4 -1,-1.001 h 1 v -0.999 L 1,-747 v 1.001 z m 0,-4 -1,-1.001 1,-0.999 h 1 v 0.999 1.001 z m 0,-4 -1,-1.001 1,-0.999 h 1 v 0.999 1.001 z m 0,-4 -1,-1.001 1,-1 h 1 v 1 1.001 z m 0,-5 H -1 L 0,-764 h 1 v 1.001 L 0,-762 Z m 0,-4 H -1 L 0,-768 v -0.999 L 1,-768 v 1.001 L 0,-766 Z m 0,-4 -1,-1.001 h 1 v -0.999 L 1,-772 v 1.001 z m 0,-4 -1,-1.001 1,-0.999 h 1 v 0.999 1.001 z m 0,-4 -1,-1.001 1,-0.999 h 1 v 0.999 1.001 z M 0,-783 -1,-783.999 0,-785 h 1 v 1.001 0.999 z m 0,-4.999 H -1 L 0,-789 h 1 v 1.001 L 0,-787 Z m 0,-4 H -1 L 0,-793 v -0.999 L 1,-793 v 1.001 L 0,-791 Z m 0,-4 -1,-1.001 h 1 v -0.999 L 1,-797 v 1.001 z m 0,-4 -1,-1.001 1,-0.999 h 1 v 0.999 1.001 z M 0,-804 -1,-804.999 0,-806 h 1 v 1.001 0.999 z m 0,-4 -1,-0.999 1,-1.001 h 1 v 1.001 0.999 z m 0,-4.999 H -1 L 0,-814 h 1 v 1.001 L 0,-812 Z m 0,-4 -1,-1.001 h 1 v -0.999 L 1,-818 v 1.001 L 0,-816 Z m 0,-4 -1,-1.001 h 1 v -0.999 L 1,-822 v 1.001 z M 0,-825 -1,-825.999 0,-827 h 1 v 1.001 0.999 z m 0,-4 -1,-0.999 1,-1.001 h 1 v 1.001 0.999 z m 0,-4 -1,-0.999 1,-1.001 h 1 v 1.001 0.999 z m 0,-4.999 H -1 L 0,-839 h 1 v 1.001 L 0,-837 Z m 0,-4 -1,-1.001 h 1 v -0.999 L 1,-843 v 1.001 L 0,-841 Z m 0,-4 -1,-1 H 0 V -848 l 1,1.001 v 1 z M 0,-850 -1,-850.999 0,-852 h 1 v 1.001 0.999 z m 0,-4 -1,-0.999 1,-1.001 h 1 v 1.001 0.999 z m 0,-4 -1,-0.999 1,-1.001 h 1 v 1.001 0.999 z m 0,-4.999 H -1 L 0,-864 h 1 v 1.001 L 0,-862 Z m 0,-4 -1,-1.001 h 1 v -1 l 1,1 v 1.001 L 0,-866 Z M 0,-871 -1,-871.999 H 0 V -873 l 1,1.001 V -871 Z m 0,-4 -1,-0.999 1,-1.001 h 1 v 1.001 0.999 z m 0,-4 -1,-0.999 1,-1.001 h 1 v 1.001 0.999 z m 0,-4 -1,-0.999 1,-1.001 h 1 v 1.001 0.999 z m 0,-4.999 H -1 L 0,-889 h 1 v 1.001 L 0,-887 Z M 0,-892 -1,-892.999 H 0 V -894 l 1,1.001 V -892 Z m 0,-4 -1,-0.999 H 0 V -898 l 1,1.001 V -896 Z m 0,-4 -1,-0.999 1,-1.001 h 1 v 1.001 0.999 z m 0,-4 -1,-0.999 1,-1.001 h 1 v 1.001 0.999 z m 0,-4 -1,-0.999 1,-1.001 h 1 v 1.001 0.999 z m 0,-5 h -1 l 1,-0.999 H 1 V -913 l -1,1.001 z m 0,-4 -1,-0.999 H 0 V -919 l 1,1.001 V -917 Z m 0,-4 -1,-0.999 H 0 V -923 l 1,1.001 V -921 Z m 0,-4 -1,-0.999 1,-1.001 h 1 v 1.001 0.999 z m 0,-4 -1,-0.999 1,-1.001 h 1 v 1.001 0.999 z m 0,-5 h -1 l 1,-0.999 H 1 V -934 l -1,1 z m 0,-4 h -1 l 1,-0.999 H 1 V -938 l -1,1.001 z m 0,-4 -1,-0.999 H 0 V -944 l 1,1.001 V -942 Z m 0,-4 -1,-0.999 H 0 V -948 l 1,1.001 V -946 Z m 0,-4 -1,-0.999 1,-1.001 h 1 v 1.001 0.999 z m 0,-4 -1,-1 1,-0.999 h 1 v 0.999 1 z m 0,-5 h -1 l 1,-0.999 H 1 V -959 l -1,1.001 z m 0,-4 h -1 l 1,-0.999 H 1 V -963 l -1,1.001 z m 0,-4 -1,-0.999 H 0 V -969 l 1,1.001 V -967 Z m 0,-4 -1,-0.999 H 0 V -973 l 1,1.001 V -971 Z m 0,-4 -1,-0.999 1,-1 h 1 v 1 0.999 z m 0,-3.999 -1,-1.001 1,-0.999 h 1 v 0.999 1.001 z M 0,-984 h -1 l 1,-0.999 H 1 V -984 l -1,1.001 z m 0,-4 h -1 l 1,-0.999 H 1 V -988 l -1,1.001 z m 0,-4 -1,-0.999 H 0 V -994 l 1,1.001 V -992 Z m 0,-4 -1,-0.999 H 0 V -998 l 1,1.001 V -996 Z m 0,-3.999 -1,-1.001 1,-0.999 h 1 v 0.999 1.001 z m 0,-4 -1,-1.001 1,-0.999 h 1 v 0.999 1.001 z M 0,-1009 h -1 l 1,-0.999 h 1 v 0.999 l -1,1.001 z m 0,-4 h -1 l 1,-0.999 h 1 v 0.999 l -1,1.001 z m 0,-4 -1,-0.999 H 0 V -1019 l 1,1.001 v 0.999 z m 0,-3.999 -1,-1.001 1,-0.999 h 1 v 0.999 1.001 z m 0,-4 -1,-1.001 1,-0.999 h 1 v 0.999 1.001 z m 0,-4 -1,-1.001 1,-0.999 h 1 v 0.999 1.001 z M 0,-1034 h -1 l 1,-0.999 h 1 v 0.999 l -1,1.001 z m 0,-4 h -1 l 1,-0.999 h 1 v 0.999 l -1,1.001 z m 0,-3.999 -1,-1.001 h 1 v -0.999 l 1,0.999 v 1.001 z m 0,-4 -1,-1.001 1,-0.999 h 1 v 0.999 1.001 z m 0,-4 -1,-1.001 1,-0.999 h 1 v 0.999 1.001 z m 0,-4 -1,-1.001 1,-0.999 h 1 v 0.999 1.001 z M 0,-1059 h -1 l 1,-0.999 h 1 v 0.999 l -1,1.001 z m 0,-4 h -1 l 1,-1 v -0.999 l 1,0.999 v 1 l -1,1.001 z m 0,-3.999 -1,-1.001 h 1 v -0.999 l 1,0.999 v 1.001 z m 0,-4 -1,-1.001 1,-0.999 h 1 v 0.999 1.001 z m 0,-4 -1,-1.001 1,-0.999 h 1 v 0.999 1.001 z m 0,-4 -1,-1.001 1,-0.999 h 1 v 0.999 1.001 z M 0,-1084 h -1 l 1,-1 h 1 v 1 l -1,1.001 z m 0,-3.999 H -1 L 0,-1089 v -0.999 l 1,0.999 v 1.001 L 0,-1087 Z m 0,-4 -1,-1.001 h 1 v -0.999 l 1,0.999 v 1.001 z m 0,-4 -1,-1.001 1,-0.999 h 1 v 0.999 1.001 z m 0,-4 -1,-1.001 1,-0.999 h 1 v 0.999 1.001 z m 0,-4 -1,-1.001 1,-0.999 h 1 v 0.999 1.001 z m 0,-5 H -1 L 0,-1110 h 1 v 1.001 L 0,-1108 Z m 0,-4 H -1 L 0,-1114 v -0.999 l 1,0.999 v 1.001 L 0,-1112 Z m 0,-4 -1,-1.001 h 1 v -0.999 l 1,0.999 v 1.001 z m 0,-4 -1,-1.001 1,-0.999 h 1 v 0.999 1.001 z m 0,-4 -1,-1.001 1,-0.999 h 1 v 0.999 1.001 z m 0,-4.001 -1,-0.999 1,-1.001 h 1 v 1.001 0.999 z m 0,-4.999 H -1 L 0,-1135 h 1 v 1.001 L 0,-1133 Z m 0,-4 -1,-1.001 h 1 v -0.999 l 1,0.999 v 1.001 L 0,-1137 Z m 0,-4 -1,-1.001 h 1 v -0.999 l 1,0.999 v 1.001 z m 0,-4 -1,-1.001 1,-0.999 h 1 v 0.999 1.001 z m 0,-4.001 -1,-0.999 1,-1.001 h 1 v 1.001 0.999 z m 0,-4 -1,-0.999 1,-1.001 h 1 v 1.001 0.999 z m 0,-4.999 H -1 L 0,-1160 h 1 v 1.001 L 0,-1158 Z m 0,-4 -1,-1.001 h 1 v -0.999 l 1,0.999 v 1.001 L 0,-1162 Z m 0,-4 -1,-1.001 h 1 v -0.999 l 1,0.999 v 1.001 z m 0,-4 -1,-1 1,-1.001 h 1 v 1.001 1 z m 0,-4.001 -1,-0.999 1,-1.001 h 1 v 1.001 0.999 z m 0,-4 -1,-0.999 1,-1.001 h 1 v 1.001 0.999 z m 0,-4.999 H -1 L 0,-1185 h 1 v 1.001 L 0,-1183 Z m 0,-4 -1,-1.001 h 1 v -0.999 l 1,0.999 v 1.001 L 0,-1187 Z m 0,-4 -1,-1.001 h 1 v -1 l 1,1 v 1.001 z m 0,-4.001 -1,-0.999 1,-1.001 h 1 v 1.001 0.999 z m 0,-4 -1,-0.999 1,-1.001 h 1 v 1.001 0.999 z m 0,-4 -1,-0.999 1,-1.001 h 1 v 1.001 0.999 z m 0,-4.999 H -1 L 0,-1210 h 1 v 1.001 L 0,-1208 Z m 0,-4 -1,-1.001 h 1 v -1 l 1,1 v 1.001 z m 0,-4.001 -1,-0.999 H 0 V -1219 l 1,1.001 v 0.999 z m 0,-4 -1,-0.999 1,-1.001 h 1 v 1.001 0.999 z m 0,-4 -1,-0.999 1,-1.001 h 1 v 1.001 0.999 z m 0,-4 -1,-0.999 1,-1.001 h 1 v 1.001 0.999 z m 0,-4.999 H -1 L 0,-1235 h 1 v 1.001 L 0,-1233 Z m 0,-4.001 -1,-0.999 H 0 V -1240 l 1,1.001 v 0.999 z m 0,-4 -1,-0.999 H 0 V -1244 l 1,1.001 v 0.999 z m 0,-4 -1,-0.999 1,-1.001 h 1 v 1.001 0.999 z m 0,-4 -1,-0.999 1,-1.001 h 1 v 1.001 0.999 z m 0,-4.999 H -1 L 0,-1256 h 1 v 1.001 L 0,-1254 Z M 0,-1259 h -1 l 1,-0.999 h 1 v 0.999 l -1,1 z m 0,-4 -1,-0.999 H 0 V -1265 l 1,1.001 v 0.999 z m 0,-4 -1,-0.999 H 0 V -1269 l 1,1.001 v 0.999 z m 0,-4 -1,-0.999 1,-1.001 h 1 v 1.001 0.999 z m 0,-4 -1,-0.999 1,-1.001 h 1 v 1.001 0.999 z m 0,-5 h -1 l 1,-0.999 h 1 v 0.999 l -1,1 z m 0,-4 h -1 l 1,-0.999 h 1 v 0.999 l -1,1.001 z m 0,-4 -1,-0.999 H 0 V -1290 l 1,1.001 v 0.999 z m 0,-4 -1,-0.999 H 0 V -1294 l 1,1.001 v 0.999 z m 0,-4 -1,-0.999 1,-1.001 h 1 v 1.001 0.999 z m 0,-4 -1,-0.999 1,-1 h 1 v 1 0.999 z m 0,-5 h -1 l 1,-0.999 h 1 v 0.999 l -1,1.001 z m 0,-4 h -1 l 1,-0.999 h 1 v 0.999 l -1,1.001 z m 0,-4 -1,-0.999 H 0 V -1315 l 1,1.001 v 0.999 z m 0,-4 -1,-0.999 H 0 V -1319 l 1,1.001 v 0.999 z m 0,-4 -1,-0.999 1,-1.001 h 1 v 1.001 0.999 z m 0,-3.999 -1,-1.001 1,-0.999 h 1 v 0.999 1.001 z M 0,-1330 h -1 l 1,-0.999 h 1 v 0.999 l -1,1.001 z m 0,-4 h -1 l 1,-0.999 h 1 v 0.999 l -1,1.001 z m 0,-4 -1,-0.999 H 0 V -1340 l 1,1.001 v 0.999 z"
           style="fill:#000000;fill-opacity:1;fill-rule:nonzero;stroke:none"
           id="path1320" /></g></g><g
       id="g1322"
       transform="matrix(0.1199059,0,0,-0.1199189,-120.14092,203.24529)"><g
         id="g1324"
         transform="translate(4306.1948,-1669.1627)"><path
           d="M 0,0 V 0 1 H -1 L -2,0 h 1 V -1 Z M 0,5 V 5 L -1,6 V 5 h -1 l 1,-1 h 1 z m 0,4 v 0 l -1,1 V 9 h -1 l 1,-1 h 1 z m 0,4 v 0 1 h -1 l -1,-1 1,-1 h 1 z m 0,4 v 0 1 h -1 l -1,-1 1,-1 h 1 z m 0,4 v 0 1 h -1 l -1,-1 h 1 v -1 z m 0,4 v 0 1 h -1 l -1,-1 h 1 v -1 z m 0,5 v 0 l -1,1 v -1 h -1 l 1,-1 h 1 z m 0,4 v 0 l -1,1 v -1 h -1 l 1,-1 h 1 z m 0,4 v 0 1 h -1 l -1,-1 1,-1 h 1 z m 0,4 v 0 1 h -1 l -1,-1 1,-1 h 1 z m 0,4 v 0 1 h -1 l -1,-1 h 1 v -1 z m 0,4 v 0 1 h -1 l -1,-1 h 1 v -1 z m 0,5 v 0 l -1,1 v -1 h -1 l 1,-1 h 1 z m 0,4 v 0 l -1,1 v -1 h -1 l 1,-1 h 1 z m 0,4 v 0 1 h -1 l -1,-1 1,-1 h 1 z m 0,4 v 0 1 h -1 l -1,-1 1,-1 h 1 z m 0,4 v 0 1 h -1 l -1,-1 h 1 v -1 z m 0,4 v 0 1 h -1 l -1,-1 h 1 v -1 z m 0,5 v 0 l -1,1 v -1 h -1 l 1,-1 h 1 z m 0,4 v 0 l -1,1 v -1 h -1 l 1,-1 h 1 z m 0,4 v 0 1 h -1 l -1,-1 1,-1 h 1 z m 0,4 v 0 1 h -1 l -1,-1 1,-1 h 1 z m 0,4 v 0 1 h -1 l -1,-1 h 1 v -1 z m 0,4 v 0 1 h -1 l -1,-1 h 1 v -1 z m 0,5 v 0 l -1,1 v -1 h -1 l 1,-1 h 1 z m 0,4 v 0 1 h -1 l -1,-1 1,-1 h 1 z m 0,4 v 0 1 h -1 l -1,-1 1,-1 h 1 z m 0,4 v 0 1 h -1 l -1,-1 1,-1 h 1 z m 0,4 v 0 1 h -1 l -1,-1 h 1 v -1 z m 0,4 v 0 1 h -1 l -1,-1 h 1 v -1 z m 0,5 v 0 l -1,1 v -1 h -1 l 1,-1 h 1 z m 0,4 v 0 1 h -1 l -1,-1 1,-1 h 1 z m 0,4 v 0 1 h -1 l -1,-1 1,-1 h 1 z m 0,4 v 0 1 h -1 l -1,-1 1,-1 h 1 z m 0,4 v 0 1 h -1 l -1,-1 h 1 v -1 z m 0,4 v 0 1 l -1,1 v -1 l -1,-1 h 1 v -1 z m 0,5 v 0 l -1,1 v -1 h -1 l 1,-1 h 1 z m 0,4 v 0 1 h -1 l -1,-1 1,-1 h 1 z m 0,4 v 0 1 h -1 l -1,-1 1,-1 h 1 z m 0,4 v 0 1 h -1 l -1,-1 1,-1 h 1 z m 0,4 v 0 1 h -1 l -1,-1 h 1 v -1 z m 0,4 v 0 1 l -1,1 v -1 l -1,-1 h 1 v -1 z m 0,5 v 0 l -1,1 v -1 h -1 l 1,-1 h 1 z m 0,4 v 0 1 h -1 l -1,-1 1,-1 h 1 z m 0,4 v 0 1 h -1 l -1,-1 1,-1 h 1 z m 0,4 v 0 1 h -1 l -1,-1 1,-1 h 1 z m 0,4 v 0 1 h -1 l -1,-1 h 1 v -1 z m 0,4 v 0 1 l -1,1 v -1 l -1,-1 h 1 v -1 z m 0,5 v 0 l -1,1 v -1 h -1 l 1,-1 h 1 z m 0,4 v 0 1 h -1 l -1,-1 1,-1 h 1 z m 0,4 v 0 1 h -1 l -1,-1 1,-1 h 1 z m 0,4 v 0 1 h -1 l -1,-1 1,-1 h 1 z m 0,4 v 0 1 h -1 l -1,-1 h 1 v -1 z m 0,5 v 0 l -1,1 v -1 h -1 l 1,-1 v -1 l 1,1 z m 0,4 v 0 l -1,1 v -1 h -1 l 1,-1 h 1 z m 0,4 v 0 1 h -1 l -1,-1 1,-1 h 1 z m 0,4 v 0 1 h -1 l -1,-1 1,-1 h 1 z m 0,4 v 0 1 h -1 l -1,-1 1,-1 h 1 z m 0,4 v 0 1 h -1 l -1,-1 h 1 v -1 z m 0,5 v 0 l -1,1 v -1 h -1 l 1,-1 v -1 l 1,1 z m 0,4 v 0 l -1,1 v -1 h -1 l 1,-1 h 1 z m 0,4 v 0 1 h -1 l -1,-1 1,-1 h 1 z m 0,4 v 0 1 h -1 l -1,-1 1,-1 h 1 z m 0,4 v 0 1 h -1 l -1,-1 1,-1 h 1 z m 0,4 v 0 1 h -1 l -1,-1 h 1 v -1 z m 0,5 v 0 l -1,1 v -1 h -1 l 1,-1 v -1 l 1,1 z m 0,4 v 0 l -1,1 v -1 h -1 l 1,-1 h 1 z m 0,4 v 0 1 h -1 l -1,-1 1,-1 h 1 z m 0,4 v 0 1 h -1 l -1,-1 1,-1 h 1 z m 0,4 v 0 1 h -1 l -1,-1 1,-1 h 1 z m 0,4 v 0 1 h -1 l -1,-1 h 1 v -1 z m 0,5 v 0 l -1,1 v -1 h -1 l 1,-1 h 1 z m 0,4 v 0 l -1,1 v -1 h -1 l 1,-1 h 1 z m 0,4 v 0 1 h -1 l -1,-1 1,-1 h 1 z m 0,4 v 0 1 h -1 l -1,-1 1,-1 h 1 z m 0,4 v 0 1 h -1 l -1,-1 1,-1 h 1 z m 0,4 v 0 1 h -1 l -1,-1 h 1 v -1 z m 0,5 v 0 l -1,1 v -1 h -1 l 1,-1 h 1 z m 0,4 v 0 l -1,1 v -1 h -1 l 1,-1 h 1 z m 0,4 v 0 1 h -1 l -1,-1 1,-1 h 1 z m 0,4 v 0 1 h -1 l -1,-1 1,-1 h 1 z m 0,4 v 0 1 h -1 l -1,-1 h 1 v -1 z m 0,4 v 0 1 h -1 l -1,-1 h 1 v -1 z m 0,5 v 0 l -1,1 v -1 h -1 l 1,-1 h 1 z m 0,4 v 0 l -1,1 v -1 h -1 l 1,-1 h 1 z m 0,4 v 0 1 h -1 l -1,-1 1,-1 h 1 z m 0,4 v 0 1 h -1 l -1,-1 1,-1 h 1 z m 0,4 v 0 1 h -1 l -1,-1 h 1 v -1 z m 0,4 v 0 1 h -1 l -1,-1 h 1 v -1 z m 0,5 v 0 l -1,1 v -1 h -1 l 1,-1 h 1 z m 0,4 v 0 l -1,1 v -1 h -1 l 1,-1 h 1 z m 0,4 v 0 1 h -1 l -1,-1 1,-1 h 1 z m 0,4 v 0 1 h -1 l -1,-1 1,-1 h 1 z m 0,4 v 0 1 h -1 l -1,-1 h 1 v -1 z m 0,4 v 0 1 h -1 l -1,-1 h 1 v -1 z m 0,5 v 0 l -1,1 v -1 h -1 l 1,-1 h 1 z m 0,4 v 0 l -1,1 v -1 h -1 l 1,-1 h 1 z m 0,4 v 0 1 h -1 l -1,-1 1,-1 h 1 z m 0,4 v 0 1 h -1 l -1,-1 1,-1 h 1 z m 0,4 v 0 1 h -1 l -1,-1 h 1 v -1 z m 0,4 v 0 1 h -1 l -1,-1 h 1 v -1 z m 0,5 v 0 l -1,1 v -1 h -1 l 1,-1 h 1 z m 0,4 v 0 1 h -1 l -1,-1 1,-1 h 1 z m 0,4 v 0 1 h -1 l -1,-1 1,-1 h 1 z m 0,4 v 0 1 h -1 l -1,-1 1,-1 h 1 z m 0,4 v 0 1 h -1 l -1,-1 h 1 v -1 z m 0,4 v 0 1 h -1 l -1,-1 h 1 v -1 z m 0,5 v 0 l -1,1 v -1 h -1 l 1,-1 h 1 z m 0,4 v 0 1 h -1 l -1,-1 1,-1 h 1 z m 0,4 v 0 1 h -1 l -1,-1 1,-1 h 1 z m 0,4 v 0 1 h -1 l -1,-1 1,-1 h 1 z m 0,4 v 0 1 h -1 l -1,-1 h 1 v -1 z m 0,4 v 0 1 l -1,1 v -1 l -1,-1 h 1 v -1 z m 0,5 v 0 l -1,1 v -1 h -1 l 1,-1 h 1 z m 0,4 v 0 1 h -1 l -1,-1 1,-1 h 1 z m 0,4 v 0 1 h -1 l -1,-1 1,-1 h 1 z m 0,4 v 0 1 h -1 l -1,-1 1,-1 h 1 z m 0,4 v 0 1 h -1 l -1,-1 h 1 v -1 z m 0,4 v 0 1 l -1,1 v -1 l -1,-1 h 1 v -1 z m 0,5 v 0 l -1,1 v -1 h -1 l 1,-1 h 1 z m 0,4 v 0 1 h -1 l -1,-1 1,-1 h 1 z m 0,4 v 0 1 h -1 l -1,-1 1,-1 h 1 z m 0,4 v 0 1 h -1 l -1,-1 1,-1 h 1 z m 0,4 v 0 1 h -1 l -1,-1 h 1 v -1 z m 0,4 v 0 1 l -1,1 v -1 l -1,-1 h 1 v -1 z m 0,5 v 0 l -1,1 v -1 h -1 l 1,-1 h 1 z m 0,4 v 0 1 h -1 l -1,-1 1,-1 h 1 z m 0,4 v 0 1 h -1 l -1,-1 1,-1 h 1 z m 0,4 v 0 1 h -1 l -1,-1 1,-1 h 1 z m 0,4 v 0 1 h -1 l -1,-1 h 1 v -1 z m 0,5 v 0 l -1,1 v -1 h -1 l 1,-1 v -1 l 1,1 z m 0,4 v 0 l -1,1 v -1 h -1 l 1,-1 h 1 z m 0,4 v 0 1 h -1 l -1,-1 1,-1 h 1 z m 0,4 v 0 1 h -1 l -1,-1 1,-1 h 1 z m 0,4 v 0 1 h -1 l -1,-1 1,-1 h 1 z m 0,4 v 0 1 h -1 l -1,-1 h 1 v -1 z m 0,5 v 0 l -1,1 v -1 h -1 l 1,-1 v -1 l 1,1 z m 0,4 v 0 l -1,1 v -1 h -1 l 1,-1 h 1 z m 0,4 v 0 1 h -1 l -1,-1 1,-1 h 1 z m 0,4 v 0 1 h -1 l -1,-1 1,-1 h 1 z m 0,4 v 0 1 h -1 l -1,-1 1,-1 h 1 z m 0,4 v 0 1 h -1 l -1,-1 h 1 v -1 z m 0,5 v 0 l -1,1 v -1 h -1 l 1,-1 v -1 l 1,1 z m 0,4 v 0 l -1,1 v -1 h -1 l 1,-1 h 1 z m 0,4 v 0 1 h -1 l -1,-1 1,-1 h 1 z m 0,4 v 0 1 h -1 l -1,-1 1,-1 h 1 z m 0,4 v 0 1 h -1 l -1,-1 1,-1 h 1 z m 0,4 v 0 1 h -1 l -1,-1 h 1 v -1 z m 0,5 v 0 l -1,1 v -1 h -1 l 1,-1 v -1 l 1,1 z m 0,4 v 0 l -1,1 v -1 h -1 l 1,-1 h 1 z m 0,4 v 0 1 h -1 l -1,-1 1,-1 h 1 z m 0,4 v 0 1 h -1 l -1,-1 1,-1 h 1 z m 0,4 v 0 1 h -1 l -1,-1 1,-1 h 1 z m 0,4 v 0 1 h -1 l -1,-1 h 1 v -1 z m 0,5 v 0 l -1,1 v -1 h -1 l 1,-1 h 1 z m 0,4 v 0 l -1,1 v -1 h -1 l 1,-1 h 1 z m 0,4 v 0 1 h -1 l -1,-1 1,-1 h 1 z m 0,4 v 0 1 h -1 l -1,-1 1,-1 h 1 z m 0,4 v 0 1 h -1 l -1,-1 1,-1 h 1 z m 0,4 v 0 1 h -1 l -1,-1 h 1 v -1 z m 0,5 v 0 l -1,1 v -1 h -1 l 1,-1 h 1 z m 0,4 v 0 l -1,1 v -1 h -1 l 1,-1 h 1 z m 0,4 v 0 1 h -1 l -1,-1 1,-1 h 1 z m 0,4 v 0 1 h -1 l -1,-1 1,-1 h 1 z m 0,4 v 0 1 h -1 l -1,-1 h 1 v -1 z m 0,4 v 0 1 h -1 l -1,-1 h 1 v -1 z m 0,5 v 0 l -1,1 v -1 h -1 l 1,-1 h 1 z m 0,4 v 0 l -1,1 v -1 h -1 l 1,-1 h 1 z m 0,4 v 0 1 h -1 l -1,-1 1,-1 h 1 z m 0,4 v 0 1 h -1 l -1,-1 1,-1 h 1 z m 0,4 v 0 1 h -1 l -1,-1 h 1 v -1 z m 0,4 v 0 1 h -1 l -1,-1 h 1 v -1 z m 0,5 v 0 l -1,1 v -1 h -1 l 1,-1 h 1 z m 0,4 v 0 l -1,1 v -1 h -1 l 1,-1 h 1 z m 0,4 v 0 1 h -1 l -1,-1 1,-1 h 1 z m 0,4 v 0 1 h -1 l -1,-1 1,-1 h 1 z m 0,4 v 0 1 h -1 l -1,-1 h 1 v -1 z m 0,4 v 0 1 h -1 l -1,-1 h 1 v -1 z m 0,5 v 0 l -1,1 v -1 h -1 l 1,-1 h 1 z m 0,4 v 0 1 h -1 l -1,-1 1,-1 h 1 z m 0,4 v 0 1 h -1 l -1,-1 1,-1 h 1 z m 0,4 v 0 1 h -1 l -1,-1 1,-1 h 1 z m 0,4 v 0 1 h -1 l -1,-1 h 1 v -1 z m 0,4 v 0 1 h -1 l -1,-1 h 1 v -1 z m 0,5 v 0 l -1,1 v -1 h -1 l 1,-1 h 1 z m 0,4 v 0 1 h -1 l -1,-1 1,-1 h 1 z m 0,4 v 0 1 h -1 l -1,-1 1,-1 h 1 z m 0,4 v 0 1 h -1 l -1,-1 1,-1 h 1 z m 0,4 v 0 1 h -1 l -1,-1 h 1 v -1 z m 0,4 v 0 1 l -1,1 v -1 l -1,-1 h 1 v -1 z m 0,5 v 0 l -1,1 v -1 h -1 l 1,-1 h 1 z m 0,4 v 0 1 h -1 l -1,-1 1,-1 h 1 z m 0,4 v 0 1 h -1 l -1,-1 1,-1 h 1 z m 0,4 v 0 1 h -1 l -1,-1 1,-1 h 1 z m 0,4 v 0 1 h -1 l -1,-1 h 1 v -1 z m 0,4 v 0 1 l -1,1 v -1 l -1,-1 h 1 v -1 z m 0,5 v 0 l -1,1 v -1 h -1 l 1,-1 h 1 z m 0,4 v 0 1 h -1 l -1,-1 1,-1 h 1 z m 0,4 v 0 1 h -1 l -1,-1 1,-1 h 1 z m 0,4 v 0 1 h -1 l -1,-1 1,-1 h 1 z m 0,4 v 0 1 h -1 l -1,-1 h 1 v -1 z m 0,4 v 0 1 l -1,1 v -1 l -1,-1 h 1 v -1 z m 0,5 v 0 l -1,1 v -1 h -1 l 1,-1 h 1 z m 0,4 v 0 1 h -1 l -1,-1 1,-1 h 1 z m 0,4 v 0 1 h -1 l -1,-1 1,-1 h 1 z m 0,4 v 0 1 h -1 l -1,-1 1,-1 h 1 z m 0,4 v 0 1 h -1 l -1,-1 h 1 v -1 z m 0,5 v 0 l -1,1 v -1 h -1 l 1,-1 v -1 l 1,1 z m 0,4 v 0 l -1,1 v -1 h -1 l 1,-1 h 1 z m 0,4 v 0 1 h -1 l -1,-1 1,-1 h 1 z m 0,4 v 0 1 h -1 l -1,-1 1,-1 h 1 z m 0,4 v 0 1 h -1 l -1,-1 1,-1 h 1 z m 0,4 v 0 1 h -1 l -1,-1 h 1 v -1 z m 0,5 v 0 l -1,1 v -1 h -1 l 1,-1 v -1 l 1,1 z m 0,4 v 0 l -1,1 v -1 h -1 l 1,-1 h 1 z m 0,4 v 0 1 h -1 l -1,-1 1,-1 h 1 z m 0,4 v 0 1 h -1 l -1,-1 1,-1 h 1 z m 0,4 v 0 1 h -1 l -1,-1 1,-1 h 1 z m 0,4 v 0 1 h -1 l -1,-1 h 1 v -1 z m 0,5 v 0 l -1,1 v -1 h -1 l 1,-1 v -1 l 1,1 z m 0,4 v 0 l -1,1 v -1 h -1 l 1,-1 h 1 z m 0,4 v 0 1 h -1 l -1,-1 1,-1 h 1 z m 0,4 v 0 1 h -1 l -1,-1 1,-1 h 1 z m 0,4 v 0 1 h -1 l -1,-1 1,-1 h 1 z m 0,4 v 0 1 h -1 l -1,-1 h 1 v -1 z m 0,5 v 0 l -1,1 v -1 h -1 l 1,-1 v -1 l 1,1 z m 0,4 v 0 l -1,1 v -1 h -1 l 1,-1 h 1 z m 0,4 v 0 1 h -1 l -1,-1 1,-1 h 1 z m 0,4 v 0 1 h -1 l -1,-1 1,-1 h 1 z m 0,4 v 0 1 h -1 l -1,-1 1,-1 h 1 z m 0,4 v 0 1 h -1 l -1,-1 h 1 v -1 z m 0,5 v 0 l -1,1 v -1 h -1 l 1,-1 h 1 z m 0,4 v 0 l -1,1 v -1 h -1 l 1,-1 h 1 z m 0,4 v 0 1 h -1 l -1,-1 1,-1 h 1 z m 0,4 v 0 1 h -1 l -1,-1 1,-1 h 1 z m 0,4 v 0 1 h -1 l -1,-1 1,-1 h 1 z m 0,4 v 0 1 h -1 l -1,-1 h 1 v -1 z m 0,5 v 0 l -1,1 v -1 h -1 l 1,-1 h 1 z m 0,4 v 0 l -1,1 v -1 h -1 l 1,-1 h 1 z m 0,4 v 0 1 h -1 l -1,-1 1,-1 h 1 z m 0,4 v 0 1 h -1 l -1,-1 1,-1 h 1 z m 0,4 v 0 1 h -1 l -1,-1 h 1 v -1 z m 0,4 v 0 1 h -1 l -1,-1 h 1 v -1 z m 0,5 v 0 l -1,1 v -1 h -1 l 1,-1 h 1 z m 0,4 v 0 l -1,1 v -1 h -1 l 1,-1 h 1 z m 0,4 v 0 1 h -1 l -1,-1 1,-1 h 1 z m 0,4 v 0 1 h -1 l -1,-1 1,-1 h 1 z m 0,4 v 0 1 h -1 l -1,-1 h 1 v -1 z m 0,4 v 0 1 h -1 l -1,-1 h 1 v -1 z m 0,5 v 0 l -1,1 v -1 h -1 l 1,-1 h 1 z m 0,4 v 0 l -1,1 v -1 h -1 l 1,-1 h 1 z m 0,4 v 0 1 h -1 l -1,-1 1,-1 h 1 z m 0,4 v 0 1 h -1 l -1,-1 1,-1 h 1 z m 0,4 v 0 1 h -1 l -1,-1 h 1 v -1 z m 0,4 v 0 1 h -1 l -1,-1 h 1 v -1 z m 0,5 v 0 l -1,1 v -1 h -1 l 1,-1 h 1 z m 0,4 v 0 1 h -1 l -1,-1 1,-1 h 1 z m 0,4 v 0 1 h -1 l -1,-1 1,-1 h 1 z m 0,4 v 0 1 h -1 l -1,-1 1,-1 h 1 z m 0,4 v 0 1 h -1 l -1,-1 h 1 v -1 z m 0,4 v 0 1 h -1 l -1,-1 h 1 v -1 z m 0,5 v 0 l -1,1 v -1 h -1 l 1,-1 h 1 z m 0,4 v 0 1 h -1 l -1,-1 1,-1 h 1 z m 0,4 v 0 1 h -1 l -1,-1 1,-1 h 1 z m 0,4 v 0 1 h -1 l -1,-1 1,-1 h 1 z m 0,4 v 0 1 h -1 l -1,-1 h 1 v -1 z m 0,4 v 0 1 l -1,1 v -1 l -1,-1 h 1 v -1 z m 0,5 v 0 l -1,1 v -1 h -1 l 1,-1 h 1 z m 0,4 v 0 1 h -1 l -1,-1 1,-1 h 1 z m 0,4 v 0 1 h -1 l -1,-1 1,-1 h 1 z m 0,4 v 0 1 h -1 l -1,-1 1,-1 h 1 z m 0,4 v 0 1 h -1 l -1,-1 h 1 v -1 z m 0,4 v 0 1 l -1,1 v -1 l -1,-1 h 1 v -1 z m 0,5 v 0 l -1,1 v -1 h -1 l 1,-1 h 1 z m 0,4 v 0 1 h -1 l -1,-1 1,-1 h 1 z m 0,4 v 0 1 h -1 l -1,-1 1,-1 h 1 z m 0,4 v 0 1 h -1 l -1,-1 1,-1 h 1 z m 0,4 v 0 1 h -1 l -1,-1 h 1 v -1 z m 0,4 v 0 1 l -1,1 v -1 l -1,-1 h 1 v -1 z m 0,5 v 0 l -1,1 v -1 h -1 l 1,-1 h 1 z m 0,4 v 0 1 h -1 l -1,-1 1,-1 h 1 z m 0,4 v 0 1 h -1 l -1,-1 1,-1 h 1 z m 0,4 v 0 1 h -1 l -1,-1 1,-1 h 1 z m 0,4 v 0 1 h -1 l -1,-1 h 1 v -1 z m 0,5 v 0 l -1,1 v -1 h -1 l 1,-1 v -1 l 1,1 z m 0,4 v 0 l -1,1 v -1 h -1 l 1,-1 h 1 z m 0,4 v 0 1 h -1 l -1,-1 1,-1 h 1 z m 0,4 v 0 1 h -1 l -1,-1 1,-1 h 1 z m 0,4 v 0 1 h -1 l -1,-1 1,-1 h 1 z m 0,4 v 0 1 h -1 l -1,-1 h 1 v -1 z m 0,5 v 0 l -1,1 v -1 h -1 l 1,-1 v -1 l 1,1 z m 0,4 v 0 l -1,1 v -1 h -1 l 1,-1 h 1 z m 0,4 v 0 1 h -1 l -1,-1 1,-1 h 1 z m 0,4 v 0 1 h -1 l -1,-1 1,-1 h 1 z m 0,4 v 0 1 h -1 l -1,-1 1,-1 h 1 z m 0,4 v 0 1 h -1 l -1,-1 h 1 v -1 z m 0,5 v 0 l -1,1 v -1 h -1 l 1,-1 v -1 l 1,1 z m 0,4 v 0 l -1,1 v -1 h -1 l 1,-1 h 1 z m 0,4 v 0 1 h -1 l -1,-1 1,-1 h 1 z m 0,4 v 0 1 h -1 l -1,-1 1,-1 h 1 z m 0,4 v 0 1 h -1 l -1,-1 1,-1 h 1 z m 0,4 v 0 1 h -1 l -1,-1 h 1 v -1 z m 0,5 v 0 l -1,1 v -1 h -1 l 1,-1 h 1 z m 0,4 v 0 l -1,1 v -1 h -1 l 1,-1 h 1 z m 0,4 v 0 1 h -1 l -1,-1 1,-1 h 1 z m 0,4 v 0 1 h -1 l -1,-1 1,-1 h 1 z m 0,4 v 0 1 h -1 l -1,-1 1,-1 h 1 z m 0,4 v 0 1 h -1 l -1,-1 h 1 v -1 z m 0,5 v 0 l -1,1 v -1 h -1 l 1,-1 h 1 z m 0,4 v 0 l -1,1 v -1 h -1 l 1,-1 h 1 z m 0,4 v 0 1 h -1 l -1,-1 1,-1 h 1 z m 0,4 v 0 1 h -1 l -1,-1 1,-1 h 1 z m 0,4 v 0 1 h -1 l -1,-1 h 1 v -1 z m 0,4 v 0 1 h -1 l -1,-1 h 1 v -1 z m 0,5 v 0 l -1,1 v -1 h -1 l 1,-1 h 1 z m 0,4 v 0 l -1,1 v -1 h -1 l 1,-1 h 1 z m 0,4 v 0 1 h -1 l -1,-1 1,-1 h 1 z m 0,4 v 0 1 h -1 l -1,-1 1,-1 h 1 z m 0,4 v 0 1 h -1 l -1,-1 h 1 v -1 z m 0,4 v 0 1 h -1 l -1,-1 h 1 v -1 z m 0,5 v 0 l -1,1 v -1 h -1 l 1,-1 h 1 z"
           style="fill:none;stroke:#000000;stroke-width:1;stroke-linecap:square;stroke-linejoin:miter;stroke-miterlimit:10;stroke-dasharray:none;stroke-opacity:1"
           id="path1326" /></g></g><g
       id="g1328"
       transform="matrix(0.1199059,0,0,-0.1199189,-120.14092,203.24529)"><g
         id="g1330"
         transform="translate(4996.1948,-635.1628)"><path
           d="M 0,0 H -3 L -5.001,-0.999 -8,-2 l -2,-2 -2,-2 -690,-1005 -1.001,-2 -0.999,-3.001 v -2 -2.999 -2.999 l 2,-2.001 0.999,-2 3.001,-2 2,-2 h 3 l 2,-1 3,1 h 3 l 2,2 2,1 2,2 690,1005.001 2,1.998 0.999,3.001 v 3 2 L 13,-9 l -1,2 -2,3 -2,1.001 -3,2 L 3,0 Z"
           style="fill:#ccccff;fill-opacity:1;fill-rule:nonzero;stroke:none"
           id="path1332" /></g></g><g
       id="g1334"
       transform="matrix(0.1199059,0,0,-0.1199189,-120.14089,203.24529)"><g
         id="g1336"
         transform="translate(4298.1948,-1665.1627)"><path
           d="m 0,0 -3,2 -1,2 -2,2 v 3 3 2 l 1,3 1,2 690,1005 2,2 2,2 3,1 2,1 h 3 3 l 2,-1 3,-2 2,-1 2,-3 1,-2 1,-3 v -2 -3 l -1,-3 -2,-2 L 19,3 17,1 15,0 13,-2 H 10 L 7,-3 5,-2 H 2 L 0,0"
           style="fill:none;stroke:#000000;stroke-width:2;stroke-linecap:square;stroke-linejoin:miter;stroke-miterlimit:10;stroke-dasharray:none;stroke-opacity:1"
           id="path1338" /></g></g><g
       id="g1340"
       transform="matrix(0.1199059,0,0,-0.1199189,-120.14092,203.24529)"><g
         id="g1342"
         transform="translate(4975.1948,-564.1626)"><path
           d="m 0,0 -38,-53 9,-56 46,-34 56,9 38,53 -8,56 -47.001,34 z"
           style="fill:#808080;fill-opacity:1;fill-rule:nonzero;stroke:none"
           id="path1344" /></g></g><g
       id="g1346"
       transform="matrix(0.1199059,0,0,-0.1199189,-120.14089,203.24529)"><g
         id="g1348"
         transform="translate(4946.1948,-673.1627)"><path
           d="m 0,0 -9,56 38,53 56,9 47,-34 8,-56 -38,-53 -56,-9 z"
           style="fill:none;stroke:#000000;stroke-width:2;stroke-linecap:square;stroke-linejoin:miter;stroke-miterlimit:10;stroke-dasharray:none;stroke-opacity:1"
           id="path1350" /></g></g><g
       id="g1352"
       transform="matrix(0.1199059,0,0,-0.1199189,-120.14092,203.24529)"><g
         id="g1354"
         transform="translate(4305.1948,-448.1627)"><path
           d="M 0,0 H 1036"
           style="fill:none;stroke:#000000;stroke-width:2;stroke-linecap:square;stroke-linejoin:miter;stroke-miterlimit:10;stroke-dasharray:none;stroke-opacity:1"
           id="path1356" /></g></g><g
       id="g1358"
       transform="matrix(0.1199059,0,0,-0.1199189,-120.14092,203.24529)"><g
         id="g1360"
         transform="translate(4993.1943,-314.1629)"><path
           d="m 0,0 h 12 v -313 l 1.001,-2 0.999,-1 1.001,-1 H 17 18 l 2,1 v 1 l 1,2 V 0 H 33 L 17,33 Z"
           style="fill:#000000;fill-opacity:1;fill-rule:nonzero;stroke:none"
           id="path1362" /></g></g><g
       id="g1364"
       transform="matrix(0.1199059,0,0,-0.1199189,-120.14092,203.24529)"><g
         id="g1366"
         transform="translate(5014.1948,-627.1627)"><path
           d="m 0,0 v 321 l -1,2 v 1 l -2,1 h -1 -2 l -1,-1 -1,-1 -1,-2 V 0 l 1,-2 1,-1 1,-1 h 2 1 l 2,1 v 1 z m 12,313 -16,33 -17,-33 z"
           style="fill:none;stroke:#000000;stroke-width:1;stroke-linecap:square;stroke-linejoin:miter;stroke-miterlimit:10;stroke-dasharray:none;stroke-opacity:1"
           id="path1368" /></g></g><g
       id="g1370"
       transform="matrix(0.1199059,0,0,-0.1199189,-120.14092,203.24529)"><g
         id="g1372"
         transform="translate(4978.1943,-414.1633)"><path
           d="M 0,0 H -637 V 12 L -671,-4.999 -637,-21 V -9 H 0 V -21 L 34,-4.999 0,12 Z"
           style="fill:#000000;fill-opacity:1;fill-rule:nonzero;stroke:none"
           id="path1374" /></g></g><g
       id="g1376"
       transform="matrix(0.1199059,0,0,-0.1199189,-120.14092,203.24529)"><g
         id="g1378"
         transform="translate(4332.1948,-423.1627)"><path
           d="m 0,0 h 655 l 1,1 h 2 v 2 l 1,1 -1,2 v 1 l -2,1 -1,1 H 0 L -1,8 -2,7 -3,6 -4,4 -3,3 -2,1 h 1 z M 9,21 -25,4 9,-12 Z m 637,-33 34,16 -34,17 z"
           style="fill:none;stroke:#000000;stroke-width:1;stroke-linecap:square;stroke-linejoin:miter;stroke-miterlimit:10;stroke-dasharray:none;stroke-opacity:1"
           id="path1380" /></g></g><g
       id="g1382"
       transform="matrix(0.1199059,0,0,-0.1199189,-120.14092,203.24529)"><g
         id="g1384"
         transform="translate(4307.1948,-1460.1627)"><path
           d="m 0,0 15,-1 14,-1 14,-2 14,-2 12,-3 12,-4 6,-2 5,-2 5,-3 5,-2"
           style="fill:none;stroke:#000000;stroke-width:2;stroke-linecap:square;stroke-linejoin:miter;stroke-miterlimit:10;stroke-dasharray:none;stroke-opacity:1"
           id="path1386" /></g></g><g
       id="g1388"
       transform="translate(-120.14095,203.24529)"><g
         id="g1390"
         clip-path="url(#clipPath1394-3)"><text
           transform="matrix(0.9486845,0,-0.31622417,-0.9487804,520.2953,167.0665)"
           style="font-variant:normal;font-weight:normal;font-stretch:normal;font-size:8.34187px;font-family:Symbol;-inkscape-font-specification:SymbolMT;writing-mode:lr-tb;fill:#000000;fill-opacity:1;fill-rule:nonzero;stroke:none"
           id="text1398"><tspan
             x="0"
             y="0"
             id="tspan1396">θ</tspan></text><text
           transform="matrix(0.9486833,0,-0.31622777,-0.94878958,573.1738,41.8712)"
           style="font-variant:normal;font-weight:normal;font-stretch:normal;font-size:8.46826px;font-family:Symbol;-inkscape-font-specification:SymbolMT;writing-mode:lr-tb;fill:#000000;fill-opacity:1;fill-rule:nonzero;stroke:none"
           id="text1402"><tspan
             x="0"
             y="0"
             id="tspan1400">θ</tspan></text><text
           transform="matrix(0.9486833,0,-0.31622777,-0.94878958,549.7922,41.8712)"
           style="font-variant:normal;font-weight:normal;font-stretch:normal;font-size:8.46826px;font-family:Symbol;-inkscape-font-specification:SymbolMT;writing-mode:lr-tb;fill:#000000;fill-opacity:1;fill-rule:nonzero;stroke:none"
           id="text1406"><tspan
             x="0"
             y="0"
             id="tspan1404">θ</tspan></text><text
           transform="matrix(0.99988798,0,0,-1,568.6174,41.8712)"
           style="font-style:italic;font-variant:normal;font-weight:normal;font-stretch:normal;font-size:8.0346px;font-family:'Times New Roman';-inkscape-font-specification:TimesNewRomanPS-ItalicMT;writing-mode:lr-tb;fill:#000000;fill-opacity:1;fill-rule:nonzero;stroke:none"
           id="text1410"><tspan
             x="0"
             y="0"
             id="tspan1408">L</tspan></text><text
           transform="matrix(0.99988798,0,0,-1,531.5664,41.8712)"
           style="font-style:italic;font-variant:normal;font-weight:normal;font-stretch:normal;font-size:8.0346px;font-family:'Times New Roman';-inkscape-font-specification:TimesNewRomanPS-ItalicMT;writing-mode:lr-tb;fill:#000000;fill-opacity:1;fill-rule:nonzero;stroke:none"
           id="text1414"><tspan
             x="0"
             y="0"
             id="tspan1412">L</tspan></text><text
           transform="matrix(0.99988798,0,0,-1,559.5045,41.8712)"
           style="font-variant:normal;font-weight:normal;font-stretch:normal;font-size:8.0346px;font-family:Symbol;-inkscape-font-specification:SymbolMT;writing-mode:lr-tb;fill:#000000;fill-opacity:1;fill-rule:nonzero;stroke:none"
           id="text1418"><tspan
             x="0"
             y="0"
             id="tspan1416">≈</tspan></text><text
           transform="matrix(0.99988798,0,0,-1,538.4011,41.8712)"
           style="font-variant:normal;font-weight:normal;font-stretch:normal;font-size:8.0346px;font-family:'Times New Roman';-inkscape-font-specification:TimesNewRomanPSMT;writing-mode:lr-tb;fill:#000000;fill-opacity:1;fill-rule:nonzero;stroke:none"
           id="text1422"><tspan
             x="0 3.1174247 5.3960376"
             y="0"
             sodipodi:role="line"
             id="tspan1420">sin</tspan></text><text
           transform="matrix(0.99989892,0,0,-1,562.5022,138.6457)"
           style="font-style:italic;font-variant:normal;font-weight:normal;font-stretch:normal;font-size:7.9146px;font-family:'Times New Roman';-inkscape-font-specification:TimesNewRomanPS-ItalicMT;writing-mode:lr-tb;fill:#000000;fill-opacity:1;fill-rule:nonzero;stroke:none"
           id="text1428"><tspan
             x="0"
             y="0"
             id="tspan1424">L</tspan><tspan
             x="43.174145 48.928059"
             y="104.80513"
             sodipodi:role="line"
             id="tspan1426">mg</tspan></text></g></g><g
       id="g1430"
       transform="matrix(0.1199059,0,0,-0.1199189,-120.14092,203.24529)"><g
         id="g1432"
         transform="translate(4435.1943,-1511.1631)"><path
           d="M 0,0 H -1 L -2,-2 -3,-2.999 -2,-5 -1,-6 86.126,-96.873 77,-105.999 112,-118 101,-82 92.095,-90.904 5.001,-0.999 3,0 2,1.001 Z"
           style="fill:#000000;fill-opacity:1;fill-rule:nonzero;stroke:none"
           id="path1434" /></g></g><g
       id="g1436"
       transform="matrix(0.1199059,0,0,-0.1199189,-120.14092,203.24529)"><g
         id="g1438"
         transform="translate(4434.1948,-1517.1627)"><path
           d="m 0,0 93,-97 1,-1 h 2 1 l 2,1 1,1 v 2 1 L 99,-91 6,5 4,6 3,7 1,6 H 0 L -1,4 -2,3 -1,1 Z m 78,-100 35,-12 -11,36 z"
           style="fill:none;stroke:#000000;stroke-width:1;stroke-linecap:square;stroke-linejoin:miter;stroke-miterlimit:10;stroke-dasharray:none;stroke-opacity:1"
           id="path1440" /></g></g><g
       id="g1442"
       transform="matrix(0.1199059,0,0,-0.1199189,-120.14092,203.24529)"><g
         id="g1444"
         transform="translate(5075.1938,-717.1626)"><path
           d="M 0,0 9.059,8.681 96,-82 l 2,-1.001 h 1.001 2 L 102,-82 l 1.001,2 v 1 2 L 102,-76 15.184,14.551 24.001,23 -11,36 Z"
           style="fill:#000000;fill-opacity:1;fill-rule:nonzero;stroke:none"
           id="path1446" /></g></g><g
       id="g1448"
       transform="matrix(0.1199059,0,0,-0.1199189,-120.14092,203.24529)"><g
         id="g1450"
         transform="translate(5177.1948,-793.1627)"><path
           d="m 0,0 -93,97 -1,1 h -2 -1 l -2,-1 -1,-1 v -2 -2 l 1,-1 93,-97 2,-1 h 1 2 l 1,1 1,2 v 1 2 z m -78,99 -35,13 11,-36 z"
           style="fill:none;stroke:#000000;stroke-width:1;stroke-linecap:square;stroke-linejoin:miter;stroke-miterlimit:10;stroke-dasharray:none;stroke-opacity:1"
           id="path1452" /></g></g><g
       id="g1454"
       transform="translate(-120.14095,203.24529)"><g
         id="g1456"
         clip-path="url(#clipPath1460-0)"><text
           transform="matrix(0.99988798,0,0,-1,561.3031,190.2108)"
           style="font-variant:normal;font-weight:normal;font-stretch:normal;font-size:8.0346px;font-family:'Times New Roman';-inkscape-font-specification:TimesNewRomanPSMT;writing-mode:lr-tb;fill:#000000;fill-opacity:1;fill-rule:nonzero;stroke:none"
           id="text1464"><tspan
             x="0"
             y="0"
             id="tspan1462">)</tspan></text><text
           transform="matrix(0.99988798,0,0,-1,554.2286,190.2108)"
           style="font-variant:normal;font-weight:normal;font-stretch:normal;font-size:8.0346px;font-family:'Times New Roman';-inkscape-font-specification:TimesNewRomanPSMT;writing-mode:lr-tb;fill:#000000;fill-opacity:1;fill-rule:nonzero;stroke:none"
           id="text1468"><tspan
             x="0"
             y="0"
             id="tspan1466">(</tspan></text><text
           transform="matrix(0.99988798,0,0,-1,557.7059,190.2109)"
           style="font-style:italic;font-variant:normal;font-weight:normal;font-stretch:normal;font-size:8.0346px;font-family:'Times New Roman';-inkscape-font-specification:TimesNewRomanPS-ItalicMT;writing-mode:lr-tb;fill:#000000;fill-opacity:1;fill-rule:nonzero;stroke:none"
           id="text1472"><tspan
             x="0"
             y="0"
             id="tspan1470">t</tspan></text><text
           transform="matrix(0.99988798,0,0,-1,547.7537,190.2109)"
           style="font-style:italic;font-variant:normal;font-weight:normal;font-stretch:normal;font-size:8.0346px;font-family:'Times New Roman';-inkscape-font-specification:TimesNewRomanPS-ItalicMT;writing-mode:lr-tb;fill:#000000;fill-opacity:1;fill-rule:nonzero;stroke:none"
           id="text1476"><tspan
             x="0"
             y="0"
             id="tspan1474">F</tspan></text><text
           transform="matrix(0.9486845,0,-0.31622417,-0.9487804,623.4144,97.8733)"
           style="font-variant:normal;font-weight:normal;font-stretch:normal;font-size:8.34187px;font-family:Symbol;-inkscape-font-specification:SymbolMT;writing-mode:lr-tb;fill:#000000;fill-opacity:1;fill-rule:nonzero;stroke:none"
           id="text1480"><tspan
             x="0"
             y="0"
             id="tspan1478">θ</tspan></text><text
           transform="matrix(0.99989892,0,0,-1,628.6903,98.353)"
           style="font-variant:normal;font-weight:normal;font-stretch:normal;font-size:7.9146px;font-family:Symbol;-inkscape-font-specification:SymbolMT;writing-mode:lr-tb;fill:#000000;fill-opacity:1;fill-rule:nonzero;stroke:none"
           id="text1484"><tspan
             x="0"
             y="0"
             id="tspan1482">′</tspan></text><text
           transform="matrix(0.99989892,0,0,-1,612.0234,97.8733)"
           style="font-variant:normal;font-weight:normal;font-stretch:normal;font-size:7.9146px;font-family:Symbol;-inkscape-font-specification:SymbolMT;writing-mode:lr-tb;fill:#000000;fill-opacity:1;fill-rule:nonzero;stroke:none"
           id="text1488"><tspan
             x="0"
             y="0"
             id="tspan1486">−</tspan></text><text
           transform="matrix(0.99989892,0,0,-1,619.9371,97.8733)"
           style="font-style:italic;font-variant:normal;font-weight:normal;font-stretch:normal;font-size:7.9146px;font-family:'Times New Roman';-inkscape-font-specification:TimesNewRomanPS-ItalicMT;writing-mode:lr-tb;fill:#000000;fill-opacity:1;fill-rule:nonzero;stroke:none"
           id="text1492"><tspan
             x="0"
             y="0"
             id="tspan1490">c</tspan></text></g></g><g
       id="g1494"
       transform="matrix(0.1199059,0,0,-0.1199189,-120.14092,203.24529)"><path
         d="m 4078.195,-1717.163 h 471 v 44 h -471 z"
         style="fill:#000000;fill-opacity:1;fill-rule:nonzero;stroke:none"
         id="path1496" /></g><g
       id="g1498"
       transform="translate(-120.14095,203.24529)"><g
         id="g1500"
         clip-path="url(#clipPath1504-2)"><g
           id="g1506"
           transform="matrix(0.1199059,0,0,-0.1199189,6.1e-5,0)"><g
             id="g1508"
             transform="translate(4078.1948,-1717.1627)"><path
               d="M 0,0 V 44 H 471 V 0 Z"
               style="fill:none;stroke:#000000;stroke-width:6;stroke-linecap:square;stroke-linejoin:miter;stroke-miterlimit:10;stroke-dasharray:none;stroke-opacity:1"
               id="path1510" /></g></g></g></g><g
       id="g1512"
       transform="matrix(0.1199059,0,0,-0.1199189,-120.14092,203.24529)"><g
         id="g1514"
         transform="translate(4308.1948,-1623.1625)"><path
           d="M 0,0 H -3 -6 -8 L -11.001,-1.001 -14,-2 -17,-4 -19,-5.001 -23,-9 l -4,-5 -2,-5 -1,-3.001 -1,-2.999 -1.001,-3.001 V -31 -34 l 1.001,-3 1,-3 1,-3.001 2,-4.999 4,-5 4,-4 2,-1 3,-2.001 L -11.001,-61 -8,-62.001 h 2 3 3 3 l 3,1.001 3,0.999 2,2.001 3,1 4,4 4,5 2,4.999 1,3.001 1,3 v 3 l 1,3 -1,2.999 V -25 l -1,2.999 -1,3.001 -2,5 -4,5 -4,3.999 L 11,-4 9,-2 6,-1.001 3,0 Z m -6,-46 -2,0.999 -3.001,1.001 -2,2 -2,2 -0.999,3 -1,3 v 3 2.999 l 1,3.001 0.999,2.999 2,2 2,2 L -8,-17 l 2,1 3,1 3,-1 3,-1 3,-1.001 1.999,-2 1.001,-2 2,-2.999 0.999,-3.001 V -31 -34 L 11,-37 9,-40 7.999,-42 6,-44 3,-45.001 0,-46 -3,-47.001 Z"
           style="fill:#ccccff;fill-opacity:1;fill-rule:nonzero;stroke:none"
           id="path1516" /></g></g><g
       id="g1518"
       transform="matrix(0.1199059,0,0,-0.1199189,-120.14089,203.24529)"><g
         id="g1520"
         transform="translate(4276.1948,-1654.1627)"><path
           d="m 0,0 v -3 l 1,-3 1,-3 1,-3 2,-5 4,-5 4,-4 2,-1 3,-2 3,-1 3,-1 h 2 3 3 3 l 3,1 3,1 2,2 3,1 4,4 4,5 2,5 1,3 1,3 v 3 l 1,3 -1,3 v 3 l -1,3 -1,3 -2,5 -4,5 -4,4 -3,1 -2,2 -3,1 -3,1 H 32 29 26 24 L 21,30 18,29 15,27 13,26 9,22 5,17 3,12 2,9 1,6 0,3 V 0"
           style="fill:none;stroke:#000000;stroke-width:2;stroke-linecap:square;stroke-linejoin:miter;stroke-miterlimit:10;stroke-dasharray:none;stroke-opacity:1"
           id="path1522" /></g></g><g
       id="g1524"
       transform="matrix(0.1199059,0,0,-0.1199189,-120.14083,203.24529)"><g
         id="g1526"
         transform="translate(4291.1948,-1654.1627)"><path
           d="m 0,0 v 3 l 1,3 1,3 2,2 2,2 3,1 2,1 3,1 3,-1 3,-1 3,-1 2,-2 1,-2 2,-3 1,-3 V 0 -3 l -1,-3 -2,-3 -1,-2 -2,-2 -3,-1 -3,-1 -3,-1 -3,1 -2,1 -3,1 -2,2 -2,2 -1,3 -1,3 v 3"
           style="fill:none;stroke:#000000;stroke-width:2;stroke-linecap:square;stroke-linejoin:miter;stroke-miterlimit:10;stroke-dasharray:none;stroke-opacity:1"
           id="path1528" /></g></g><g
       id="g1530"
       transform="matrix(0.1199059,0,0,-0.1199189,-120.14092,203.24529)"><g
         id="g1532"
         transform="translate(4305.1943,-330.1634)"><path
           d="M 0,0 H -1 L 0,-0.999 H 1 V 0 L 0,1.001 Z m 0,-3.999 -1,-1 h 1 v -1 l 1,1 v 1 z m 0,-4 L -1,-9 H 0 V -9.999 L 1,-9 v 1.001 z m 0,-4 -1,-1.001 1,-0.999 h 1 v 0.999 1.001 z m 0,-4 L -1,-17 0,-17.999 H 1 V -17 -15.999 Z M 0,-21 h -1 l 1,-0.999 H 1 V -21 l -1,1.001 z m 0,-3.999 h -1 l 1,-1 h 1 v 1 l -1,1 z m 0,-4 L -1,-30 h 1 v -0.999 L 1,-30 v 1.001 z m 0,-4 L -1,-34 h 1 v -0.999 L 1,-34 v 1.001 z m 0,-4 -1,-1.001 1,-0.999 h 1 v 0.999 1.001 z m 0,-4 -1,-1.001 1,-0.999 h 1 v 0.999 1.001 z m 0,-5 h -1 l 1,-1 h 1 v 1 l -1,1 z m 0,-4 H -1 L 0,-51 h 1 v 1.001 L 0,-49 Z m 0,-4 L -1,-55 h 1 v -0.999 L 1,-55 v 1.001 z m 0,-4 -1,-1.001 1,-0.999 h 1 v 0.999 1.001 z m 0,-4 -1,-1.001 1,-0.999 h 1 v 0.999 1.001 z m 0,-4 -1,-1 1,-1 h 1 v 1 1 z m 0,-5 H -1 L 0,-72 h 1 v 1.001 l -1,1 z m 0,-4 H -1 L 0,-76 h 1 v 1.001 L 0,-74 Z m 0,-4 L -1,-80 h 1 v -0.999 L 1,-80 v 1.001 z m 0,-4 -1,-1.001 1,-0.999 h 1 v 0.999 1.001 z m 0,-4 -1,-1 1,-1 h 1 v 1 1 z m 0,-4 -1,-1 L 0,-93 h 1 v 1.001 1 z m 0,-5 H -1 L 0,-97 h 1 v 1.001 L 0,-95 Z m 0,-4 H -1 L 0,-101 v -0.999 L 1,-101 v 1.001 L 0,-99 Z m 0,-4 -1,-1.001 h 1 v -0.999 L 1,-105 v 1.001 z m 0,-4 -1,-1.001 1,-0.999 h 1 v 0.999 1.001 z m 0,-4 -1,-1 1,-1.001 h 1 v 1.001 1 z M 0,-116 -1,-116.999 0,-118 h 1 v 1.001 0.999 z m 0,-4.999 H -1 L 0,-122 h 1 v 1.001 L 0,-120 Z m 0,-4 H -1 L 0,-126 v -0.999 L 1,-126 v 1.001 L 0,-124 Z m 0,-4 -1,-1.001 h 1 v -0.999 L 1,-130 v 1.001 z m 0,-4 -1,-1 1,-1 h 1 v 1 1 z M 0,-137 -1,-137.999 0,-139 h 1 v 1.001 0.999 z m 0,-4 -1,-0.999 1,-1.001 h 1 v 1.001 0.999 z m 0,-4.999 H -1 L 0,-147 h 1 v 1.001 L 0,-145 Z m 0,-4 H -1 L 0,-151 v -0.999 L 1,-151 v 1.001 L 0,-149 Z m 0,-4 -1,-1 h 1 v -1 l 1,1 v 1 z M 0,-158 -1,-158.999 0,-160 h 1 v 1.001 0.999 z m 0,-4 -1,-0.999 1,-1.001 h 1 v 1.001 0.999 z m 0,-4 -1,-0.999 1,-1.001 h 1 v 1.001 0.999 z m 0,-4.999 H -1 L 0,-172 h 1 v 1.001 L 0,-170 Z m 0,-4 -1,-1 h 1 v -1 l 1,1 v 1 L 0,-174 Z M 0,-179 -1,-179.999 H 0 V -181 l 1,1.001 V -179 Z m 0,-4 -1,-0.999 1,-1.001 h 1 v 1.001 0.999 z m 0,-4 -1,-0.999 1,-1.001 h 1 v 1.001 0.999 z m 0,-4 -1,-0.999 1,-1.001 h 1 v 1.001 0.999 z m 0,-4.999 h -1 l 1,-1 h 1 v 1 L 0,-195 Z m 0,-4 -1,-1 H 0 V -202 l 1,1.001 v 1 l -1,1 z M 0,-204 -1,-204.999 H 0 V -206 l 1,1.001 V -204 Z m 0,-4 -1,-0.999 1,-1.001 h 1 v 1.001 0.999 z m 0,-4 -1,-0.999 1,-1.001 h 1 v 1.001 0.999 z m 0,-4 -1,-0.999 1,-1 h 1 v 1 0.999 z m 0,-4.999 h -1 l 1,-1 h 1 v 1 l -1,1 z M 0,-225 -1,-225.999 H 0 V -227 l 1,1.001 V -225 l -1,1.001 z m 0,-4 -1,-0.999 H 0 V -231 l 1,1.001 V -229 Z m 0,-4 -1,-0.999 1,-1.001 h 1 v 1.001 0.999 z m 0,-4 -1,-0.999 1,-1.001 h 1 v 1.001 0.999 z m 0,-3.999 -1,-1 1,-1 h 1 v 1 1 z M 0,-246 h -1 l 1,-0.999 H 1 V -246 l -1,1.001 z m 0,-4 -1,-0.999 H 0 V -252 l 1,1.001 V -250 Z m 0,-4 -1,-0.999 H 0 V -256 l 1,1.001 V -254 Z m 0,-4 -1,-0.999 1,-1.001 h 1 v 1.001 0.999 z m 0,-3.999 -1,-1 1,-1 h 1 v 1 1 z m 0,-4 -1,-1.001 1,-0.999 h 1 v 0.999 1.001 z M 0,-271 h -1 l 1,-0.999 H 1 V -271 l -1,1.001 z m 0,-4 -1,-0.999 H 0 V -277 l 1,1.001 V -275 Z m 0,-4 -1,-0.999 H 0 V -281 l 1,1.001 V -279 Z m 0,-3.999 -1,-1 1,-1 h 1 v 1 1 z m 0,-4 -1,-1.001 1,-0.999 h 1 v 0.999 1.001 z M 0,-292 h -1 l 1,-0.999 H 1 V -292 l -1,1.001 z m 0,-4 h -1 l 1,-0.999 H 1 V -296 l -1,1.001 z m 0,-4 -1,-0.999 H 0 V -302 l 1,1.001 V -300 Z m 0,-4 -1,-0.999 h 1 v -1 l 1,1 V -304 Z m 0,-3.999 -1,-1.001 1,-0.999 h 1 v 0.999 1.001 z m 0,-4 -1,-1.001 1,-0.999 h 1 v 0.999 1.001 z M 0,-317 h -1 l 1,-0.999 H 1 V -317 l -1,1.001 z m 0,-4 h -1 l 1,-0.999 H 1 V -321 l -1,1.001 z m 0,-4 -1,-0.999 h 1 v -1 l 1,1 V -325 Z m 0,-3.999 -1,-1 h 1 v -1 l 1,1 v 1 z m 0,-4 -1,-1.001 1,-0.999 h 1 v 0.999 1.001 z m 0,-4 -1,-1.001 1,-0.999 h 1 v 0.999 1.001 z M 0,-342 h -1 l 1,-0.999 H 1 V -342 l -1,1.001 z m 0,-4 h -1 l 1,-0.999 H 1 V -346 l -1,1.001 z m 0,-3.999 -1,-1 h 1 v -1 l 1,1 v 1 z m 0,-4 -1,-1.001 1,-0.999 h 1 v 0.999 1.001 z m 0,-4 -1,-1.001 1,-0.999 h 1 v 0.999 1.001 z m 0,-4 -1,-1.001 1,-0.999 h 1 v 0.999 1.001 z M 0,-367 h -1 l 1,-0.999 H 1 V -367 l -1,1.001 z m 0,-3.999 h -1 l 1,-1 h 1 v 1 l -1,1 z m 0,-4 -1,-1.001 h 1 v -0.999 L 1,-376 v 1.001 z m 0,-4 -1,-1.001 1,-0.999 h 1 v 0.999 1.001 z m 0,-4 -1,-1.001 1,-0.999 h 1 v 0.999 1.001 z m 0,-4 -1,-1.001 1,-0.999 h 1 v 0.999 1.001 z m 0,-5 h -1 l 1,-1 h 1 v 1 l -1,1 z m 0,-4 H -1 L 0,-397 v -0.999 L 1,-397 v 1.001 l -1,1 z m 0,-4 -1,-1.001 h 1 v -0.999 L 1,-401 v 1.001 z m 0,-4 -1,-1.001 1,-0.999 h 1 v 0.999 1.001 z m 0,-4 -1,-1.001 1,-0.999 h 1 v 0.999 1.001 z m 0,-4 -1,-1 1,-1 h 1 v 1 1 z m 0,-5 H -1 L 0,-418 h 1 v 1.001 l -1,1 z m 0,-4 H -1 L 0,-422 v -0.999 L 1,-422 v 1.001 L 0,-420 Z m 0,-4 -1,-1.001 h 1 v -0.999 L 1,-426 v 1.001 z m 0,-4 -1,-1.001 1,-0.999 h 1 v 0.999 1.001 z m 0,-4 -1,-1.001 1,-0.999 h 1 v 0.999 1.001 z m 0,-4 -1,-1 1,-1.001 h 1 v 1.001 1 z m 0,-5 H -1 L 0,-443 h 1 v 1.001 L 0,-441 Z m 0,-4 H -1 L 0,-447 v -0.999 L 1,-447 v 1.001 L 0,-445 Z m 0,-4 -1,-1.001 h 1 v -0.999 L 1,-451 v 1.001 z m 0,-4 -1,-1.001 1,-0.999 h 1 v 0.999 1.001 z m 0,-4 -1,-1 1,-1 h 1 v 1 1 z M 0,-462 -1,-462.999 0,-464 h 1 v 1.001 0.999 z m 0,-4.999 H -1 L 0,-468 h 1 v 1.001 L 0,-466 Z m 0,-4 H -1 L 0,-472 v -0.999 L 1,-472 v 1.001 L 0,-470 Z m 0,-4 -1,-1.001 h 1 v -0.999 L 1,-476 v 1.001 z m 0,-4 -1,-1 1,-1 h 1 v 1 1 z M 0,-483 -1,-483.999 0,-485 h 1 v 1.001 0.999 z m 0,-4 -1,-0.999 1,-1.001 h 1 v 1.001 0.999 z m 0,-4.999 H -1 L 0,-493 h 1 v 1.001 L 0,-491 Z m 0,-4 -1,-1.001 h 1 v -0.999 L 1,-497 v 1.001 L 0,-495 Z m 0,-4 -1,-1 h 1 v -1 l 1,1 v 1 z M 0,-504 -1,-504.999 0,-506 h 1 v 1.001 0.999 z m 0,-4 -1,-0.999 1,-1.001 h 1 v 1.001 0.999 z m 0,-4 -1,-0.999 1,-1.001 h 1 v 1.001 0.999 z m 0,-4.999 H -1 L 0,-518 h 1 v 1.001 L 0,-516 Z m 0,-4 -1,-1 h 1 v -1 l 1,1 v 1 L 0,-520 Z M 0,-525 -1,-525.999 H 0 V -527 l 1,1.001 V -525 Z m 0,-4 -1,-0.999 1,-1.001 h 1 v 1.001 0.999 z m 0,-4 -1,-0.999 1,-1.001 h 1 v 1.001 0.999 z m 0,-4 -1,-0.999 1,-1.001 h 1 v 1.001 0.999 z m 0,-4.999 h -1 l 1,-1 h 1 v 1 L 0,-541 Z M 0,-546 -1,-546.999 H 0 V -548 l 1,1.001 V -546 l -1,1.001 z m 0,-4 -1,-0.999 H 0 V -552 l 1,1.001 V -550 Z m 0,-4 -1,-0.999 1,-1.001 h 1 v 1.001 0.999 z m 0,-4 -1,-0.999 1,-1.001 h 1 v 1.001 0.999 z m 0,-4 -1,-0.999 1,-1.001 h 1 v 1.001 0.999 z m 0,-5 h -1 l 1,-0.999 H 1 V -567 l -1,1.001 z m 0,-4 -1,-0.999 H 0 V -573 l 1,1.001 V -571 Z m 0,-4 -1,-0.999 H 0 V -577 l 1,1.001 V -575 Z m 0,-4 -1,-0.999 1,-1.001 h 1 v 1.001 0.999 z m 0,-4 -1,-0.999 1,-1.001 h 1 v 1.001 0.999 z m 0,-3.999 -1,-1 1,-1 h 1 v 1 1 z M 0,-592 h -1 l 1,-0.999 H 1 V -592 l -1,1.001 z m 0,-4 -1,-0.999 H 0 V -598 l 1,1.001 V -596 Z m 0,-4 -1,-0.999 H 0 V -602 l 1,1.001 V -600 Z m 0,-4 -1,-0.999 1,-1.001 h 1 v 1.001 0.999 z m 0,-4 -1,-0.999 1,-1 h 1 v 1 0.999 z m 0,-5 h -1 l 1,-0.999 H 1 V -613 l -1,1.001 z m 0,-4 h -1 l 1,-0.999 H 1 V -617 l -1,1.001 z m 0,-4 -1,-0.999 H 0 V -623 l 1,1.001 V -621 Z m 0,-4 -1,-0.999 H 0 V -627 l 1,1.001 V -625 Z m 0,-4 -1,-0.999 1,-1 h 1 v 1 0.999 z m 0,-3.999 -1,-1.001 1,-0.999 h 1 v 0.999 1.001 z M 0,-638 h -1 l 1,-0.999 H 1 V -638 l -1,1.001 z m 0,-4 h -1 l 1,-0.999 H 1 V -642 l -1,1.001 z m 0,-4 -1,-0.999 H 0 V -648 l 1,1.001 V -646 Z m 0,-4 -1,-0.999 h 1 v -1 l 1,1 V -650 Z m 0,-3.999 -1,-1.001 1,-0.999 h 1 v 0.999 1.001 z m 0,-4 -1,-1.001 1,-0.999 h 1 v 0.999 1.001 z M 0,-663 h -1 l 1,-0.999 H 1 V -663 l -1,1.001 z m 0,-4 h -1 l 1,-0.999 H 1 V -667 l -1,1.001 z m 0,-4 -1,-0.999 H 0 V -673 l 1,1.001 V -671 Z m 0,-3.999 -1,-1.001 1,-0.999 h 1 v 0.999 1.001 z m 0,-4 -1,-1.001 1,-0.999 h 1 v 0.999 1.001 z m 0,-4 -1,-1.001 1,-0.999 h 1 v 0.999 1.001 z M 0,-688 h -1 l 1,-0.999 H 1 V -688 l -1,1.001 z m 0,-4 h -1 l 1,-0.999 H 1 V -692 l -1,1.001 z m 0,-3.999 -1,-1.001 h 1 v -0.999 L 1,-697 v 1.001 z m 0,-4 -1,-1.001 1,-0.999 h 1 v 0.999 1.001 z m 0,-4 -1,-1.001 1,-0.999 h 1 v 0.999 1.001 z m 0,-4 -1,-1.001 1,-0.999 h 1 v 0.999 1.001 z M 0,-713 h -1 l 1,-0.999 H 1 V -713 l -1,1.001 z m 0,-3.999 H -1 L 0,-718 v -0.999 L 1,-718 v 1.001 l -1,1 z m 0,-4 -1,-1.001 h 1 v -0.999 L 1,-722 v 1.001 z m 0,-4 -1,-1.001 1,-0.999 h 1 v 0.999 1.001 z m 0,-4 -1,-1.001 1,-0.999 h 1 v 0.999 1.001 z m 0,-4 -1,-1.001 1,-0.999 h 1 v 0.999 1.001 z M 0,-738 h -1 l 1,-1 h 1 v 1 l -1,1.001 z m 0,-3.999 H -1 L 0,-743 v -0.999 L 1,-743 v 1.001 L 0,-741 Z m 0,-4 -1,-1.001 h 1 v -0.999 L 1,-747 v 1.001 z m 0,-4 -1,-1.001 1,-0.999 h 1 v 0.999 1.001 z m 0,-4 -1,-1.001 1,-0.999 h 1 v 0.999 1.001 z m 0,-4 -1,-1.001 1,-1 h 1 v 1 1.001 z m 0,-5 H -1 L 0,-764 h 1 v 1.001 L 0,-762 Z m 0,-4 H -1 L 0,-768 v -0.999 L 1,-768 v 1.001 L 0,-766 Z m 0,-4 -1,-1.001 h 1 v -0.999 L 1,-772 v 1.001 z m 0,-4 -1,-1.001 1,-0.999 h 1 v 0.999 1.001 z m 0,-4 -1,-1.001 1,-0.999 h 1 v 0.999 1.001 z M 0,-783 -1,-783.999 0,-785 h 1 v 1.001 0.999 z m 0,-4.999 H -1 L 0,-789 h 1 v 1.001 L 0,-787 Z m 0,-4 H -1 L 0,-793 v -0.999 L 1,-793 v 1.001 L 0,-791 Z m 0,-4 -1,-1.001 h 1 v -0.999 L 1,-797 v 1.001 z m 0,-4 -1,-1.001 1,-0.999 h 1 v 0.999 1.001 z M 0,-804 -1,-804.999 0,-806 h 1 v 1.001 0.999 z m 0,-4 -1,-0.999 1,-1.001 h 1 v 1.001 0.999 z m 0,-4.999 H -1 L 0,-814 h 1 v 1.001 L 0,-812 Z m 0,-4 -1,-1.001 h 1 v -0.999 L 1,-818 v 1.001 L 0,-816 Z m 0,-4 -1,-1.001 h 1 v -0.999 L 1,-822 v 1.001 z M 0,-825 -1,-825.999 0,-827 h 1 v 1.001 0.999 z m 0,-4 -1,-0.999 1,-1.001 h 1 v 1.001 0.999 z m 0,-4 -1,-0.999 1,-1.001 h 1 v 1.001 0.999 z m 0,-4.999 H -1 L 0,-839 h 1 v 1.001 L 0,-837 Z m 0,-4 -1,-1.001 h 1 v -0.999 L 1,-843 v 1.001 L 0,-841 Z m 0,-4 -1,-1 H 0 V -848 l 1,1.001 v 1 z M 0,-850 -1,-850.999 0,-852 h 1 v 1.001 0.999 z m 0,-4 -1,-0.999 1,-1.001 h 1 v 1.001 0.999 z m 0,-4 -1,-0.999 1,-1.001 h 1 v 1.001 0.999 z m 0,-4.999 H -1 L 0,-864 h 1 v 1.001 L 0,-862 Z m 0,-4 -1,-1.001 h 1 v -1 l 1,1 v 1.001 L 0,-866 Z M 0,-871 -1,-871.999 H 0 V -873 l 1,1.001 V -871 Z m 0,-4 -1,-0.999 1,-1.001 h 1 v 1.001 0.999 z m 0,-4 -1,-0.999 1,-1.001 h 1 v 1.001 0.999 z m 0,-4 -1,-0.999 1,-1.001 h 1 v 1.001 0.999 z m 0,-4.999 H -1 L 0,-889 h 1 v 1.001 L 0,-887 Z M 0,-892 -1,-892.999 H 0 V -894 l 1,1.001 V -892 Z m 0,-4 -1,-0.999 H 0 V -898 l 1,1.001 V -896 Z m 0,-4 -1,-0.999 1,-1.001 h 1 v 1.001 0.999 z m 0,-4 -1,-0.999 1,-1.001 h 1 v 1.001 0.999 z m 0,-4 -1,-0.999 1,-1.001 h 1 v 1.001 0.999 z m 0,-5 h -1 l 1,-0.999 H 1 V -913 l -1,1.001 z m 0,-4 -1,-0.999 H 0 V -919 l 1,1.001 V -917 Z m 0,-4 -1,-0.999 H 0 V -923 l 1,1.001 V -921 Z m 0,-4 -1,-0.999 1,-1.001 h 1 v 1.001 0.999 z m 0,-4 -1,-0.999 1,-1.001 h 1 v 1.001 0.999 z m 0,-5 h -1 l 1,-0.999 H 1 V -934 l -1,1 z m 0,-4 h -1 l 1,-0.999 H 1 V -938 l -1,1.001 z m 0,-4 -1,-0.999 H 0 V -944 l 1,1.001 V -942 Z m 0,-4 -1,-0.999 H 0 V -948 l 1,1.001 V -946 Z m 0,-4 -1,-0.999 1,-1.001 h 1 v 1.001 0.999 z m 0,-4 -1,-1 1,-0.999 h 1 v 0.999 1 z m 0,-5 h -1 l 1,-0.999 H 1 V -959 l -1,1.001 z m 0,-4 h -1 l 1,-0.999 H 1 V -963 l -1,1.001 z m 0,-4 -1,-0.999 H 0 V -969 l 1,1.001 V -967 Z m 0,-4 -1,-0.999 H 0 V -973 l 1,1.001 V -971 Z m 0,-4 -1,-0.999 1,-1 h 1 v 1 0.999 z m 0,-3.999 -1,-1.001 1,-0.999 h 1 v 0.999 1.001 z M 0,-984 h -1 l 1,-0.999 H 1 V -984 l -1,1.001 z m 0,-4 h -1 l 1,-0.999 H 1 V -988 l -1,1.001 z m 0,-4 -1,-0.999 H 0 V -994 l 1,1.001 V -992 Z m 0,-4 -1,-0.999 H 0 V -998 l 1,1.001 V -996 Z m 0,-3.999 -1,-1.001 1,-0.999 h 1 v 0.999 1.001 z m 0,-4 -1,-1.001 1,-0.999 h 1 v 0.999 1.001 z M 0,-1009 h -1 l 1,-0.999 h 1 v 0.999 l -1,1.001 z m 0,-4 h -1 l 1,-0.999 h 1 v 0.999 l -1,1.001 z m 0,-4 -1,-0.999 H 0 V -1019 l 1,1.001 v 0.999 z m 0,-3.999 -1,-1.001 1,-0.999 h 1 v 0.999 1.001 z m 0,-4 -1,-1.001 1,-0.999 h 1 v 0.999 1.001 z m 0,-4 -1,-1.001 1,-0.999 h 1 v 0.999 1.001 z M 0,-1034 h -1 l 1,-0.999 h 1 v 0.999 l -1,1.001 z m 0,-4 h -1 l 1,-0.999 h 1 v 0.999 l -1,1.001 z m 0,-3.999 -1,-1.001 h 1 v -0.999 l 1,0.999 v 1.001 z m 0,-4 -1,-1.001 1,-0.999 h 1 v 0.999 1.001 z m 0,-4 -1,-1.001 1,-0.999 h 1 v 0.999 1.001 z m 0,-4 -1,-1.001 1,-0.999 h 1 v 0.999 1.001 z M 0,-1059 h -1 l 1,-0.999 h 1 v 0.999 l -1,1.001 z m 0,-4 h -1 l 1,-1 v -0.999 l 1,0.999 v 1 l -1,1.001 z m 0,-3.999 -1,-1.001 h 1 v -0.999 l 1,0.999 v 1.001 z m 0,-4 -1,-1.001 1,-0.999 h 1 v 0.999 1.001 z m 0,-4 -1,-1.001 1,-0.999 h 1 v 0.999 1.001 z m 0,-4 -1,-1.001 1,-0.999 h 1 v 0.999 1.001 z M 0,-1084 h -1 l 1,-1 h 1 v 1 l -1,1.001 z m 0,-3.999 H -1 L 0,-1089 v -0.999 l 1,0.999 v 1.001 L 0,-1087 Z m 0,-4 -1,-1.001 h 1 v -0.999 l 1,0.999 v 1.001 z m 0,-4 -1,-1.001 1,-0.999 h 1 v 0.999 1.001 z m 0,-4 -1,-1.001 1,-0.999 h 1 v 0.999 1.001 z m 0,-4 -1,-1.001 1,-0.999 h 1 v 0.999 1.001 z m 0,-5 H -1 L 0,-1110 h 1 v 1.001 L 0,-1108 Z m 0,-4 H -1 L 0,-1114 v -0.999 l 1,0.999 v 1.001 L 0,-1112 Z m 0,-4 -1,-1.001 h 1 v -0.999 l 1,0.999 v 1.001 z m 0,-4 -1,-1.001 1,-0.999 h 1 v 0.999 1.001 z m 0,-4 -1,-1.001 1,-0.999 h 1 v 0.999 1.001 z m 0,-4.001 -1,-0.999 1,-1.001 h 1 v 1.001 0.999 z m 0,-4.999 H -1 L 0,-1135 h 1 v 1.001 L 0,-1133 Z m 0,-4 -1,-1.001 h 1 v -0.999 l 1,0.999 v 1.001 L 0,-1137 Z m 0,-4 -1,-1.001 h 1 v -0.999 l 1,0.999 v 1.001 z m 0,-4 -1,-1.001 1,-0.999 h 1 v 0.999 1.001 z m 0,-4.001 -1,-0.999 1,-1.001 h 1 v 1.001 0.999 z m 0,-4 -1,-0.999 1,-1.001 h 1 v 1.001 0.999 z m 0,-4.999 H -1 L 0,-1160 h 1 v 1.001 L 0,-1158 Z m 0,-4 -1,-1.001 h 1 v -0.999 l 1,0.999 v 1.001 L 0,-1162 Z m 0,-4 -1,-1.001 h 1 v -0.999 l 1,0.999 v 1.001 z m 0,-4 -1,-1 1,-1.001 h 1 v 1.001 1 z m 0,-4.001 -1,-0.999 1,-1.001 h 1 v 1.001 0.999 z m 0,-4 -1,-0.999 1,-1.001 h 1 v 1.001 0.999 z m 0,-4.999 H -1 L 0,-1185 h 1 v 1.001 L 0,-1183 Z m 0,-4 -1,-1.001 h 1 v -0.999 l 1,0.999 v 1.001 L 0,-1187 Z m 0,-4 -1,-1.001 h 1 v -1 l 1,1 v 1.001 z m 0,-4.001 -1,-0.999 1,-1.001 h 1 v 1.001 0.999 z m 0,-4 -1,-0.999 1,-1.001 h 1 v 1.001 0.999 z m 0,-4 -1,-0.999 1,-1.001 h 1 v 1.001 0.999 z m 0,-4.999 H -1 L 0,-1210 h 1 v 1.001 L 0,-1208 Z m 0,-4 -1,-1.001 h 1 v -1 l 1,1 v 1.001 z m 0,-4.001 -1,-0.999 H 0 V -1219 l 1,1.001 v 0.999 z m 0,-4 -1,-0.999 1,-1.001 h 1 v 1.001 0.999 z m 0,-4 -1,-0.999 1,-1.001 h 1 v 1.001 0.999 z m 0,-4 -1,-0.999 1,-1.001 h 1 v 1.001 0.999 z m 0,-4.999 H -1 L 0,-1235 h 1 v 1.001 L 0,-1233 Z m 0,-4.001 -1,-0.999 H 0 V -1240 l 1,1.001 v 0.999 z m 0,-4 -1,-0.999 H 0 V -1244 l 1,1.001 v 0.999 z m 0,-4 -1,-0.999 1,-1.001 h 1 v 1.001 0.999 z m 0,-4 -1,-0.999 1,-1.001 h 1 v 1.001 0.999 z m 0,-4.999 H -1 L 0,-1256 h 1 v 1.001 L 0,-1254 Z M 0,-1259 h -1 l 1,-0.999 h 1 v 0.999 l -1,1 z m 0,-4 -1,-0.999 H 0 V -1265 l 1,1.001 v 0.999 z m 0,-4 -1,-0.999 H 0 V -1269 l 1,1.001 v 0.999 z m 0,-4 -1,-0.999 1,-1.001 h 1 v 1.001 0.999 z m 0,-4 -1,-0.999 1,-1.001 h 1 v 1.001 0.999 z m 0,-5 h -1 l 1,-0.999 h 1 v 0.999 l -1,1 z m 0,-4 h -1 l 1,-0.999 h 1 v 0.999 l -1,1.001 z m 0,-4 -1,-0.999 H 0 V -1290 l 1,1.001 v 0.999 z m 0,-4 -1,-0.999 H 0 V -1294 l 1,1.001 v 0.999 z m 0,-4 -1,-0.999 1,-1.001 h 1 v 1.001 0.999 z m 0,-4 -1,-0.999 1,-1 h 1 v 1 0.999 z m 0,-5 h -1 l 1,-0.999 h 1 v 0.999 l -1,1.001 z m 0,-4 h -1 l 1,-0.999 h 1 v 0.999 l -1,1.001 z m 0,-4 -1,-0.999 H 0 V -1315 l 1,1.001 v 0.999 z m 0,-4 -1,-0.999 H 0 V -1319 l 1,1.001 v 0.999 z m 0,-4 -1,-0.999 1,-1.001 h 1 v 1.001 0.999 z m 0,-3.999 -1,-1.001 1,-0.999 h 1 v 0.999 1.001 z M 0,-1330 h -1 l 1,-0.999 h 1 v 0.999 l -1,1.001 z m 0,-4 h -1 l 1,-0.999 h 1 v 0.999 l -1,1.001 z m 0,-4 -1,-0.999 H 0 V -1340 l 1,1.001 v 0.999 z"
           style="fill:#000000;fill-opacity:1;fill-rule:nonzero;stroke:none"
           id="path1534" /></g></g><g
       id="g1536"
       transform="matrix(0.1199059,0,0,-0.1199189,-120.14092,203.24529)"><g
         id="g1538"
         transform="translate(4306.1948,-1669.1627)"><path
           d="M 0,0 V 0 1 H -1 L -2,0 h 1 V -1 Z M 0,5 V 5 L -1,6 V 5 h -1 l 1,-1 h 1 z m 0,4 v 0 l -1,1 V 9 h -1 l 1,-1 h 1 z m 0,4 v 0 1 h -1 l -1,-1 1,-1 h 1 z m 0,4 v 0 1 h -1 l -1,-1 1,-1 h 1 z m 0,4 v 0 1 h -1 l -1,-1 h 1 v -1 z m 0,4 v 0 1 h -1 l -1,-1 h 1 v -1 z m 0,5 v 0 l -1,1 v -1 h -1 l 1,-1 h 1 z m 0,4 v 0 l -1,1 v -1 h -1 l 1,-1 h 1 z m 0,4 v 0 1 h -1 l -1,-1 1,-1 h 1 z m 0,4 v 0 1 h -1 l -1,-1 1,-1 h 1 z m 0,4 v 0 1 h -1 l -1,-1 h 1 v -1 z m 0,4 v 0 1 h -1 l -1,-1 h 1 v -1 z m 0,5 v 0 l -1,1 v -1 h -1 l 1,-1 h 1 z m 0,4 v 0 l -1,1 v -1 h -1 l 1,-1 h 1 z m 0,4 v 0 1 h -1 l -1,-1 1,-1 h 1 z m 0,4 v 0 1 h -1 l -1,-1 1,-1 h 1 z m 0,4 v 0 1 h -1 l -1,-1 h 1 v -1 z m 0,4 v 0 1 h -1 l -1,-1 h 1 v -1 z m 0,5 v 0 l -1,1 v -1 h -1 l 1,-1 h 1 z m 0,4 v 0 l -1,1 v -1 h -1 l 1,-1 h 1 z m 0,4 v 0 1 h -1 l -1,-1 1,-1 h 1 z m 0,4 v 0 1 h -1 l -1,-1 1,-1 h 1 z m 0,4 v 0 1 h -1 l -1,-1 h 1 v -1 z m 0,4 v 0 1 h -1 l -1,-1 h 1 v -1 z m 0,5 v 0 l -1,1 v -1 h -1 l 1,-1 h 1 z m 0,4 v 0 1 h -1 l -1,-1 1,-1 h 1 z m 0,4 v 0 1 h -1 l -1,-1 1,-1 h 1 z m 0,4 v 0 1 h -1 l -1,-1 1,-1 h 1 z m 0,4 v 0 1 h -1 l -1,-1 h 1 v -1 z m 0,4 v 0 1 h -1 l -1,-1 h 1 v -1 z m 0,5 v 0 l -1,1 v -1 h -1 l 1,-1 h 1 z m 0,4 v 0 1 h -1 l -1,-1 1,-1 h 1 z m 0,4 v 0 1 h -1 l -1,-1 1,-1 h 1 z m 0,4 v 0 1 h -1 l -1,-1 1,-1 h 1 z m 0,4 v 0 1 h -1 l -1,-1 h 1 v -1 z m 0,4 v 0 1 l -1,1 v -1 l -1,-1 h 1 v -1 z m 0,5 v 0 l -1,1 v -1 h -1 l 1,-1 h 1 z m 0,4 v 0 1 h -1 l -1,-1 1,-1 h 1 z m 0,4 v 0 1 h -1 l -1,-1 1,-1 h 1 z m 0,4 v 0 1 h -1 l -1,-1 1,-1 h 1 z m 0,4 v 0 1 h -1 l -1,-1 h 1 v -1 z m 0,4 v 0 1 l -1,1 v -1 l -1,-1 h 1 v -1 z m 0,5 v 0 l -1,1 v -1 h -1 l 1,-1 h 1 z m 0,4 v 0 1 h -1 l -1,-1 1,-1 h 1 z m 0,4 v 0 1 h -1 l -1,-1 1,-1 h 1 z m 0,4 v 0 1 h -1 l -1,-1 1,-1 h 1 z m 0,4 v 0 1 h -1 l -1,-1 h 1 v -1 z m 0,4 v 0 1 l -1,1 v -1 l -1,-1 h 1 v -1 z m 0,5 v 0 l -1,1 v -1 h -1 l 1,-1 h 1 z m 0,4 v 0 1 h -1 l -1,-1 1,-1 h 1 z m 0,4 v 0 1 h -1 l -1,-1 1,-1 h 1 z m 0,4 v 0 1 h -1 l -1,-1 1,-1 h 1 z m 0,4 v 0 1 h -1 l -1,-1 h 1 v -1 z m 0,5 v 0 l -1,1 v -1 h -1 l 1,-1 v -1 l 1,1 z m 0,4 v 0 l -1,1 v -1 h -1 l 1,-1 h 1 z m 0,4 v 0 1 h -1 l -1,-1 1,-1 h 1 z m 0,4 v 0 1 h -1 l -1,-1 1,-1 h 1 z m 0,4 v 0 1 h -1 l -1,-1 1,-1 h 1 z m 0,4 v 0 1 h -1 l -1,-1 h 1 v -1 z m 0,5 v 0 l -1,1 v -1 h -1 l 1,-1 v -1 l 1,1 z m 0,4 v 0 l -1,1 v -1 h -1 l 1,-1 h 1 z m 0,4 v 0 1 h -1 l -1,-1 1,-1 h 1 z m 0,4 v 0 1 h -1 l -1,-1 1,-1 h 1 z m 0,4 v 0 1 h -1 l -1,-1 1,-1 h 1 z m 0,4 v 0 1 h -1 l -1,-1 h 1 v -1 z m 0,5 v 0 l -1,1 v -1 h -1 l 1,-1 v -1 l 1,1 z m 0,4 v 0 l -1,1 v -1 h -1 l 1,-1 h 1 z m 0,4 v 0 1 h -1 l -1,-1 1,-1 h 1 z m 0,4 v 0 1 h -1 l -1,-1 1,-1 h 1 z m 0,4 v 0 1 h -1 l -1,-1 1,-1 h 1 z m 0,4 v 0 1 h -1 l -1,-1 h 1 v -1 z m 0,5 v 0 l -1,1 v -1 h -1 l 1,-1 h 1 z m 0,4 v 0 l -1,1 v -1 h -1 l 1,-1 h 1 z m 0,4 v 0 1 h -1 l -1,-1 1,-1 h 1 z m 0,4 v 0 1 h -1 l -1,-1 1,-1 h 1 z m 0,4 v 0 1 h -1 l -1,-1 1,-1 h 1 z m 0,4 v 0 1 h -1 l -1,-1 h 1 v -1 z m 0,5 v 0 l -1,1 v -1 h -1 l 1,-1 h 1 z m 0,4 v 0 l -1,1 v -1 h -1 l 1,-1 h 1 z m 0,4 v 0 1 h -1 l -1,-1 1,-1 h 1 z m 0,4 v 0 1 h -1 l -1,-1 1,-1 h 1 z m 0,4 v 0 1 h -1 l -1,-1 h 1 v -1 z m 0,4 v 0 1 h -1 l -1,-1 h 1 v -1 z m 0,5 v 0 l -1,1 v -1 h -1 l 1,-1 h 1 z m 0,4 v 0 l -1,1 v -1 h -1 l 1,-1 h 1 z m 0,4 v 0 1 h -1 l -1,-1 1,-1 h 1 z m 0,4 v 0 1 h -1 l -1,-1 1,-1 h 1 z m 0,4 v 0 1 h -1 l -1,-1 h 1 v -1 z m 0,4 v 0 1 h -1 l -1,-1 h 1 v -1 z m 0,5 v 0 l -1,1 v -1 h -1 l 1,-1 h 1 z m 0,4 v 0 l -1,1 v -1 h -1 l 1,-1 h 1 z m 0,4 v 0 1 h -1 l -1,-1 1,-1 h 1 z m 0,4 v 0 1 h -1 l -1,-1 1,-1 h 1 z m 0,4 v 0 1 h -1 l -1,-1 h 1 v -1 z m 0,4 v 0 1 h -1 l -1,-1 h 1 v -1 z m 0,5 v 0 l -1,1 v -1 h -1 l 1,-1 h 1 z m 0,4 v 0 l -1,1 v -1 h -1 l 1,-1 h 1 z m 0,4 v 0 1 h -1 l -1,-1 1,-1 h 1 z m 0,4 v 0 1 h -1 l -1,-1 1,-1 h 1 z m 0,4 v 0 1 h -1 l -1,-1 h 1 v -1 z m 0,4 v 0 1 h -1 l -1,-1 h 1 v -1 z m 0,5 v 0 l -1,1 v -1 h -1 l 1,-1 h 1 z m 0,4 v 0 1 h -1 l -1,-1 1,-1 h 1 z m 0,4 v 0 1 h -1 l -1,-1 1,-1 h 1 z m 0,4 v 0 1 h -1 l -1,-1 1,-1 h 1 z m 0,4 v 0 1 h -1 l -1,-1 h 1 v -1 z m 0,4 v 0 1 h -1 l -1,-1 h 1 v -1 z m 0,5 v 0 l -1,1 v -1 h -1 l 1,-1 h 1 z m 0,4 v 0 1 h -1 l -1,-1 1,-1 h 1 z m 0,4 v 0 1 h -1 l -1,-1 1,-1 h 1 z m 0,4 v 0 1 h -1 l -1,-1 1,-1 h 1 z m 0,4 v 0 1 h -1 l -1,-1 h 1 v -1 z m 0,4 v 0 1 l -1,1 v -1 l -1,-1 h 1 v -1 z m 0,5 v 0 l -1,1 v -1 h -1 l 1,-1 h 1 z m 0,4 v 0 1 h -1 l -1,-1 1,-1 h 1 z m 0,4 v 0 1 h -1 l -1,-1 1,-1 h 1 z m 0,4 v 0 1 h -1 l -1,-1 1,-1 h 1 z m 0,4 v 0 1 h -1 l -1,-1 h 1 v -1 z m 0,4 v 0 1 l -1,1 v -1 l -1,-1 h 1 v -1 z m 0,5 v 0 l -1,1 v -1 h -1 l 1,-1 h 1 z m 0,4 v 0 1 h -1 l -1,-1 1,-1 h 1 z m 0,4 v 0 1 h -1 l -1,-1 1,-1 h 1 z m 0,4 v 0 1 h -1 l -1,-1 1,-1 h 1 z m 0,4 v 0 1 h -1 l -1,-1 h 1 v -1 z m 0,4 v 0 1 l -1,1 v -1 l -1,-1 h 1 v -1 z m 0,5 v 0 l -1,1 v -1 h -1 l 1,-1 h 1 z m 0,4 v 0 1 h -1 l -1,-1 1,-1 h 1 z m 0,4 v 0 1 h -1 l -1,-1 1,-1 h 1 z m 0,4 v 0 1 h -1 l -1,-1 1,-1 h 1 z m 0,4 v 0 1 h -1 l -1,-1 h 1 v -1 z m 0,5 v 0 l -1,1 v -1 h -1 l 1,-1 v -1 l 1,1 z m 0,4 v 0 l -1,1 v -1 h -1 l 1,-1 h 1 z m 0,4 v 0 1 h -1 l -1,-1 1,-1 h 1 z m 0,4 v 0 1 h -1 l -1,-1 1,-1 h 1 z m 0,4 v 0 1 h -1 l -1,-1 1,-1 h 1 z m 0,4 v 0 1 h -1 l -1,-1 h 1 v -1 z m 0,5 v 0 l -1,1 v -1 h -1 l 1,-1 v -1 l 1,1 z m 0,4 v 0 l -1,1 v -1 h -1 l 1,-1 h 1 z m 0,4 v 0 1 h -1 l -1,-1 1,-1 h 1 z m 0,4 v 0 1 h -1 l -1,-1 1,-1 h 1 z m 0,4 v 0 1 h -1 l -1,-1 1,-1 h 1 z m 0,4 v 0 1 h -1 l -1,-1 h 1 v -1 z m 0,5 v 0 l -1,1 v -1 h -1 l 1,-1 v -1 l 1,1 z m 0,4 v 0 l -1,1 v -1 h -1 l 1,-1 h 1 z m 0,4 v 0 1 h -1 l -1,-1 1,-1 h 1 z m 0,4 v 0 1 h -1 l -1,-1 1,-1 h 1 z m 0,4 v 0 1 h -1 l -1,-1 1,-1 h 1 z m 0,4 v 0 1 h -1 l -1,-1 h 1 v -1 z m 0,5 v 0 l -1,1 v -1 h -1 l 1,-1 v -1 l 1,1 z m 0,4 v 0 l -1,1 v -1 h -1 l 1,-1 h 1 z m 0,4 v 0 1 h -1 l -1,-1 1,-1 h 1 z m 0,4 v 0 1 h -1 l -1,-1 1,-1 h 1 z m 0,4 v 0 1 h -1 l -1,-1 1,-1 h 1 z m 0,4 v 0 1 h -1 l -1,-1 h 1 v -1 z m 0,5 v 0 l -1,1 v -1 h -1 l 1,-1 h 1 z m 0,4 v 0 l -1,1 v -1 h -1 l 1,-1 h 1 z m 0,4 v 0 1 h -1 l -1,-1 1,-1 h 1 z m 0,4 v 0 1 h -1 l -1,-1 1,-1 h 1 z m 0,4 v 0 1 h -1 l -1,-1 1,-1 h 1 z m 0,4 v 0 1 h -1 l -1,-1 h 1 v -1 z m 0,5 v 0 l -1,1 v -1 h -1 l 1,-1 h 1 z m 0,4 v 0 l -1,1 v -1 h -1 l 1,-1 h 1 z m 0,4 v 0 1 h -1 l -1,-1 1,-1 h 1 z m 0,4 v 0 1 h -1 l -1,-1 1,-1 h 1 z m 0,4 v 0 1 h -1 l -1,-1 h 1 v -1 z m 0,4 v 0 1 h -1 l -1,-1 h 1 v -1 z m 0,5 v 0 l -1,1 v -1 h -1 l 1,-1 h 1 z m 0,4 v 0 l -1,1 v -1 h -1 l 1,-1 h 1 z m 0,4 v 0 1 h -1 l -1,-1 1,-1 h 1 z m 0,4 v 0 1 h -1 l -1,-1 1,-1 h 1 z m 0,4 v 0 1 h -1 l -1,-1 h 1 v -1 z m 0,4 v 0 1 h -1 l -1,-1 h 1 v -1 z m 0,5 v 0 l -1,1 v -1 h -1 l 1,-1 h 1 z m 0,4 v 0 l -1,1 v -1 h -1 l 1,-1 h 1 z m 0,4 v 0 1 h -1 l -1,-1 1,-1 h 1 z m 0,4 v 0 1 h -1 l -1,-1 1,-1 h 1 z m 0,4 v 0 1 h -1 l -1,-1 h 1 v -1 z m 0,4 v 0 1 h -1 l -1,-1 h 1 v -1 z m 0,5 v 0 l -1,1 v -1 h -1 l 1,-1 h 1 z m 0,4 v 0 1 h -1 l -1,-1 1,-1 h 1 z m 0,4 v 0 1 h -1 l -1,-1 1,-1 h 1 z m 0,4 v 0 1 h -1 l -1,-1 1,-1 h 1 z m 0,4 v 0 1 h -1 l -1,-1 h 1 v -1 z m 0,4 v 0 1 h -1 l -1,-1 h 1 v -1 z m 0,5 v 0 l -1,1 v -1 h -1 l 1,-1 h 1 z m 0,4 v 0 1 h -1 l -1,-1 1,-1 h 1 z m 0,4 v 0 1 h -1 l -1,-1 1,-1 h 1 z m 0,4 v 0 1 h -1 l -1,-1 1,-1 h 1 z m 0,4 v 0 1 h -1 l -1,-1 h 1 v -1 z m 0,4 v 0 1 l -1,1 v -1 l -1,-1 h 1 v -1 z m 0,5 v 0 l -1,1 v -1 h -1 l 1,-1 h 1 z m 0,4 v 0 1 h -1 l -1,-1 1,-1 h 1 z m 0,4 v 0 1 h -1 l -1,-1 1,-1 h 1 z m 0,4 v 0 1 h -1 l -1,-1 1,-1 h 1 z m 0,4 v 0 1 h -1 l -1,-1 h 1 v -1 z m 0,4 v 0 1 l -1,1 v -1 l -1,-1 h 1 v -1 z m 0,5 v 0 l -1,1 v -1 h -1 l 1,-1 h 1 z m 0,4 v 0 1 h -1 l -1,-1 1,-1 h 1 z m 0,4 v 0 1 h -1 l -1,-1 1,-1 h 1 z m 0,4 v 0 1 h -1 l -1,-1 1,-1 h 1 z m 0,4 v 0 1 h -1 l -1,-1 h 1 v -1 z m 0,4 v 0 1 l -1,1 v -1 l -1,-1 h 1 v -1 z m 0,5 v 0 l -1,1 v -1 h -1 l 1,-1 h 1 z m 0,4 v 0 1 h -1 l -1,-1 1,-1 h 1 z m 0,4 v 0 1 h -1 l -1,-1 1,-1 h 1 z m 0,4 v 0 1 h -1 l -1,-1 1,-1 h 1 z m 0,4 v 0 1 h -1 l -1,-1 h 1 v -1 z m 0,5 v 0 l -1,1 v -1 h -1 l 1,-1 v -1 l 1,1 z m 0,4 v 0 l -1,1 v -1 h -1 l 1,-1 h 1 z m 0,4 v 0 1 h -1 l -1,-1 1,-1 h 1 z m 0,4 v 0 1 h -1 l -1,-1 1,-1 h 1 z m 0,4 v 0 1 h -1 l -1,-1 1,-1 h 1 z m 0,4 v 0 1 h -1 l -1,-1 h 1 v -1 z m 0,5 v 0 l -1,1 v -1 h -1 l 1,-1 v -1 l 1,1 z m 0,4 v 0 l -1,1 v -1 h -1 l 1,-1 h 1 z m 0,4 v 0 1 h -1 l -1,-1 1,-1 h 1 z m 0,4 v 0 1 h -1 l -1,-1 1,-1 h 1 z m 0,4 v 0 1 h -1 l -1,-1 1,-1 h 1 z m 0,4 v 0 1 h -1 l -1,-1 h 1 v -1 z m 0,5 v 0 l -1,1 v -1 h -1 l 1,-1 v -1 l 1,1 z m 0,4 v 0 l -1,1 v -1 h -1 l 1,-1 h 1 z m 0,4 v 0 1 h -1 l -1,-1 1,-1 h 1 z m 0,4 v 0 1 h -1 l -1,-1 1,-1 h 1 z m 0,4 v 0 1 h -1 l -1,-1 1,-1 h 1 z m 0,4 v 0 1 h -1 l -1,-1 h 1 v -1 z m 0,5 v 0 l -1,1 v -1 h -1 l 1,-1 v -1 l 1,1 z m 0,4 v 0 l -1,1 v -1 h -1 l 1,-1 h 1 z m 0,4 v 0 1 h -1 l -1,-1 1,-1 h 1 z m 0,4 v 0 1 h -1 l -1,-1 1,-1 h 1 z m 0,4 v 0 1 h -1 l -1,-1 1,-1 h 1 z m 0,4 v 0 1 h -1 l -1,-1 h 1 v -1 z m 0,5 v 0 l -1,1 v -1 h -1 l 1,-1 h 1 z m 0,4 v 0 l -1,1 v -1 h -1 l 1,-1 h 1 z m 0,4 v 0 1 h -1 l -1,-1 1,-1 h 1 z m 0,4 v 0 1 h -1 l -1,-1 1,-1 h 1 z m 0,4 v 0 1 h -1 l -1,-1 1,-1 h 1 z m 0,4 v 0 1 h -1 l -1,-1 h 1 v -1 z m 0,5 v 0 l -1,1 v -1 h -1 l 1,-1 h 1 z m 0,4 v 0 l -1,1 v -1 h -1 l 1,-1 h 1 z m 0,4 v 0 1 h -1 l -1,-1 1,-1 h 1 z m 0,4 v 0 1 h -1 l -1,-1 1,-1 h 1 z m 0,4 v 0 1 h -1 l -1,-1 h 1 v -1 z m 0,4 v 0 1 h -1 l -1,-1 h 1 v -1 z m 0,5 v 0 l -1,1 v -1 h -1 l 1,-1 h 1 z m 0,4 v 0 l -1,1 v -1 h -1 l 1,-1 h 1 z m 0,4 v 0 1 h -1 l -1,-1 1,-1 h 1 z m 0,4 v 0 1 h -1 l -1,-1 1,-1 h 1 z m 0,4 v 0 1 h -1 l -1,-1 h 1 v -1 z m 0,4 v 0 1 h -1 l -1,-1 h 1 v -1 z m 0,5 v 0 l -1,1 v -1 h -1 l 1,-1 h 1 z m 0,4 v 0 l -1,1 v -1 h -1 l 1,-1 h 1 z m 0,4 v 0 1 h -1 l -1,-1 1,-1 h 1 z m 0,4 v 0 1 h -1 l -1,-1 1,-1 h 1 z m 0,4 v 0 1 h -1 l -1,-1 h 1 v -1 z m 0,4 v 0 1 h -1 l -1,-1 h 1 v -1 z m 0,5 v 0 l -1,1 v -1 h -1 l 1,-1 h 1 z m 0,4 v 0 1 h -1 l -1,-1 1,-1 h 1 z m 0,4 v 0 1 h -1 l -1,-1 1,-1 h 1 z m 0,4 v 0 1 h -1 l -1,-1 1,-1 h 1 z m 0,4 v 0 1 h -1 l -1,-1 h 1 v -1 z m 0,4 v 0 1 h -1 l -1,-1 h 1 v -1 z m 0,5 v 0 l -1,1 v -1 h -1 l 1,-1 h 1 z m 0,4 v 0 1 h -1 l -1,-1 1,-1 h 1 z m 0,4 v 0 1 h -1 l -1,-1 1,-1 h 1 z m 0,4 v 0 1 h -1 l -1,-1 1,-1 h 1 z m 0,4 v 0 1 h -1 l -1,-1 h 1 v -1 z m 0,4 v 0 1 l -1,1 v -1 l -1,-1 h 1 v -1 z m 0,5 v 0 l -1,1 v -1 h -1 l 1,-1 h 1 z m 0,4 v 0 1 h -1 l -1,-1 1,-1 h 1 z m 0,4 v 0 1 h -1 l -1,-1 1,-1 h 1 z m 0,4 v 0 1 h -1 l -1,-1 1,-1 h 1 z m 0,4 v 0 1 h -1 l -1,-1 h 1 v -1 z m 0,4 v 0 1 l -1,1 v -1 l -1,-1 h 1 v -1 z m 0,5 v 0 l -1,1 v -1 h -1 l 1,-1 h 1 z m 0,4 v 0 1 h -1 l -1,-1 1,-1 h 1 z m 0,4 v 0 1 h -1 l -1,-1 1,-1 h 1 z m 0,4 v 0 1 h -1 l -1,-1 1,-1 h 1 z m 0,4 v 0 1 h -1 l -1,-1 h 1 v -1 z m 0,4 v 0 1 l -1,1 v -1 l -1,-1 h 1 v -1 z m 0,5 v 0 l -1,1 v -1 h -1 l 1,-1 h 1 z m 0,4 v 0 1 h -1 l -1,-1 1,-1 h 1 z m 0,4 v 0 1 h -1 l -1,-1 1,-1 h 1 z m 0,4 v 0 1 h -1 l -1,-1 1,-1 h 1 z m 0,4 v 0 1 h -1 l -1,-1 h 1 v -1 z m 0,5 v 0 l -1,1 v -1 h -1 l 1,-1 v -1 l 1,1 z m 0,4 v 0 l -1,1 v -1 h -1 l 1,-1 h 1 z m 0,4 v 0 1 h -1 l -1,-1 1,-1 h 1 z m 0,4 v 0 1 h -1 l -1,-1 1,-1 h 1 z m 0,4 v 0 1 h -1 l -1,-1 1,-1 h 1 z m 0,4 v 0 1 h -1 l -1,-1 h 1 v -1 z m 0,5 v 0 l -1,1 v -1 h -1 l 1,-1 v -1 l 1,1 z m 0,4 v 0 l -1,1 v -1 h -1 l 1,-1 h 1 z m 0,4 v 0 1 h -1 l -1,-1 1,-1 h 1 z m 0,4 v 0 1 h -1 l -1,-1 1,-1 h 1 z m 0,4 v 0 1 h -1 l -1,-1 1,-1 h 1 z m 0,4 v 0 1 h -1 l -1,-1 h 1 v -1 z m 0,5 v 0 l -1,1 v -1 h -1 l 1,-1 v -1 l 1,1 z m 0,4 v 0 l -1,1 v -1 h -1 l 1,-1 h 1 z m 0,4 v 0 1 h -1 l -1,-1 1,-1 h 1 z m 0,4 v 0 1 h -1 l -1,-1 1,-1 h 1 z m 0,4 v 0 1 h -1 l -1,-1 1,-1 h 1 z m 0,4 v 0 1 h -1 l -1,-1 h 1 v -1 z m 0,5 v 0 l -1,1 v -1 h -1 l 1,-1 h 1 z m 0,4 v 0 l -1,1 v -1 h -1 l 1,-1 h 1 z m 0,4 v 0 1 h -1 l -1,-1 1,-1 h 1 z m 0,4 v 0 1 h -1 l -1,-1 1,-1 h 1 z m 0,4 v 0 1 h -1 l -1,-1 1,-1 h 1 z m 0,4 v 0 1 h -1 l -1,-1 h 1 v -1 z m 0,5 v 0 l -1,1 v -1 h -1 l 1,-1 h 1 z m 0,4 v 0 l -1,1 v -1 h -1 l 1,-1 h 1 z m 0,4 v 0 1 h -1 l -1,-1 1,-1 h 1 z m 0,4 v 0 1 h -1 l -1,-1 1,-1 h 1 z m 0,4 v 0 1 h -1 l -1,-1 h 1 v -1 z m 0,4 v 0 1 h -1 l -1,-1 h 1 v -1 z m 0,5 v 0 l -1,1 v -1 h -1 l 1,-1 h 1 z m 0,4 v 0 l -1,1 v -1 h -1 l 1,-1 h 1 z m 0,4 v 0 1 h -1 l -1,-1 1,-1 h 1 z m 0,4 v 0 1 h -1 l -1,-1 1,-1 h 1 z m 0,4 v 0 1 h -1 l -1,-1 h 1 v -1 z m 0,4 v 0 1 h -1 l -1,-1 h 1 v -1 z m 0,5 v 0 l -1,1 v -1 h -1 l 1,-1 h 1 z"
           style="fill:none;stroke:#000000;stroke-width:1;stroke-linecap:square;stroke-linejoin:miter;stroke-miterlimit:10;stroke-dasharray:none;stroke-opacity:1"
           id="path1540" /></g></g><g
       id="g1542"
       transform="matrix(0.1199059,0,0,-0.1199189,-120.14092,203.24529)"><g
         id="g1544"
         transform="translate(4996.1948,-635.1628)"><path
           d="M 0,0 H -3 L -5.001,-0.999 -8,-2 l -2,-2 -2,-2 -690,-1005 -1.001,-2 -0.999,-3.001 v -2 -2.999 -2.999 l 2,-2.001 0.999,-2 3.001,-2 2,-2 h 3 l 2,-1 3,1 h 3 l 2,2 2,1 2,2 690,1005.001 2,1.998 0.999,3.001 v 3 2 L 13,-9 l -1,2 -2,3 -2,1.001 -3,2 L 3,0 Z"
           style="fill:#ccccff;fill-opacity:1;fill-rule:nonzero;stroke:none"
           id="path1546" /></g></g><g
       id="g1548"
       transform="matrix(0.1199059,0,0,-0.1199189,-120.14089,203.24529)"><g
         id="g1550"
         transform="translate(4298.1948,-1665.1627)"><path
           d="m 0,0 -3,2 -1,2 -2,2 v 3 3 2 l 1,3 1,2 690,1005 2,2 2,2 3,1 2,1 h 3 3 l 2,-1 3,-2 2,-1 2,-3 1,-2 1,-3 v -2 -3 l -1,-3 -2,-2 L 19,3 17,1 15,0 13,-2 H 10 L 7,-3 5,-2 H 2 L 0,0"
           style="fill:none;stroke:#000000;stroke-width:2;stroke-linecap:square;stroke-linejoin:miter;stroke-miterlimit:10;stroke-dasharray:none;stroke-opacity:1"
           id="path1552" /></g></g><g
       id="g1554"
       transform="matrix(0.1199059,0,0,-0.1199189,-120.14092,203.24529)"><g
         id="g1556"
         transform="translate(4975.1948,-564.1626)"><path
           d="m 0,0 -38,-53 9,-56 46,-34 56,9 38,53 -8,56 -47.001,34 z"
           style="fill:#808080;fill-opacity:1;fill-rule:nonzero;stroke:none"
           id="path1558" /></g></g><g
       id="g1560"
       transform="matrix(0.1199059,0,0,-0.1199189,-120.14089,203.24529)"><g
         id="g1562"
         transform="translate(4946.1948,-673.1627)"><path
           d="m 0,0 -9,56 38,53 56,9 47,-34 8,-56 -38,-53 -56,-9 z"
           style="fill:none;stroke:#000000;stroke-width:2;stroke-linecap:square;stroke-linejoin:miter;stroke-miterlimit:10;stroke-dasharray:none;stroke-opacity:1"
           id="path1564" /></g></g><g
       id="g1566"
       transform="matrix(0.1199059,0,0,-0.1199189,-120.14092,203.24529)"><g
         id="g1568"
         transform="translate(4305.1948,-448.1627)"><path
           d="M 0,0 H 1036"
           style="fill:none;stroke:#000000;stroke-width:2;stroke-linecap:square;stroke-linejoin:miter;stroke-miterlimit:10;stroke-dasharray:none;stroke-opacity:1"
           id="path1570" /></g></g><g
       id="g1572"
       transform="matrix(0.1199059,0,0,-0.1199189,-120.14092,203.24529)"><g
         id="g1574"
         transform="translate(4993.1943,-314.1629)"><path
           d="m 0,0 h 12 v -313 l 1.001,-2 0.999,-1 1.001,-1 H 17 18 l 2,1 v 1 l 1,2 V 0 H 33 L 17,33 Z"
           style="fill:#000000;fill-opacity:1;fill-rule:nonzero;stroke:none"
           id="path1576" /></g></g><g
       id="g1578"
       transform="matrix(0.1199059,0,0,-0.1199189,-120.14092,203.24529)"><g
         id="g1580"
         transform="translate(5014.1948,-627.1627)"><path
           d="m 0,0 v 321 l -1,2 v 1 l -2,1 h -1 -2 l -1,-1 -1,-1 -1,-2 V 0 l 1,-2 1,-1 1,-1 h 2 1 l 2,1 v 1 z m 12,313 -16,33 -17,-33 z"
           style="fill:none;stroke:#000000;stroke-width:1;stroke-linecap:square;stroke-linejoin:miter;stroke-miterlimit:10;stroke-dasharray:none;stroke-opacity:1"
           id="path1582" /></g></g><g
       id="g1584"
       transform="matrix(0.1199059,0,0,-0.1199189,-120.14092,203.24529)"><g
         id="g1586"
         transform="translate(4978.1943,-414.1633)"><path
           d="M 0,0 H -637 V 12 L -671,-4.999 -637,-21 V -9 H 0 V -21 L 34,-4.999 0,12 Z"
           style="fill:#000000;fill-opacity:1;fill-rule:nonzero;stroke:none"
           id="path1588" /></g></g><g
       id="g1590"
       transform="matrix(0.1199059,0,0,-0.1199189,-120.14092,203.24529)"><g
         id="g1592"
         transform="translate(4332.1948,-423.1627)"><path
           d="m 0,0 h 655 l 1,1 h 2 v 2 l 1,1 -1,2 v 1 l -2,1 -1,1 H 0 L -1,8 -2,7 -3,6 -4,4 -3,3 -2,1 h 1 z M 9,21 -25,4 9,-12 Z m 637,-33 34,16 -34,17 z"
           style="fill:none;stroke:#000000;stroke-width:1;stroke-linecap:square;stroke-linejoin:miter;stroke-miterlimit:10;stroke-dasharray:none;stroke-opacity:1"
           id="path1594" /></g></g><g
       id="g1596"
       transform="matrix(0.1199059,0,0,-0.1199189,-120.14092,203.24529)"><g
         id="g1598"
         transform="translate(4307.1948,-1460.1627)"><path
           d="m 0,0 15,-1 14,-1 14,-2 14,-2 12,-3 12,-4 6,-2 5,-2 5,-3 5,-2"
           style="fill:none;stroke:#000000;stroke-width:2;stroke-linecap:square;stroke-linejoin:miter;stroke-miterlimit:10;stroke-dasharray:none;stroke-opacity:1"
           id="path1600" /></g></g><g
       id="g1602"
       transform="translate(-120.14095,203.24529)"><g
         id="g1604"
         clip-path="url(#clipPath1608-1)"><text
           transform="matrix(0.9486845,0,-0.31622417,-0.9487804,520.2953,167.0665)"
           style="font-variant:normal;font-weight:normal;font-stretch:normal;font-size:8.34187px;font-family:Symbol;-inkscape-font-specification:SymbolMT;writing-mode:lr-tb;fill:#000000;fill-opacity:1;fill-rule:nonzero;stroke:none"
           id="text1612"><tspan
             x="0"
             y="0"
             id="tspan1610">θ</tspan></text><text
           transform="matrix(0.9486833,0,-0.31622777,-0.94878958,573.1738,41.8712)"
           style="font-variant:normal;font-weight:normal;font-stretch:normal;font-size:8.46826px;font-family:Symbol;-inkscape-font-specification:SymbolMT;writing-mode:lr-tb;fill:#000000;fill-opacity:1;fill-rule:nonzero;stroke:none"
           id="text1616"><tspan
             x="0"
             y="0"
             id="tspan1614">θ</tspan></text><text
           transform="matrix(0.9486833,0,-0.31622777,-0.94878958,549.7922,41.8712)"
           style="font-variant:normal;font-weight:normal;font-stretch:normal;font-size:8.46826px;font-family:Symbol;-inkscape-font-specification:SymbolMT;writing-mode:lr-tb;fill:#000000;fill-opacity:1;fill-rule:nonzero;stroke:none"
           id="text1620"><tspan
             x="0"
             y="0"
             id="tspan1618">θ</tspan></text><text
           transform="matrix(0.99988798,0,0,-1,568.6174,41.8712)"
           style="font-style:italic;font-variant:normal;font-weight:normal;font-stretch:normal;font-size:8.0346px;font-family:'Times New Roman';-inkscape-font-specification:TimesNewRomanPS-ItalicMT;writing-mode:lr-tb;fill:#000000;fill-opacity:1;fill-rule:nonzero;stroke:none"
           id="text1624"><tspan
             x="0"
             y="0"
             id="tspan1622">L</tspan></text><text
           transform="matrix(0.99988798,0,0,-1,531.5664,41.8712)"
           style="font-style:italic;font-variant:normal;font-weight:normal;font-stretch:normal;font-size:8.0346px;font-family:'Times New Roman';-inkscape-font-specification:TimesNewRomanPS-ItalicMT;writing-mode:lr-tb;fill:#000000;fill-opacity:1;fill-rule:nonzero;stroke:none"
           id="text1628"><tspan
             x="0"
             y="0"
             id="tspan1626">L</tspan></text><text
           transform="matrix(0.99988798,0,0,-1,559.5045,41.8712)"
           style="font-variant:normal;font-weight:normal;font-stretch:normal;font-size:8.0346px;font-family:Symbol;-inkscape-font-specification:SymbolMT;writing-mode:lr-tb;fill:#000000;fill-opacity:1;fill-rule:nonzero;stroke:none"
           id="text1632"><tspan
             x="0"
             y="0"
             id="tspan1630">≈</tspan></text><text
           transform="matrix(0.99988798,0,0,-1,538.4011,41.8712)"
           style="font-variant:normal;font-weight:normal;font-stretch:normal;font-size:8.0346px;font-family:'Times New Roman';-inkscape-font-specification:TimesNewRomanPSMT;writing-mode:lr-tb;fill:#000000;fill-opacity:1;fill-rule:nonzero;stroke:none"
           id="text1636"><tspan
             x="0 3.1174247 5.3960376"
             y="0"
             sodipodi:role="line"
             id="tspan1634">sin</tspan></text><text
           transform="matrix(0.99989892,0,0,-1,562.5022,138.6457)"
           style="font-style:italic;font-variant:normal;font-weight:normal;font-stretch:normal;font-size:7.9146px;font-family:'Times New Roman';-inkscape-font-specification:TimesNewRomanPS-ItalicMT;writing-mode:lr-tb;fill:#000000;fill-opacity:1;fill-rule:nonzero;stroke:none"
           id="text1642"><tspan
             x="0"
             y="0"
             id="tspan1638">L</tspan><tspan
             x="43.174145 48.928059"
             y="104.80513"
             sodipodi:role="line"
             id="tspan1640">mg</tspan></text></g></g><g
       id="g1644"
       transform="matrix(0.1199059,0,0,-0.1199189,-120.14092,203.24529)"><g
         id="g1646"
         transform="translate(4435.1943,-1511.1631)"><path
           d="M 0,0 H -1 L -2,-2 -3,-2.999 -2,-5 -1,-6 86.126,-96.873 77,-105.999 112,-118 101,-82 92.095,-90.904 5.001,-0.999 3,0 2,1.001 Z"
           style="fill:#000000;fill-opacity:1;fill-rule:nonzero;stroke:none"
           id="path1648" /></g></g><g
       id="g1650"
       transform="matrix(0.1199059,0,0,-0.1199189,-120.14092,203.24529)"><g
         id="g1652"
         transform="translate(4434.1948,-1517.1627)"><path
           d="m 0,0 93,-97 1,-1 h 2 1 l 2,1 1,1 v 2 1 L 99,-91 6,5 4,6 3,7 1,6 H 0 L -1,4 -2,3 -1,1 Z m 78,-100 35,-12 -11,36 z"
           style="fill:none;stroke:#000000;stroke-width:1;stroke-linecap:square;stroke-linejoin:miter;stroke-miterlimit:10;stroke-dasharray:none;stroke-opacity:1"
           id="path1654" /></g></g><g
       id="g1656"
       transform="matrix(0.1199059,0,0,-0.1199189,-120.14092,203.24529)"><g
         id="g1658"
         transform="translate(5075.1938,-717.1626)"><path
           d="M 0,0 9.059,8.681 96,-82 l 2,-1.001 h 1.001 2 L 102,-82 l 1.001,2 v 1 2 L 102,-76 15.184,14.551 24.001,23 -11,36 Z"
           style="fill:#000000;fill-opacity:1;fill-rule:nonzero;stroke:none"
           id="path1660" /></g></g><g
       id="g1662"
       transform="matrix(0.1199059,0,0,-0.1199189,-120.14092,203.24529)"><g
         id="g1664"
         transform="translate(5177.1948,-793.1627)"><path
           d="m 0,0 -93,97 -1,1 h -2 -1 l -2,-1 -1,-1 v -2 -2 l 1,-1 93,-97 2,-1 h 1 2 l 1,1 1,2 v 1 2 z m -78,99 -35,13 11,-36 z"
           style="fill:none;stroke:#000000;stroke-width:1;stroke-linecap:square;stroke-linejoin:miter;stroke-miterlimit:10;stroke-dasharray:none;stroke-opacity:1"
           id="path1666" /></g></g><g
       id="g1668"
       transform="translate(-120.14095,203.24529)"><g
         id="g1670"
         clip-path="url(#clipPath1674-7)"><text
           transform="matrix(0.99988798,0,0,-1,561.3031,190.2108)"
           style="font-variant:normal;font-weight:normal;font-stretch:normal;font-size:8.0346px;font-family:'Times New Roman';-inkscape-font-specification:TimesNewRomanPSMT;writing-mode:lr-tb;fill:#000000;fill-opacity:1;fill-rule:nonzero;stroke:none"
           id="text1678"><tspan
             x="0"
             y="0"
             id="tspan1676">)</tspan></text><text
           transform="matrix(0.99988798,0,0,-1,554.2286,190.2108)"
           style="font-variant:normal;font-weight:normal;font-stretch:normal;font-size:8.0346px;font-family:'Times New Roman';-inkscape-font-specification:TimesNewRomanPSMT;writing-mode:lr-tb;fill:#000000;fill-opacity:1;fill-rule:nonzero;stroke:none"
           id="text1682"><tspan
             x="0"
             y="0"
             id="tspan1680">(</tspan></text><text
           transform="matrix(0.99988798,0,0,-1,557.7059,190.2109)"
           style="font-style:italic;font-variant:normal;font-weight:normal;font-stretch:normal;font-size:8.0346px;font-family:'Times New Roman';-inkscape-font-specification:TimesNewRomanPS-ItalicMT;writing-mode:lr-tb;fill:#000000;fill-opacity:1;fill-rule:nonzero;stroke:none"
           id="text1686"><tspan
             x="0"
             y="0"
             id="tspan1684">t</tspan></text><text
           transform="matrix(0.99988798,0,0,-1,547.7537,190.2109)"
           style="font-style:italic;font-variant:normal;font-weight:normal;font-stretch:normal;font-size:8.0346px;font-family:'Times New Roman';-inkscape-font-specification:TimesNewRomanPS-ItalicMT;writing-mode:lr-tb;fill:#000000;fill-opacity:1;fill-rule:nonzero;stroke:none"
           id="text1690"><tspan
             x="0"
             y="0"
             id="tspan1688">F</tspan></text><text
           transform="matrix(0.9486845,0,-0.31622417,-0.9487804,623.4144,97.8733)"
           style="font-variant:normal;font-weight:normal;font-stretch:normal;font-size:8.34187px;font-family:Symbol;-inkscape-font-specification:SymbolMT;writing-mode:lr-tb;fill:#000000;fill-opacity:1;fill-rule:nonzero;stroke:none"
           id="text1694"><tspan
             x="0"
             y="0"
             id="tspan1692">θ</tspan></text><text
           transform="matrix(0.99989892,0,0,-1,628.6903,98.353)"
           style="font-variant:normal;font-weight:normal;font-stretch:normal;font-size:7.9146px;font-family:Symbol;-inkscape-font-specification:SymbolMT;writing-mode:lr-tb;fill:#000000;fill-opacity:1;fill-rule:nonzero;stroke:none"
           id="text1698"><tspan
             x="0"
             y="0"
             id="tspan1696">′</tspan></text><text
           transform="matrix(0.99989892,0,0,-1,612.0234,97.8733)"
           style="font-variant:normal;font-weight:normal;font-stretch:normal;font-size:7.9146px;font-family:Symbol;-inkscape-font-specification:SymbolMT;writing-mode:lr-tb;fill:#000000;fill-opacity:1;fill-rule:nonzero;stroke:none"
           id="text1702"><tspan
             x="0"
             y="0"
             id="tspan1700">−</tspan></text><text
           transform="matrix(0.99989892,0,0,-1,619.9371,97.8733)"
           style="font-style:italic;font-variant:normal;font-weight:normal;font-stretch:normal;font-size:7.9146px;font-family:'Times New Roman';-inkscape-font-specification:TimesNewRomanPS-ItalicMT;writing-mode:lr-tb;fill:#000000;fill-opacity:1;fill-rule:nonzero;stroke:none"
           id="text1706"><tspan
             x="0"
             y="0"
             id="tspan1704">c</tspan></text></g></g></g></svg>
