<?xml version="1.0" encoding="UTF-8" standalone="no"?>
<!-- Created with Inkscape (http://www.inkscape.org/) -->

<svg
   width="55.541534mm"
   height="52.660881mm"
   viewBox="0 0 55.541534 52.660881"
   version="1.1"
   id="svg6759"
   inkscape:version="1.1.2 (0a00cf5339, 2022-02-04)"
   sodipodi:docname="RLC.svg"
   xmlns:inkscape="http://www.inkscape.org/namespaces/inkscape"
   xmlns:sodipodi="http://sodipodi.sourceforge.net/DTD/sodipodi-0.dtd"
   xmlns="http://www.w3.org/2000/svg"
   xmlns:svg="http://www.w3.org/2000/svg">
  <sodipodi:namedview
     id="namedview6761"
     pagecolor="#ffffff"
     bordercolor="#666666"
     borderopacity="1.0"
     inkscape:pageshadow="2"
     inkscape:pageopacity="0.0"
     inkscape:pagecheckerboard="0"
     inkscape:document-units="mm"
     showgrid="false"
     fit-margin-top="0"
     fit-margin-left="0"
     fit-margin-right="0"
     fit-margin-bottom="0"
     inkscape:zoom="0.75366162"
     inkscape:cx="-238.83398"
     inkscape:cy="131.35869"
     inkscape:window-width="1920"
     inkscape:window-height="1031"
     inkscape:window-x="0"
     inkscape:window-y="25"
     inkscape:window-maximized="1"
     inkscape:current-layer="layer1" />
  <defs
     id="defs6756">
    <clipPath
       clipPathUnits="userSpaceOnUse"
       id="clipPath1072">
      <path
         d="M 117.96,54.24 H 278.759 V 218.279 H 117.96 Z"
         id="path1070" />
    </clipPath>
    <clipPath
       clipPathUnits="userSpaceOnUse"
       id="clipPath1102">
      <path
         d="M 117.96,54.24 H 278.759 V 218.279 H 117.96 Z"
         id="path1100" />
    </clipPath>
  </defs>
  <g
     inkscape:label="Layer 1"
     inkscape:groupmode="layer"
     id="layer1"
     transform="translate(-165.6654,-113.74402)">
    <g
       id="g1066"
       transform="matrix(0.35277777,0,0,-0.35277777,122.86696,187.06224)">
      <g
         id="g1068"
         clip-path="url(#clipPath1072)">
        <text
           transform="matrix(0.97464714,0,0,-1,156.6987,60.2516)"
           style="font-variant:normal;font-weight:normal;font-stretch:normal;font-size:7.9636px;font-family:'Times New Roman';-inkscape-font-specification:TimesNewRomanPSMT;writing-mode:lr-tb;fill:#000000;fill-opacity:1;fill-rule:nonzero;stroke:none"
           id="text1076"><tspan
             x="0"
             y="0"
             id="tspan1074">)</tspan></text>
        <text
           transform="matrix(0.97464714,0,0,-1,149.9072,60.2516)"
           style="font-variant:normal;font-weight:normal;font-stretch:normal;font-size:7.9636px;font-family:'Times New Roman';-inkscape-font-specification:TimesNewRomanPSMT;writing-mode:lr-tb;fill:#000000;fill-opacity:1;fill-rule:nonzero;stroke:none"
           id="text1080"><tspan
             x="0"
             y="0"
             id="tspan1078">(</tspan></text>
        <text
           transform="matrix(0.97464714,0,0,-1,153.2423,60.2516)"
           style="font-style:italic;font-variant:normal;font-weight:normal;font-stretch:normal;font-size:7.9636px;font-family:'Times New Roman';-inkscape-font-specification:TimesNewRomanPS-ItalicMT;writing-mode:lr-tb;fill:#000000;fill-opacity:1;fill-rule:nonzero;stroke:none"
           id="text1084"><tspan
             x="0"
             y="0"
             id="tspan1082">t</tspan></text>
        <text
           transform="matrix(0.97464714,0,0,-1,143.9039,60.2516)"
           style="font-style:italic;font-variant:normal;font-weight:normal;font-stretch:normal;font-size:7.9636px;font-family:'Times New Roman';-inkscape-font-specification:TimesNewRomanPS-ItalicMT;writing-mode:lr-tb;fill:#000000;fill-opacity:1;fill-rule:nonzero;stroke:none"
           id="text1088"><tspan
             x="0"
             y="0"
             id="tspan1086">E</tspan></text>
      </g>
    </g>
    <g
       id="g1090"
       transform="matrix(0.2632856,0,0,0.26338057,122.86696,187.06225)">
      <g
         id="g1092"
         transform="translate(191.0552,-103.369)">
        <path
           d="M 0,0 H -28 V -163 H 5 l 4,-6 4,10 4,-10 3,11 3,-11 3,11 3,-11 3,11 4,-11 3,11 2,-6 h 67"
           style="fill:none;stroke:#000000;stroke-width:1;stroke-linecap:square;stroke-linejoin:miter;stroke-miterlimit:10;stroke-dasharray:none;stroke-opacity:1"
           id="path1094" />
      </g>
    </g>
    <g
       id="g1096"
       transform="matrix(0.35277777,0,0,-0.35277777,122.86696,187.06224)">
      <g
         id="g1098"
         clip-path="url(#clipPath1102)">
        <g
           id="g1104"
           transform="matrix(0.7463214,0,0,-0.7465906,7.6e-6,0)">
          <g
             id="g1106"
             transform="translate(192.0552,-103.869)">
            <path
               d="m 0,0 c 0,-6.389 4.889,-11.5 11,-11.5 6.111,0 11,5.111 11,11.5 C 22,6.389 17.111,11.5 11,11.5 4.889,11.5 0,6.389 0,0"
               style="fill:#ffffff;fill-opacity:1;fill-rule:evenodd;stroke:none"
               id="path1108" />
          </g>
        </g>
        <g
           id="g1110"
           transform="matrix(0.7463214,0,0,-0.7465906,7.6e-6,0)">
          <g
             id="g1112"
             transform="translate(192.0552,-103.869)">
            <path
               d="m 0,0 c 0,-6.389 4.889,-11.5 11,-11.5 6.111,0 11,5.111 11,11.5 C 22,6.389 17.111,11.5 11,11.5 4.889,11.5 0,6.389 0,0 Z"
               style="fill:none;stroke:#000000;stroke-width:1;stroke-linecap:square;stroke-linejoin:miter;stroke-miterlimit:10;stroke-dasharray:none;stroke-opacity:1"
               id="path1114" />
          </g>
        </g>
        <g
           id="g1116"
           transform="matrix(0.7463214,0,0,-0.7465906,1.53e-5,1.53e-5)">
          <g
             id="g1118"
             transform="translate(214.0552,-103.369)">
            <path
               d="M 0,0 H 84"
               style="fill:none;stroke:#000000;stroke-width:1;stroke-linecap:square;stroke-linejoin:miter;stroke-miterlimit:10;stroke-dasharray:none;stroke-opacity:1"
               id="path1120" />
          </g>
        </g>
        <g
           id="g1122"
           transform="matrix(0.7463214,0,0,-0.7465906,2.29e-5,3.05e-5)">
          <g
             id="g1124"
             transform="translate(300.0552,-275.369)">
            <path
               d="M 0,0 V 16"
               style="fill:none;stroke:#000000;stroke-width:1;stroke-linecap:square;stroke-linejoin:miter;stroke-miterlimit:10;stroke-dasharray:none;stroke-opacity:1"
               id="path1126" />
          </g>
        </g>
        <g
           id="g1128"
           transform="matrix(0.7463214,0,0,-0.7465906,3.05e-5,4.58e-5)">
          <g
             id="g1130"
             transform="translate(305.0552,-275.369)">
            <path
               d="m 0,0 c -1,2 -2,5 -2,8 0,3 1,6 3,8"
               style="fill:none;stroke:#000000;stroke-width:1;stroke-linecap:square;stroke-linejoin:miter;stroke-miterlimit:10;stroke-dasharray:none;stroke-opacity:1"
               id="path1132" />
          </g>
        </g>
        <g
           id="g1134"
           transform="matrix(0.5569956,0,0,0.5573976,89.599831,245.15732)">
          <g
             id="g1136"
             transform="translate(247.8825,-70.9894)">
            <path
               d="m 0,0 c -1.34,-2.679 -2.68,-6.697 -2.68,-10.715 0,-4.019 1.34,-8.037 4.02,-10.716 l 22.778,10.716 m 29.055,-14.665 14,-7 h 32 v -53"
               style="fill:none;stroke:#000000;stroke-width:1;stroke-linecap:square;stroke-linejoin:miter;stroke-miterlimit:10;stroke-dasharray:none;stroke-opacity:1"
               id="path1138" />
          </g>
        </g>
        <g
           id="g1140"
           transform="matrix(0.5569956,0,0,0.5573976,89.599823,245.15732)">
          <g
             id="g1142"
             transform="translate(303.0552,-267.369)">
            <path
               d="M 0,0 H 44 V 49"
               style="fill:none;stroke:#000000;stroke-width:1;stroke-linecap:square;stroke-linejoin:miter;stroke-miterlimit:10;stroke-dasharray:none;stroke-opacity:1"
               id="path1144" />
          </g>
        </g>
        <g
           id="g1146"
           transform="matrix(0.5569956,0,0,0.5573976,89.599823,245.15732)">
          <g
             id="g1148"
             transform="translate(347.0552,-156.369)">
            <path
               d="m 0,0 c 4,-1 5,-1 6,-4 v -5 c -1,-2 -5,-3 -7,-3 1,2 2,1 4,1 1,-1 3,-2 4,-3 0,-2 1,-4 2,-5 0,-4 -1,-5 -5,-6 -4,0 -8,1 -3,2 l 4,-2 c 0,-3 3,-4 4,-6 0,-1 0,-3 -1,-4 -1,0 -2,-1 -2,-1 -3,1 -6,0 -8,1 -1,0 1,1 1,1 1,0 4,-1 4,-1 1,-1 2,-3 4,-4 0,-1 1,-4 -1,-5 -1,-1 -3,-1 -4,-1 -1,0 -3,-1 -3,-1 -5,1 -2,1 0,2 2,-1 3,-1 4,-2 1,-1 2,-3 2,-3 -1,-2 0,-2 -1,-3 -1,-1 -3,-2 -3,-2 -2,1 -7,1 -3,2 h 5 c 1,0 3,-3 3,-3 -1,-1 -1,-2 -2,-3 l -2,-2 c -1,-1 -1,-1 -2,-1"
               style="fill:none;stroke:#000000;stroke-width:1;stroke-linecap:square;stroke-linejoin:miter;stroke-miterlimit:10;stroke-dasharray:none;stroke-opacity:1"
               id="path1150" />
          </g>
        </g>
        <g
           id="g1152"
           transform="matrix(0.5569956,0,0,0.5573976,89.599823,245.15732)">
          <g
             id="g1154"
             transform="translate(163.0552,-198.369)">
            <path
               d="M 0,0 V 0"
               style="fill:none;stroke:#000000;stroke-width:1;stroke-linecap:square;stroke-linejoin:miter;stroke-miterlimit:10;stroke-dasharray:none;stroke-opacity:1"
               id="path1156" />
          </g>
        </g>
        <g
           id="g1158"
           transform="matrix(0.5569956,0,0,0.5573976,89.599823,245.15732)">
          <g
             id="g1160"
             transform="translate(169.0552,-187.369)">
            <path
               d="M 0,0 -5,-11 -11,0 Z"
               style="fill:#000000;fill-opacity:1;fill-rule:evenodd;stroke:none"
               id="path1162" />
          </g>
        </g>
        <text
           transform="scale(1.0039363,-0.99607909)"
           style="font-style:italic;font-variant:normal;font-weight:normal;font-stretch:normal;font-size:5.969px;font-family:'Times New Roman';-inkscape-font-specification:TimesNewRomanPS-ItalicMT;writing-mode:lr-tb;fill:#000000;fill-opacity:1;fill-rule:nonzero;stroke:none;stroke-width:0.996079"
           id="text1166"
           x="197.58704"
           y="-138.10118"><tspan
             x="197.58704"
             y="-138.10118"
             id="tspan1164"
             style="stroke-width:0.996079">Q</tspan></text>
        <text
           transform="scale(1.0039363,-0.99607909)"
           style="font-style:italic;font-variant:normal;font-weight:normal;font-stretch:normal;font-size:5.969px;font-family:'Times New Roman';-inkscape-font-specification:TimesNewRomanPS-ItalicMT;writing-mode:lr-tb;fill:#000000;fill-opacity:1;fill-rule:nonzero;stroke:none;stroke-width:0.996079"
           id="text1170"
           x="185.18266"
           y="-138.10118"><tspan
             x="185.18266"
             y="-138.10118"
             id="tspan1168"
             style="stroke-width:0.996079">I</tspan></text>
        <text
           transform="matrix(1,0,0,0.99217355,202.7655,140.1841)"
           style="font-variant:normal;font-weight:normal;font-stretch:normal;font-size:5.9925px;font-family:Symbol;-inkscape-font-specification:SymbolMT;writing-mode:lr-tb;fill:#000000;fill-opacity:1;fill-rule:nonzero;stroke:none"
           id="text1174"><tspan
             x="0"
             y="0"
             id="tspan1172">′</tspan></text>
        <text
           transform="scale(1.0039363,-0.99607909)"
           style="font-variant:normal;font-weight:normal;font-stretch:normal;font-size:5.969px;font-family:Symbol;-inkscape-font-specification:SymbolMT;writing-mode:lr-tb;fill:#000000;fill-opacity:1;fill-rule:nonzero;stroke:none;stroke-width:0.996079"
           id="text1178"
           x="191.15166"
           y="-138.10118"><tspan
             x="191.15166"
             y="-138.10118"
             id="tspan1176"
             style="stroke-width:0.996079">=</tspan></text>
        <text
           transform="scale(1.0123783,-0.98777303)"
           style="font-style:italic;font-variant:normal;font-weight:normal;font-stretch:normal;font-size:5.86866px;font-family:'Times New Roman';-inkscape-font-specification:TimesNewRomanPS-ItalicMT;writing-mode:lr-tb;fill:#000000;fill-opacity:1;fill-rule:nonzero;stroke:none;stroke-width:0.987773"
           id="text1182"
           x="206.1826"
           y="-86.927742"><tspan
             x="206.1826"
             y="-86.927742"
             id="tspan1180"
             style="stroke-width:0.987773">R</tspan></text>
        <text
           transform="scale(1.0102988,-0.98980614)"
           style="font-style:italic;font-variant:normal;font-weight:normal;font-stretch:normal;font-size:5.73375px;font-family:'Times New Roman';-inkscape-font-specification:TimesNewRomanPS-ItalicMT;writing-mode:lr-tb;fill:#000000;fill-opacity:1;fill-rule:nonzero;stroke:none;stroke-width:0.989806"
           id="text1186"
           x="253.62288"
           y="-85.028549"><tspan
             x="253.62288"
             y="-85.028549"
             id="tspan1184"
             style="stroke-width:0.989806">C</tspan></text>
        <text
           transform="scale(0.98706654,-1.0131029)"
           style="font-variant:normal;font-weight:normal;font-stretch:normal;font-size:5.8687px;font-family:'Times New Roman';-inkscape-font-specification:TimesNewRomanPSMT;writing-mode:lr-tb;fill:#000000;fill-opacity:1;fill-rule:nonzero;stroke:none;stroke-width:0.987067"
           id="text1190"
           x="209.62093"
           y="-201.07121"><tspan
             x="209.62093 204.48581"
             y="-201.07121"
             sodipodi:role="line"
             id="tspan1188"
             style="stroke-width:0.987067">)(</tspan></text>
        <text
           transform="scale(0.98706654,-1.0131029)"
           style="font-style:italic;font-variant:normal;font-weight:normal;font-stretch:normal;font-size:5.8687px;font-family:'Times New Roman';-inkscape-font-specification:TimesNewRomanPS-ItalicMT;writing-mode:lr-tb;fill:#000000;fill-opacity:1;fill-rule:nonzero;stroke:none;stroke-width:0.987067"
           id="text1194"
           x="207.00935"
           y="-201.07121"><tspan
             x="207.00935 199.9493"
             y="-201.07121"
             sodipodi:role="line"
             id="tspan1192"
             style="stroke-width:0.987067">tE</tspan></text>
        <g
           id="g1196"
           transform="matrix(0.5569956,0,0,0.5573976,89.599823,245.15732)">
          <g
             id="g1198"
             transform="translate(191.0552,-103.369)">
            <path
               d="M 0,0 H -28 V -163 H 5 l 4,-6 4,10 4,-10 3,11 3,-11 3,11 3,-11 3,11 4,-11 3,11 2,-6 h 67"
               style="fill:none;stroke:#000000;stroke-width:1;stroke-linecap:square;stroke-linejoin:miter;stroke-miterlimit:10;stroke-dasharray:none;stroke-opacity:1"
               id="path1200" />
          </g>
        </g>
        <g
           id="g1202"
           transform="matrix(0.5569956,0,0,0.5573976,89.599823,245.15732)">
          <g
             id="g1204"
             transform="translate(192.0552,-103.869)">
            <path
               d="m 0,0 c 0,-6.389 4.889,-11.5 11,-11.5 6.111,0 11,5.111 11,11.5 C 22,6.389 17.111,11.5 11,11.5 4.889,11.5 0,6.389 0,0"
               style="fill:#ffffff;fill-opacity:1;fill-rule:evenodd;stroke:none"
               id="path1206" />
          </g>
        </g>
        <g
           id="g1208"
           transform="matrix(0.5569956,0,0,0.5573976,89.599823,245.15732)">
          <g
             id="g1210"
             transform="translate(192.0552,-103.869)">
            <path
               d="m 0,0 c 0,-6.389 4.889,-11.5 11,-11.5 6.111,0 11,5.111 11,11.5 C 22,6.389 17.111,11.5 11,11.5 4.889,11.5 0,6.389 0,0 Z"
               style="fill:none;stroke:#000000;stroke-width:1;stroke-linecap:square;stroke-linejoin:miter;stroke-miterlimit:10;stroke-dasharray:none;stroke-opacity:1"
               id="path1212" />
          </g>
        </g>
        <g
           id="g1214"
           transform="matrix(0.5569956,0,0,0.5573976,89.599823,245.15732)">
          <g
             id="g1216"
             transform="translate(214.0552,-103.369)">
            <path
               d="M 0,0 H 84"
               style="fill:none;stroke:#000000;stroke-width:1;stroke-linecap:square;stroke-linejoin:miter;stroke-miterlimit:10;stroke-dasharray:none;stroke-opacity:1"
               id="path1218" />
          </g>
        </g>
        <g
           id="g1220"
           transform="matrix(0.5569956,0,0,0.5573976,89.599823,245.15732)">
          <g
             id="g1222"
             transform="translate(300.0552,-275.369)">
            <path
               d="M 0,0 V 16"
               style="fill:none;stroke:#000000;stroke-width:1;stroke-linecap:square;stroke-linejoin:miter;stroke-miterlimit:10;stroke-dasharray:none;stroke-opacity:1"
               id="path1224" />
          </g>
        </g>
        <g
           id="g1226"
           transform="matrix(0.5569956,0,0,0.5573976,89.599823,245.15732)">
          <g
             id="g1228"
             transform="translate(305.0552,-275.369)">
            <path
               d="m 0,0 c -1,2 -2,5 -2,8 0,3 1,6 3,8"
               style="fill:none;stroke:#000000;stroke-width:1;stroke-linecap:square;stroke-linejoin:miter;stroke-miterlimit:10;stroke-dasharray:none;stroke-opacity:1"
               id="path1230" />
          </g>
        </g>
        <g
           id="g1232"
           transform="matrix(0.4156978,0,0,-0.4161479,156.47006,62.125198)">
          <g
             id="g1234"
             transform="translate(247.8825,-70.9894)">
            <path
               d="m 0,0 c -1.34,-2.679 -2.68,-6.697 -2.68,-10.715 0,-4.019 1.34,-8.037 4.02,-10.716 l 22.778,10.716 m 29.055,-14.665 14,-7 h 32 v -53"
               style="fill:none;stroke:#000000;stroke-width:1;stroke-linecap:square;stroke-linejoin:miter;stroke-miterlimit:10;stroke-dasharray:none;stroke-opacity:1"
               id="path1236" />
          </g>
        </g>
        <g
           id="g1238"
           transform="matrix(0.4156978,0,0,-0.4161479,156.47006,62.125198)">
          <g
             id="g1240"
             transform="translate(303.0552,-267.369)">
            <path
               d="M 0,0 H 44 V 49"
               style="fill:none;stroke:#000000;stroke-width:1;stroke-linecap:square;stroke-linejoin:miter;stroke-miterlimit:10;stroke-dasharray:none;stroke-opacity:1"
               id="path1242" />
          </g>
        </g>
        <g
           id="g1244"
           transform="matrix(0.4156978,0,0,-0.4161479,156.47006,62.125198)">
          <g
             id="g1246"
             transform="translate(347.0552,-156.369)">
            <path
               d="m 0,0 c 4,-1 5,-1 6,-4 v -5 c -1,-2 -5,-3 -7,-3 1,2 2,1 4,1 1,-1 3,-2 4,-3 0,-2 1,-4 2,-5 0,-4 -1,-5 -5,-6 -4,0 -8,1 -3,2 l 4,-2 c 0,-3 3,-4 4,-6 0,-1 0,-3 -1,-4 -1,0 -2,-1 -2,-1 -3,1 -6,0 -8,1 -1,0 1,1 1,1 1,0 4,-1 4,-1 1,-1 2,-3 4,-4 0,-1 1,-4 -1,-5 -1,-1 -3,-1 -4,-1 -1,0 -3,-1 -3,-1 -5,1 -2,1 0,2 2,-1 3,-1 4,-2 1,-1 2,-3 2,-3 -1,-2 0,-2 -1,-3 -1,-1 -3,-2 -3,-2 -2,1 -7,1 -3,2 h 5 c 1,0 3,-3 3,-3 -1,-1 -1,-2 -2,-3 l -2,-2 c -1,-1 -1,-1 -2,-1"
               style="fill:none;stroke:#000000;stroke-width:1;stroke-linecap:square;stroke-linejoin:miter;stroke-miterlimit:10;stroke-dasharray:none;stroke-opacity:1"
               id="path1248" />
          </g>
        </g>
        <g
           id="g1250"
           transform="matrix(0.4156978,0,0,-0.4161479,156.47006,62.125198)">
          <g
             id="g1252"
             transform="translate(163.0552,-198.369)">
            <path
               d="M 0,0 V 0"
               style="fill:none;stroke:#000000;stroke-width:1;stroke-linecap:square;stroke-linejoin:miter;stroke-miterlimit:10;stroke-dasharray:none;stroke-opacity:1"
               id="path1254" />
          </g>
        </g>
        <g
           id="g1256"
           transform="matrix(0.4156978,0,0,-0.4161479,156.47006,62.125198)">
          <g
             id="g1258"
             transform="translate(169.0552,-187.369)">
            <path
               d="M 0,0 -5,-11 -11,0 Z"
               style="fill:#000000;fill-opacity:1;fill-rule:evenodd;stroke:none"
               id="path1260" />
          </g>
        </g>
        <text
           transform="matrix(1,0,0,-0.99253181,237.6437,140.2371)"
           style="font-style:italic;font-variant:normal;font-weight:normal;font-stretch:normal;font-size:4.4723px;font-family:'Times New Roman';-inkscape-font-specification:TimesNewRomanPS-ItalicMT;writing-mode:lr-tb;fill:#000000;fill-opacity:1;fill-rule:nonzero;stroke:none"
           id="text1264"><tspan
             x="0 -9.2934399"
             y="0"
             sodipodi:role="line"
             id="tspan1262">QI</tspan></text>
        <text
           transform="matrix(1,0,0,-0.99253181,240.92637,140.499)"
           style="font-variant:normal;font-weight:normal;font-stretch:normal;font-size:4.4723px;font-family:Symbol;-inkscape-font-specification:SymbolMT;writing-mode:lr-tb;fill:#000000;fill-opacity:1;fill-rule:nonzero;stroke:none"
           id="text1270"><tspan
             x="0"
             y="0"
             id="tspan1266">′</tspan><tspan
             x="-8.1038074"
             y="0.26386571"
             id="tspan1268">=</tspan></text>
        <text
           transform="matrix(1,0,0,-0.97604925,245.3831,178.2176)"
           style="font-style:italic;font-variant:normal;font-weight:normal;font-stretch:normal;font-size:4.4341px;font-family:'Times New Roman';-inkscape-font-specification:TimesNewRomanPS-ItalicMT;writing-mode:lr-tb;fill:#000000;fill-opacity:1;fill-rule:nonzero;stroke:none"
           id="text1274"><tspan
             x="0"
             y="0"
             id="tspan1272">R</tspan></text>
      </g>
    </g>
  </g>
</svg>
