<svg xmlns="http://www.w3.org/2000/svg" xmlns:xlink="http://www.w3.org/1999/xlink" width="428" height="89pt" viewBox="0 0 321 89"><defs><clipPath id="a"><path d="M106 40h51v48.535h-51zm0 0"/></clipPath><clipPath id="b"><path d="M255 40h65.996v48.535H255zm0 0"/></clipPath><clipPath id="c"><path d="M22 0h2v82h-2zm0 0"/></clipPath><clipPath id="d"><path d="M-.004 88.535h321v-89h-321zM22.696.117h.84l1.8 10.2-2.219-8.758-2.222 8.757zm0 0"/></clipPath><clipPath id="e"><path d="M143 20h2v35h-2zm0 0"/></clipPath><clipPath id="f"><path d="M-.004 88.535h321v-89h-321zm143.418-68.558h.844l1.797 10.261-2.22-8.82-2.218 8.82zm0 0"/></clipPath><clipPath id="g"><path d="M0 53h290v2H0zm0 0"/></clipPath><clipPath id="h"><path d="M-.004 88.535h321v-89h-321zm290.121-35.137v.84l-10.203 1.797 8.762-2.219-8.762-2.218zm0 0"/></clipPath><symbol overflow="visible" id="i"><path style="stroke:none" d="m5.86-5.656-.141-.11c-.344.141-.61.204-.875.235l-.422 1.578c-.14.562-.563 1.437-.953 2.015-.422.61-1 1.141-1.266 1.141-.265 0-.25-.578-.234-.734l.187-2.313c.016-.375.047-.828.047-1.172 0-.53-.094-.75-.297-.75-.156 0-.312.094-.89.485L.03-4.61l.14.203.595-.344c.062-.063.218-.156.296-.156.313 0 .266.61.25.812L1.11-1.187l-.015.468c0 .5.218.844.515.844.454 0 1.454-1.016 2.344-2.36L3.375-.187c-.61 2.11-1.219 2.985-2.047 2.985a.737.737 0 0 1-.75-.735c0-.062.016-.156.031-.265L.484 1.75l-.562.406c-.016.078-.016.156-.016.203 0 .516.438.938.985.938 1.265 0 2.578-1.485 3.28-3.688zm0 0"/></symbol><symbol overflow="visible" id="k"><path style="stroke:none" d="m5.36-.938-.094-.234c-.438.36-.735.531-.922.531C4.156-.64 4-.75 3.89-.984a4.761 4.761 0 0 1-.313-1.032l-.203-1.203.422-.578c.547-.781.875-1.062 1.25-1.062.187 0 .328.109.39.28l.172-.046.172-1.016c-.14-.078-.25-.125-.36-.125-.468 0-.952.438-1.687 1.532l-.453.656-.062-.563c-.14-1.187-.469-1.625-1.172-1.625-.313 0-.578.094-.688.25l-.687 1 .203.11c.36-.407.594-.563.828-.563.39 0 .656.485.86 1.657l.124.75-.468.734C1.703-1.031 1.297-.641.953-.641.781-.64.641-.687.625-.75l-.14-.344-.235.047c0 .234-.016.39-.094.766-.031.156-.031.187-.047.265.172.094.375.141.516.141.39 0 .86-.344 1.234-.906l.907-1.39.125.827C3.062-.328 3.328.125 3.75.125c.266 0 .656-.203 1.031-.547zm0 0"/></symbol><symbol overflow="visible" id="l"><path style="stroke:none" d="M5.969 0c0-.297.125-1.234.281-1.969h-.375l-.203.735c-.11.39-.203.593-.313.64-.14.063-1.062.125-1.718.125-.672 0-.97-.015-1.704-.078 0-.14 0-.281.016-.422l1.11-6.36c.078-.452.171-.53.609-.577l.5-.032.031-.328c-.469.016-.953.032-1.437.032-.532 0-1.063-.016-1.61-.032l-.031.329.563.03c.28 0 .421.095.421.298 0 .187-.046.53-.109.921L.969-.655C.938-.437.78-.36.25-.281L.187.03C.797.016 1.423 0 2.032 0c.89 0 1.797.031 2.688.031.5 0 .843 0 1.25-.031zm0 0"/></symbol><symbol overflow="visible" id="j"><path style="stroke:none" d="M5.563-4.375c0-2.625-.782-3.86-2.422-3.86-1.844 0-2.797 1.47-2.797 4.36 0 1.406.25 2.61.672 3.188.421.593 1.093.921 1.828.921 1.812 0 2.719-1.546 2.719-4.609zm-1.016.594c0 2.547-.453 3.61-1.547 3.61-1.156 0-1.656-1.22-1.656-4.126 0-2.531.453-3.516 1.578-3.516 1.172 0 1.625 1.172 1.625 4.032zm0 0"/></symbol></defs><g clip-path="url(#a)"><path style="fill:none;stroke-width:4.5;stroke-linecap:butt;stroke-linejoin:miter;stroke:#d0d0d0;stroke-opacity:1;stroke-miterlimit:10" d="M1498.4 232.01c0-102.382-83.008-185.39-185.391-185.39s-185.39 83.008-185.39 185.39c0 102.383 83.007 185.391 185.39 185.391 102.383 0 185.39-83.008 185.39-185.39zm0 0" transform="matrix(.1 0 0 -.1 -.004 88.537)"/></g><path style="fill:none;stroke-width:4.5;stroke-linecap:butt;stroke-linejoin:miter;stroke:#d0d0d0;stroke-opacity:1;stroke-miterlimit:10" d="M2483.009 142.01v205.196M2351.602 142.01v205.196M2229.18 142.01v205.196M2121.212 142.01v205.196m-93.594-205.196v205.196m-72.031-205.196v205.196m-64.805-205.196v205.196m-50.39-205.196v205.196m777.617-205.196v205.196m-2385-205.196h2385m-2385 45h2385" transform="matrix(.1 0 0 -.1 -.004 88.537)"/><g clip-path="url(#b)"><path style="fill:none;stroke-width:4.5;stroke-linecap:butt;stroke-linejoin:miter;stroke:#d0d0d0;stroke-opacity:1;stroke-miterlimit:10" d="m2640.782 347.792 112.227 64.219 450-135-45-270-450 45-90 90" transform="matrix(.1 0 0 -.1 -.004 88.537)"/></g><path style="fill:none;stroke-width:4.5;stroke-linecap:butt;stroke-linejoin:miter;stroke:#d0d0d0;stroke-opacity:1;stroke-miterlimit:10" d="M233.009 232.01h2385m-2385 45h2385m-2385 45h2385" transform="matrix(.1 0 0 -.1 -.004 88.537)"/><path style="fill:none;stroke-width:4.5;stroke-linecap:butt;stroke-linejoin:bevel;stroke:#d0d0d0;stroke-opacity:1;stroke-miterlimit:10" d="M1808.009 347.206v2.383l-.625 4.804v7.813l-.586 11.406-1.211 13.203-1.172 15-1.797 15-1.836 14.375-1.797 13.828-2.382 13.165-3.008 12.03-3.008 11.407-3.594 10.781-4.18 10.781-4.804 10.235-4.219 8.984-4.805 8.985-5.39 9.609-5.977 9.61-6.601 9.609-7.227 10.195-8.398 9.61-8.399 10.78-9.61 10.196-9.57 10.195-10.82 9.61-22.812 19.218-11.993 8.399-12.578 8.398-12.617 7.774-12.578 7.226-13.828 6.602-13.203 5.39-14.375 5.391-11.992 4.219-13.204 4.18-13.203 3.593-13.828 3.008-14.375 3.008-15 2.383-15.625 1.797-16.172 1.797-16.21 1.835-16.798.586-17.421.586-17.383.625-17.383-.625-16.797-.586-17.422-.586-16.797-1.836-16.21-1.796-16.172-1.797-15.625-2.383-15-3.008-14.375-3.008-13.829-3.593-13.789-4.18-12.617-4.219-14.375-4.805-13.203-5.39-13.789-5.39-13.203-6.016-13.828-6.602-13.203-7.188-13.79-7.187-13.789-7.227-13.789-7.773-14.414-7.227-13.789-7.773-14.414-7.813-13.789-7.187-14.414-7.227-14.375-6.601-13.828-5.977-14.375-6.015-13.828-5.39-14.375-4.806-13.828-4.218-14.375-3.594-15-3.594-13.828-1.797-14.375-2.383-15-1.21-15.625-1.211-16.172-.586h-16.797l-17.422.586-17.383.586-18.594.625-18.007 1.796-37.188 3.594-18.633 2.422-17.968 2.383-18.008 3.008-17.422 3.007-17.383 2.97-16.21 3.632-15.587 2.969-15 3.593-14.414 3.633-13.789 3.594-12.617 3.008-12.578 3.594-15.625 4.804-14.375 4.18-14.414 4.805-13.203 5.39-13.204 5.43-13.789 5.977-13.203 6.015-13.789 7.188-14.414 7.187-13.789 7.227-13.203 7.773-12.617 6.602-10.781 6.015-8.399 5.391-5.39 3.008-3.008 1.797-1.797 1.21m1485-540v-34.218l-.625-5.39V91.62l-.586-5.43-.586-6.601-.625-7.774-.586-8.398V56.19l-.586-3.593v-.586" transform="matrix(.1 0 0 -.1 -.004 88.537)"/><path style="fill:none;stroke-width:4.5;stroke-linecap:butt;stroke-linejoin:miter;stroke:#000;stroke-opacity:1;stroke-miterlimit:10" d="M2638.4 379.589v-60" transform="matrix(.1 0 0 -.1 -.004 88.537)"/><g clip-path="url(#c)"><g clip-path="url(#d)" clip-rule="evenodd"><path style="fill:none;stroke-width:4.5;stroke-linecap:butt;stroke-linejoin:miter;stroke:#000;stroke-opacity:1;stroke-miterlimit:10" d="M231.212 880.018V71.815" transform="matrix(.1 0 0 -.1 -.004 88.537)"/></g></g><path style="fill:none;stroke-width:4.5;stroke-linecap:butt;stroke-linejoin:miter;stroke:#000;stroke-opacity:1;stroke-miterlimit:10" d="m208.985 782.206 22.227 87.578 22.187-87.578" transform="matrix(.1 0 0 -.1 -.004 88.537)"/><g clip-path="url(#e)"><g clip-path="url(#f)" clip-rule="evenodd"><path style="fill:none;stroke-width:4.5;stroke-linecap:butt;stroke-linejoin:miter;stroke:#000;stroke-opacity:1;stroke-miterlimit:10" d="M1438.4 347.206v334.18" transform="matrix(.1 0 0 -.1 -.004 88.537)"/></g></g><path style="fill:none;stroke-width:4.5;stroke-linecap:butt;stroke-linejoin:miter;stroke:#000;stroke-opacity:1;stroke-miterlimit:10" d="m1416.212 582.987 22.187 88.203 22.188-88.203" transform="matrix(.1 0 0 -.1 -.004 88.537)"/><path style="fill:none;stroke-width:9;stroke-linecap:butt;stroke-linejoin:miter;stroke:#000;stroke-opacity:1;stroke-miterlimit:10" d="m233.009 347.206 1205.976 334.18 1200-334.18" transform="matrix(.1 0 0 -.1 -.004 88.537)"/><g clip-path="url(#g)"><g clip-path="url(#h)" clip-rule="evenodd"><path style="fill:none;stroke-width:4.5;stroke-linecap:butt;stroke-linejoin:miter;stroke:#000;stroke-opacity:1;stroke-miterlimit:10" d="M7.384 347.206h2889.61" transform="matrix(.1 0 0 -.1 -.004 88.537)"/></g></g><path style="fill:none;stroke-width:4.5;stroke-linecap:butt;stroke-linejoin:miter;stroke:#000;stroke-opacity:1;stroke-miterlimit:10" d="m2799.18 369.393 87.618-22.187-87.617-22.188" transform="matrix(.1 0 0 -.1 -.004 88.537)"/><use xlink:href="#i" x="149.937" y="40.056" style="fill:#000;fill-opacity:1"/><use xlink:href="#i" x="13.974" y="12.756" style="fill:#000;fill-opacity:1"/><use xlink:href="#j" x="13.376" y="66.337" style="fill:#000;fill-opacity:1"/><use xlink:href="#k" x="284.462" y="66.337" style="fill:#000;fill-opacity:1"/><use xlink:href="#l" x="264.186" y="66.337" style="fill:#000;fill-opacity:1"/></svg>